<?xml version="1.0" encoding="UTF-8" standalone="no"?>
<!DOCTYPE svg PUBLIC "-//W3C//DTD SVG 1.1//EN"
 "http://www.w3.org/Graphics/SVG/1.1/DTD/svg11.dtd">
<!-- Generated by graphviz version 2.47.0 (20210316.0004)
 -->
<!-- Title: dependencies Pages: 1 -->
<svg width="620pt" height="276pt"
 viewBox="0.00 0.00 620.00 276.00" xmlns="http://www.w3.org/2000/svg" xmlns:xlink="http://www.w3.org/1999/xlink">
<g id="graph0" class="graph" transform="scale(1 1) rotate(0) translate(4 272)">
<title>dependencies</title>
<polygon fill="white" stroke="transparent" points="-4,4 -4,-272 616,-272 616,4 -4,4"/>
<text text-anchor="start" x="285.01" y="-42.4" font-family="Times-12" font-weight="bold" font-size="14.00">Legend</text>
<polygon fill="#ffffb3" stroke="transparent" points="72,-10 72,-30 92,-30 92,-10 72,-10"/>
<text text-anchor="start" x="95.63" y="-15.4" font-family="Times-12" font-size="14.00"> &#160;Declarations</text>
<polygon fill="#8dd3c7" stroke="transparent" points="185,-10 185,-30 205,-30 205,-10 185,-10"/>
<text text-anchor="start" x="208.73" y="-15.4" font-family="Times-12" font-size="14.00"> &#160;Module</text>
<polygon fill="#80b1d3" stroke="transparent" points="271,-10 271,-30 291,-30 291,-10 271,-10"/>
<text text-anchor="start" x="294.78" y="-15.4" font-family="Times-12" font-size="14.00"> &#160;Bootstrap</text>
<polygon fill="#fdb462" stroke="transparent" points="368,-10 368,-30 388,-30 388,-10 368,-10"/>
<text text-anchor="start" x="391.67" y="-15.4" font-family="Times-12" font-size="14.00"> &#160;Providers</text>
<polygon fill="#fb8072" stroke="transparent" points="464,-10 464,-30 484,-30 484,-10 464,-10"/>
<text text-anchor="start" x="487.73" y="-15.4" font-family="Times-12" font-size="14.00"> &#160;Exports</text>
<g id="clust1" class="cluster">
<title>cluster_OverlaysDemoModule</title>
<polygon fill="none" stroke="black" stroke-dasharray="1,5" points="8,-70 8,-260 604,-260 604,-70 8,-70"/>
</g>
<g id="clust3" class="cluster">
<title>cluster_OverlaysDemoModule_OverlaysDemoComponent_providers</title>
<polygon fill="none" stroke="black" points="230,-78 230,-195 596,-195 596,-78 230,-78"/>
</g>
<g id="clust4" class="cluster">
<title>cluster_OverlaysDemoModule_imports</title>
<polygon fill="none" stroke="black" points="16,-143 16,-195 222,-195 222,-143 16,-143"/>
</g>
<!-- OverlaysDemoComponent -->
<g id="node1" class="node">
<title>OverlaysDemoComponent</title>
<polygon fill="#ffffb3" stroke="black" points="404.08,-187 237.92,-187 237.92,-151 404.08,-151 404.08,-187"/>
<text text-anchor="middle" x="321" y="-164.8" font-family="Times,serif" font-size="14.00">OverlaysDemoComponent</text>
</g>
<!-- OverlaysDemoModule -->
<g id="node2" class="node">
<title>OverlaysDemoModule</title>
<polygon fill="#8dd3c7" stroke="black" points="292.29,-252 289.29,-256 268.29,-256 265.29,-252 147.71,-252 147.71,-216 292.29,-216 292.29,-252"/>
<text text-anchor="middle" x="220" y="-229.8" font-family="Times,serif" font-size="14.00">OverlaysDemoModule</text>
</g>
<!-- OverlaysDemoComponent&#45;&gt;OverlaysDemoModule -->
<g id="edge1" class="edge">
<title>OverlaysDemoComponent&#45;&gt;OverlaysDemoModule</title>
<path fill="none" stroke="black" d="M265.05,-187.11C265.05,-187.11 265.05,-205.99 265.05,-205.99"/>
<polygon fill="black" stroke="black" points="261.55,-205.99 265.05,-215.99 268.55,-205.99 261.55,-205.99"/>
</g>
<!-- ConfirmationService -->
<g id="node3" class="node">
<title>ConfirmationService</title>
<ellipse fill="#fdb462" stroke="black" cx="496" cy="-104" rx="92.05" ry="18"/>
<text text-anchor="middle" x="496" y="-99.8" font-family="Times,serif" font-size="14.00">ConfirmationService</text>
</g>
<!-- ConfirmationService&#45;&gt;OverlaysDemoComponent -->
<g id="edge2" class="edge">
<title>ConfirmationService&#45;&gt;OverlaysDemoComponent</title>
<path fill="none" stroke="black" d="M403.85,-104C398.28,-104 394.88,-104 394.88,-104 394.88,-104 394.88,-140.89 394.88,-140.89"/>
<polygon fill="black" stroke="black" points="391.38,-140.89 394.88,-150.89 398.38,-140.89 391.38,-140.89"/>
</g>
<!-- MessageService -->
<g id="node4" class="node">
<title>MessageService</title>
<ellipse fill="#fdb462" stroke="black" cx="312" cy="-104" rx="73.55" ry="18"/>
<text text-anchor="middle" x="312" y="-99.8" font-family="Times,serif" font-size="14.00">MessageService</text>
</g>
<!-- MessageService&#45;&gt;OverlaysDemoComponent -->
<g id="edge3" class="edge">
<title>MessageService&#45;&gt;OverlaysDemoComponent</title>
<path fill="none" stroke="black" d="M312,-122.11C312,-122.11 312,-140.99 312,-140.99"/>
<polygon fill="black" stroke="black" points="308.5,-140.99 312,-150.99 315.5,-140.99 308.5,-140.99"/>
</g>
<!-- OverlaysDemoRoutingModule -->
<g id="node5" class="node">
<title>OverlaysDemoRoutingModule</title>
<polygon fill="#8dd3c7" stroke="black" points="213.91,-187 210.91,-191 189.91,-191 186.91,-187 24.09,-187 24.09,-151 213.91,-151 213.91,-187"/>
<text text-anchor="middle" x="119" y="-164.8" font-family="Times,serif" font-size="14.00">OverlaysDemoRoutingModule</text>
</g>
<!-- OverlaysDemoRoutingModule&#45;&gt;OverlaysDemoModule -->
<g id="edge4" class="edge">
<title>OverlaysDemoRoutingModule&#45;&gt;OverlaysDemoModule</title>
<path fill="none" stroke="black" d="M180.78,-187.11C180.78,-187.11 180.78,-205.99 180.78,-205.99"/>
<polygon fill="black" stroke="black" points="177.28,-205.99 180.78,-215.99 184.28,-205.99 177.28,-205.99"/>
</g>
</g>
</svg>
