<?xml version="1.0" encoding="UTF-8" standalone="no"?>
<!DOCTYPE svg PUBLIC "-//W3C//DTD SVG 1.1//EN"
 "http://www.w3.org/Graphics/SVG/1.1/DTD/svg11.dtd">
<!-- Generated by graphviz version 2.47.0 (20210316.0004)
 -->
<!-- Title: dependencies Pages: 1 -->
<svg width="504pt" height="211pt"
 viewBox="0.00 0.00 504.00 211.00" xmlns="http://www.w3.org/2000/svg" xmlns:xlink="http://www.w3.org/1999/xlink">
<g id="graph0" class="graph" transform="scale(1 1) rotate(0) translate(4 207)">
<title>dependencies</title>
<polygon fill="white" stroke="transparent" points="-4,4 -4,-207 500,-207 500,4 -4,4"/>
<text text-anchor="start" x="227.01" y="-42.4" font-family="Times-12" font-weight="bold" font-size="14.00">Legend</text>
<polygon fill="#ffffb3" stroke="transparent" points="14,-10 14,-30 34,-30 34,-10 14,-10"/>
<text text-anchor="start" x="37.63" y="-15.4" font-family="Times-12" font-size="14.00"> &#160;Declarations</text>
<polygon fill="#8dd3c7" stroke="transparent" points="127,-10 127,-30 147,-30 147,-10 127,-10"/>
<text text-anchor="start" x="150.73" y="-15.4" font-family="Times-12" font-size="14.00"> &#160;Module</text>
<polygon fill="#80b1d3" stroke="transparent" points="213,-10 213,-30 233,-30 233,-10 213,-10"/>
<text text-anchor="start" x="236.78" y="-15.4" font-family="Times-12" font-size="14.00"> &#160;Bootstrap</text>
<polygon fill="#fdb462" stroke="transparent" points="310,-10 310,-30 330,-30 330,-10 310,-10"/>
<text text-anchor="start" x="333.67" y="-15.4" font-family="Times-12" font-size="14.00"> &#160;Providers</text>
<polygon fill="#fb8072" stroke="transparent" points="406,-10 406,-30 426,-30 426,-10 406,-10"/>
<text text-anchor="start" x="429.73" y="-15.4" font-family="Times-12" font-size="14.00"> &#160;Exports</text>
<g id="clust1" class="cluster">
<title>cluster_MiscDemoModule</title>
<polygon fill="none" stroke="black" stroke-dasharray="1,5" points="65,-70 65,-195 431,-195 431,-70 65,-70"/>
</g>
<g id="clust4" class="cluster">
<title>cluster_MiscDemoModule_imports</title>
<polygon fill="none" stroke="black" points="241,-78 241,-130 423,-130 423,-78 241,-78"/>
</g>
<g id="clust2" class="cluster">
<title>cluster_MiscDemoModule_declarations</title>
<polygon fill="none" stroke="black" points="73,-78 73,-130 233,-130 233,-78 73,-78"/>
</g>
<!-- MiscDemoComponent -->
<g id="node1" class="node">
<title>MiscDemoComponent</title>
<polygon fill="#ffffb3" stroke="black" points="224.54,-122 81.46,-122 81.46,-86 224.54,-86 224.54,-122"/>
<text text-anchor="middle" x="153" y="-99.8" font-family="Times,serif" font-size="14.00">MiscDemoComponent</text>
</g>
<!-- MiscDemoModule -->
<g id="node2" class="node">
<title>MiscDemoModule</title>
<polygon fill="#8dd3c7" stroke="black" points="302.76,-187 299.76,-191 278.76,-191 275.76,-187 181.24,-187 181.24,-151 302.76,-151 302.76,-187"/>
<text text-anchor="middle" x="242" y="-164.8" font-family="Times,serif" font-size="14.00">MiscDemoModule</text>
</g>
<!-- MiscDemoComponent&#45;&gt;MiscDemoModule -->
<g id="edge1" class="edge">
<title>MiscDemoComponent&#45;&gt;MiscDemoModule</title>
<path fill="none" stroke="black" d="M202.95,-122.11C202.95,-122.11 202.95,-140.99 202.95,-140.99"/>
<polygon fill="black" stroke="black" points="199.45,-140.99 202.95,-150.99 206.45,-140.99 199.45,-140.99"/>
</g>
<!-- MiscDemoRoutingModule -->
<g id="node3" class="node">
<title>MiscDemoRoutingModule</title>
<polygon fill="#8dd3c7" stroke="black" points="415.37,-122 412.37,-126 391.37,-126 388.37,-122 248.63,-122 248.63,-86 415.37,-86 415.37,-122"/>
<text text-anchor="middle" x="332" y="-99.8" font-family="Times,serif" font-size="14.00">MiscDemoRoutingModule</text>
</g>
<!-- MiscDemoRoutingModule&#45;&gt;MiscDemoModule -->
<g id="edge2" class="edge">
<title>MiscDemoRoutingModule&#45;&gt;MiscDemoModule</title>
<path fill="none" stroke="black" d="M275.72,-122.11C275.72,-122.11 275.72,-140.99 275.72,-140.99"/>
<polygon fill="black" stroke="black" points="272.22,-140.99 275.72,-150.99 279.22,-140.99 272.22,-140.99"/>
</g>
</g>
</svg>
