<?xml version="1.0" encoding="UTF-8" standalone="no"?>
<!DOCTYPE svg PUBLIC "-//W3C//DTD SVG 1.1//EN"
 "http://www.w3.org/Graphics/SVG/1.1/DTD/svg11.dtd">
<!-- Generated by graphviz version 2.47.0 (20210316.0004)
 -->
<!-- Title: dependencies Pages: 1 -->
<svg width="2475pt" height="211pt"
 viewBox="0.00 0.00 2475.00 211.00" xmlns="http://www.w3.org/2000/svg" xmlns:xlink="http://www.w3.org/1999/xlink">
<g id="graph0" class="graph" transform="scale(1 1) rotate(0) translate(4 207)">
<title>dependencies</title>
<polygon fill="white" stroke="transparent" points="-4,4 -4,-207 2471,-207 2471,4 -4,4"/>
<text text-anchor="start" x="1212.51" y="-42.4" font-family="Times-12" font-weight="bold" font-size="14.00">Legend</text>
<polygon fill="#ffffb3" stroke="transparent" points="999.5,-10 999.5,-30 1019.5,-30 1019.5,-10 999.5,-10"/>
<text text-anchor="start" x="1023.13" y="-15.4" font-family="Times-12" font-size="14.00"> &#160;Declarations</text>
<polygon fill="#8dd3c7" stroke="transparent" points="1112.5,-10 1112.5,-30 1132.5,-30 1132.5,-10 1112.5,-10"/>
<text text-anchor="start" x="1136.23" y="-15.4" font-family="Times-12" font-size="14.00"> &#160;Module</text>
<polygon fill="#80b1d3" stroke="transparent" points="1198.5,-10 1198.5,-30 1218.5,-30 1218.5,-10 1198.5,-10"/>
<text text-anchor="start" x="1222.28" y="-15.4" font-family="Times-12" font-size="14.00"> &#160;Bootstrap</text>
<polygon fill="#fdb462" stroke="transparent" points="1295.5,-10 1295.5,-30 1315.5,-30 1315.5,-10 1295.5,-10"/>
<text text-anchor="start" x="1319.17" y="-15.4" font-family="Times-12" font-size="14.00"> &#160;Providers</text>
<polygon fill="#fb8072" stroke="transparent" points="1391.5,-10 1391.5,-30 1411.5,-30 1411.5,-10 1391.5,-10"/>
<text text-anchor="start" x="1415.23" y="-15.4" font-family="Times-12" font-size="14.00"> &#160;Exports</text>
<g id="clust1" class="cluster">
<title>cluster_MailAppModule</title>
<polygon fill="none" stroke="black" stroke-dasharray="1,5" points="8,-70 8,-195 2459,-195 2459,-70 8,-70"/>
</g>
<g id="clust2" class="cluster">
<title>cluster_MailAppModule_declarations</title>
<polygon fill="none" stroke="black" points="336,-78 336,-130 2451,-130 2451,-78 336,-78"/>
</g>
<g id="clust19" class="cluster">
<title>cluster_MailAppModule_providers</title>
<polygon fill="none" stroke="black" points="196,-78 196,-130 328,-130 328,-78 196,-78"/>
</g>
<g id="clust16" class="cluster">
<title>cluster_MailAppModule_imports</title>
<polygon fill="none" stroke="black" points="16,-78 16,-130 188,-130 188,-78 16,-78"/>
</g>
<!-- MailAppComponent -->
<g id="node1" class="node">
<title>MailAppComponent</title>
<polygon fill="#ffffb3" stroke="black" points="2442.88,-122 2311.12,-122 2311.12,-86 2442.88,-86 2442.88,-122"/>
<text text-anchor="middle" x="2377" y="-99.8" font-family="Times,serif" font-size="14.00">MailAppComponent</text>
</g>
<!-- MailAppModule -->
<g id="node14" class="node">
<title>MailAppModule</title>
<polygon fill="#8dd3c7" stroke="black" points="1274.1,-187 1271.1,-191 1250.1,-191 1247.1,-187 1163.9,-187 1163.9,-151 1274.1,-151 1274.1,-187"/>
<text text-anchor="middle" x="1219" y="-164.8" font-family="Times,serif" font-size="14.00">MailAppModule</text>
</g>
<!-- MailAppComponent&#45;&gt;MailAppModule -->
<g id="edge1" class="edge">
<title>MailAppComponent&#45;&gt;MailAppModule</title>
<path fill="none" stroke="black" d="M2377,-122.32C2377,-145.66 2377,-183 2377,-183 2377,-183 1284.07,-183 1284.07,-183"/>
<polygon fill="black" stroke="black" points="1284.07,-179.5 1274.07,-183 1284.07,-186.5 1284.07,-179.5"/>
</g>
<!-- MailArchiveComponent -->
<g id="node2" class="node">
<title>MailArchiveComponent</title>
<polygon fill="#ffffb3" stroke="black" points="2293.36,-122 2140.64,-122 2140.64,-86 2293.36,-86 2293.36,-122"/>
<text text-anchor="middle" x="2217" y="-99.8" font-family="Times,serif" font-size="14.00">MailArchiveComponent</text>
</g>
<!-- MailArchiveComponent&#45;&gt;MailAppModule -->
<g id="edge2" class="edge">
<title>MailArchiveComponent&#45;&gt;MailAppModule</title>
<path fill="none" stroke="black" d="M2217,-122.29C2217,-144.21 2217,-178 2217,-178 2217,-178 1284.08,-178 1284.08,-178"/>
<polygon fill="black" stroke="black" points="1284.08,-174.5 1274.08,-178 1284.08,-181.5 1284.08,-174.5"/>
</g>
<!-- MailComposeComponent -->
<g id="node3" class="node">
<title>MailComposeComponent</title>
<polygon fill="#ffffb3" stroke="black" points="2122.16,-122 1961.84,-122 1961.84,-86 2122.16,-86 2122.16,-122"/>
<text text-anchor="middle" x="2042" y="-99.8" font-family="Times,serif" font-size="14.00">MailComposeComponent</text>
</g>
<!-- MailComposeComponent&#45;&gt;MailAppModule -->
<g id="edge3" class="edge">
<title>MailComposeComponent&#45;&gt;MailAppModule</title>
<path fill="none" stroke="black" d="M2042,-122.03C2042,-142.77 2042,-174 2042,-174 2042,-174 1284.28,-174 1284.28,-174"/>
<polygon fill="black" stroke="black" points="1284.28,-170.5 1274.28,-174 1284.28,-177.5 1284.28,-170.5"/>
</g>
<!-- MailDetailComponent -->
<g id="node4" class="node">
<title>MailDetailComponent</title>
<polygon fill="#ffffb3" stroke="black" points="1943.98,-122 1802.02,-122 1802.02,-86 1943.98,-86 1943.98,-122"/>
<text text-anchor="middle" x="1873" y="-99.8" font-family="Times,serif" font-size="14.00">MailDetailComponent</text>
</g>
<!-- MailDetailComponent&#45;&gt;MailAppModule -->
<g id="edge4" class="edge">
<title>MailDetailComponent&#45;&gt;MailAppModule</title>
<path fill="none" stroke="black" d="M1873,-122.11C1873,-141.34 1873,-169 1873,-169 1873,-169 1284.2,-169 1284.2,-169"/>
<polygon fill="black" stroke="black" points="1284.2,-165.5 1274.2,-169 1284.2,-172.5 1284.2,-165.5"/>
</g>
<!-- MailImportantComponent -->
<g id="node5" class="node">
<title>MailImportantComponent</title>
<polygon fill="#ffffb3" stroke="black" points="1784.48,-122 1621.52,-122 1621.52,-86 1784.48,-86 1784.48,-122"/>
<text text-anchor="middle" x="1703" y="-99.8" font-family="Times,serif" font-size="14.00">MailImportantComponent</text>
</g>
<!-- MailImportantComponent&#45;&gt;MailAppModule -->
<g id="edge5" class="edge">
<title>MailImportantComponent&#45;&gt;MailAppModule</title>
<path fill="none" stroke="black" d="M1703,-122.3C1703,-140.27 1703,-165 1703,-165 1703,-165 1284.05,-165 1284.05,-165"/>
<polygon fill="black" stroke="black" points="1284.05,-161.5 1274.05,-165 1284.05,-168.5 1284.05,-161.5"/>
</g>
<!-- MailInboxComponent -->
<g id="node6" class="node">
<title>MailInboxComponent</title>
<polygon fill="#ffffb3" stroke="black" points="1603.43,-122 1462.57,-122 1462.57,-86 1603.43,-86 1603.43,-122"/>
<text text-anchor="middle" x="1533" y="-99.8" font-family="Times,serif" font-size="14.00">MailInboxComponent</text>
</g>
<!-- MailInboxComponent&#45;&gt;MailAppModule -->
<g id="edge6" class="edge">
<title>MailInboxComponent&#45;&gt;MailAppModule</title>
<path fill="none" stroke="black" d="M1533,-122.03C1533,-138.4 1533,-160 1533,-160 1533,-160 1284.05,-160 1284.05,-160"/>
<polygon fill="black" stroke="black" points="1284.05,-156.5 1274.05,-160 1284.05,-163.5 1284.05,-156.5"/>
</g>
<!-- MailReplyComponent -->
<g id="node7" class="node">
<title>MailReplyComponent</title>
<polygon fill="#ffffb3" stroke="black" points="1444.71,-122 1303.29,-122 1303.29,-86 1444.71,-86 1444.71,-122"/>
<text text-anchor="middle" x="1374" y="-99.8" font-family="Times,serif" font-size="14.00">MailReplyComponent</text>
</g>
<!-- MailReplyComponent&#45;&gt;MailAppModule -->
<g id="edge7" class="edge">
<title>MailReplyComponent&#45;&gt;MailAppModule</title>
<path fill="none" stroke="black" d="M1374,-122.19C1374,-137.18 1374,-156 1374,-156 1374,-156 1284.08,-156 1284.08,-156"/>
<polygon fill="black" stroke="black" points="1284.08,-152.5 1274.08,-156 1284.08,-159.5 1284.08,-152.5"/>
</g>
<!-- MailSentComponent -->
<g id="node8" class="node">
<title>MailSentComponent</title>
<polygon fill="#ffffb3" stroke="black" points="1285.16,-122 1152.84,-122 1152.84,-86 1285.16,-86 1285.16,-122"/>
<text text-anchor="middle" x="1219" y="-99.8" font-family="Times,serif" font-size="14.00">MailSentComponent</text>
</g>
<!-- MailSentComponent&#45;&gt;MailAppModule -->
<g id="edge8" class="edge">
<title>MailSentComponent&#45;&gt;MailAppModule</title>
<path fill="none" stroke="black" d="M1219,-122.11C1219,-122.11 1219,-140.99 1219,-140.99"/>
<polygon fill="black" stroke="black" points="1215.5,-140.99 1219,-150.99 1222.5,-140.99 1215.5,-140.99"/>
</g>
<!-- MailSidebarComponent -->
<g id="node9" class="node">
<title>MailSidebarComponent</title>
<polygon fill="#ffffb3" stroke="black" points="1134.04,-122 983.96,-122 983.96,-86 1134.04,-86 1134.04,-122"/>
<text text-anchor="middle" x="1059" y="-99.8" font-family="Times,serif" font-size="14.00">MailSidebarComponent</text>
</g>
<!-- MailSidebarComponent&#45;&gt;MailAppModule -->
<g id="edge9" class="edge">
<title>MailSidebarComponent&#45;&gt;MailAppModule</title>
<path fill="none" stroke="black" d="M1059,-122.19C1059,-137.18 1059,-156 1059,-156 1059,-156 1153.94,-156 1153.94,-156"/>
<polygon fill="black" stroke="black" points="1153.94,-159.5 1163.94,-156 1153.94,-152.5 1153.94,-159.5"/>
</g>
<!-- MailSpamComponent -->
<g id="node10" class="node">
<title>MailSpamComponent</title>
<polygon fill="#ffffb3" stroke="black" points="965.66,-122 826.34,-122 826.34,-86 965.66,-86 965.66,-122"/>
<text text-anchor="middle" x="896" y="-99.8" font-family="Times,serif" font-size="14.00">MailSpamComponent</text>
</g>
<!-- MailSpamComponent&#45;&gt;MailAppModule -->
<g id="edge10" class="edge">
<title>MailSpamComponent&#45;&gt;MailAppModule</title>
<path fill="none" stroke="black" d="M896,-122.03C896,-138.4 896,-160 896,-160 896,-160 1153.84,-160 1153.84,-160"/>
<polygon fill="black" stroke="black" points="1153.84,-163.5 1163.84,-160 1153.84,-156.5 1153.84,-163.5"/>
</g>
<!-- MailStarredComponent -->
<g id="node11" class="node">
<title>MailStarredComponent</title>
<polygon fill="#ffffb3" stroke="black" points="808.2,-122 659.8,-122 659.8,-86 808.2,-86 808.2,-122"/>
<text text-anchor="middle" x="734" y="-99.8" font-family="Times,serif" font-size="14.00">MailStarredComponent</text>
</g>
<!-- MailStarredComponent&#45;&gt;MailAppModule -->
<g id="edge11" class="edge">
<title>MailStarredComponent&#45;&gt;MailAppModule</title>
<path fill="none" stroke="black" d="M734,-122.3C734,-140.27 734,-165 734,-165 734,-165 1153.84,-165 1153.84,-165"/>
<polygon fill="black" stroke="black" points="1153.84,-168.5 1163.84,-165 1153.84,-161.5 1153.84,-168.5"/>
</g>
<!-- MailTableComponent -->
<g id="node12" class="node">
<title>MailTableComponent</title>
<polygon fill="#ffffb3" stroke="black" points="641.65,-122 502.35,-122 502.35,-86 641.65,-86 641.65,-122"/>
<text text-anchor="middle" x="572" y="-99.8" font-family="Times,serif" font-size="14.00">MailTableComponent</text>
</g>
<!-- MailTableComponent&#45;&gt;MailAppModule -->
<g id="edge12" class="edge">
<title>MailTableComponent&#45;&gt;MailAppModule</title>
<path fill="none" stroke="black" d="M572,-122.11C572,-141.34 572,-169 572,-169 572,-169 1153.84,-169 1153.84,-169"/>
<polygon fill="black" stroke="black" points="1153.84,-172.5 1163.84,-169 1153.84,-165.5 1153.84,-172.5"/>
</g>
<!-- MailTrashComponent -->
<g id="node13" class="node">
<title>MailTrashComponent</title>
<polygon fill="#ffffb3" stroke="black" points="483.65,-122 344.35,-122 344.35,-86 483.65,-86 483.65,-122"/>
<text text-anchor="middle" x="414" y="-99.8" font-family="Times,serif" font-size="14.00">MailTrashComponent</text>
</g>
<!-- MailTrashComponent&#45;&gt;MailAppModule -->
<g id="edge13" class="edge">
<title>MailTrashComponent&#45;&gt;MailAppModule</title>
<path fill="none" stroke="black" d="M414,-122.03C414,-142.77 414,-174 414,-174 414,-174 1153.67,-174 1153.67,-174"/>
<polygon fill="black" stroke="black" points="1153.67,-177.5 1163.67,-174 1153.67,-170.5 1153.67,-177.5"/>
</g>
<!-- MailAppRoutingModule -->
<g id="node15" class="node">
<title>MailAppRoutingModule</title>
<polygon fill="#8dd3c7" stroke="black" points="179.71,-122 176.71,-126 155.71,-126 152.71,-122 24.29,-122 24.29,-86 179.71,-86 179.71,-122"/>
<text text-anchor="middle" x="102" y="-99.8" font-family="Times,serif" font-size="14.00">MailAppRoutingModule</text>
</g>
<!-- MailAppRoutingModule&#45;&gt;MailAppModule -->
<g id="edge14" class="edge">
<title>MailAppRoutingModule&#45;&gt;MailAppModule</title>
<path fill="none" stroke="black" d="M102,-122.32C102,-145.66 102,-183 102,-183 102,-183 1153.61,-183 1153.61,-183"/>
<polygon fill="black" stroke="black" points="1153.61,-186.5 1163.61,-183 1153.61,-179.5 1153.61,-186.5"/>
</g>
<!-- MailService -->
<g id="node16" class="node">
<title>MailService</title>
<ellipse fill="#fdb462" stroke="black" cx="262" cy="-104" rx="58.46" ry="18"/>
<text text-anchor="middle" x="262" y="-99.8" font-family="Times,serif" font-size="14.00">MailService</text>
</g>
<!-- MailService&#45;&gt;MailAppModule -->
<g id="edge15" class="edge">
<title>MailService&#45;&gt;MailAppModule</title>
<path fill="none" stroke="black" d="M262,-122.29C262,-144.21 262,-178 262,-178 262,-178 1153.76,-178 1153.76,-178"/>
<polygon fill="black" stroke="black" points="1153.76,-181.5 1163.76,-178 1153.76,-174.5 1153.76,-181.5"/>
</g>
</g>
</svg>
