<?xml version="1.0" encoding="UTF-8" standalone="no"?>
<!DOCTYPE svg PUBLIC "-//W3C//DTD SVG 1.1//EN"
 "http://www.w3.org/Graphics/SVG/1.1/DTD/svg11.dtd">
<!-- Generated by graphviz version 2.47.0 (20210316.0004)
 -->
<!-- Title: dependencies Pages: 1 -->
<svg width="504pt" height="211pt"
 viewBox="0.00 0.00 504.00 211.00" xmlns="http://www.w3.org/2000/svg" xmlns:xlink="http://www.w3.org/1999/xlink">
<g id="graph0" class="graph" transform="scale(1 1) rotate(0) translate(4 207)">
<title>dependencies</title>
<polygon fill="white" stroke="transparent" points="-4,4 -4,-207 500,-207 500,4 -4,4"/>
<text text-anchor="start" x="227.01" y="-42.4" font-family="Times-12" font-weight="bold" font-size="14.00">Legend</text>
<polygon fill="#ffffb3" stroke="transparent" points="14,-10 14,-30 34,-30 34,-10 14,-10"/>
<text text-anchor="start" x="37.63" y="-15.4" font-family="Times-12" font-size="14.00"> &#160;Declarations</text>
<polygon fill="#8dd3c7" stroke="transparent" points="127,-10 127,-30 147,-30 147,-10 127,-10"/>
<text text-anchor="start" x="150.73" y="-15.4" font-family="Times-12" font-size="14.00"> &#160;Module</text>
<polygon fill="#80b1d3" stroke="transparent" points="213,-10 213,-30 233,-30 233,-10 213,-10"/>
<text text-anchor="start" x="236.78" y="-15.4" font-family="Times-12" font-size="14.00"> &#160;Bootstrap</text>
<polygon fill="#fdb462" stroke="transparent" points="310,-10 310,-30 330,-30 330,-10 310,-10"/>
<text text-anchor="start" x="333.67" y="-15.4" font-family="Times-12" font-size="14.00"> &#160;Providers</text>
<polygon fill="#fb8072" stroke="transparent" points="406,-10 406,-30 426,-30 426,-10 406,-10"/>
<text text-anchor="start" x="429.73" y="-15.4" font-family="Times-12" font-size="14.00"> &#160;Exports</text>
<g id="clust1" class="cluster">
<title>cluster_EmptyDemoModule</title>
<polygon fill="none" stroke="black" stroke-dasharray="1,5" points="56,-70 56,-195 440,-195 440,-70 56,-70"/>
</g>
<g id="clust4" class="cluster">
<title>cluster_EmptyDemoModule_imports</title>
<polygon fill="none" stroke="black" points="240,-78 240,-130 432,-130 432,-78 240,-78"/>
</g>
<g id="clust2" class="cluster">
<title>cluster_EmptyDemoModule_declarations</title>
<polygon fill="none" stroke="black" points="64,-78 64,-130 232,-130 232,-78 64,-78"/>
</g>
<!-- EmptyDemoComponent -->
<g id="node1" class="node">
<title>EmptyDemoComponent</title>
<polygon fill="#ffffb3" stroke="black" points="224.38,-122 71.62,-122 71.62,-86 224.38,-86 224.38,-122"/>
<text text-anchor="middle" x="148" y="-99.8" font-family="Times,serif" font-size="14.00">EmptyDemoComponent</text>
</g>
<!-- EmptyDemoModule -->
<g id="node2" class="node">
<title>EmptyDemoModule</title>
<polygon fill="#8dd3c7" stroke="black" points="307.6,-187 304.6,-191 283.6,-191 280.6,-187 176.4,-187 176.4,-151 307.6,-151 307.6,-187"/>
<text text-anchor="middle" x="242" y="-164.8" font-family="Times,serif" font-size="14.00">EmptyDemoModule</text>
</g>
<!-- EmptyDemoComponent&#45;&gt;EmptyDemoModule -->
<g id="edge1" class="edge">
<title>EmptyDemoComponent&#45;&gt;EmptyDemoModule</title>
<path fill="none" stroke="black" d="M200.45,-122.11C200.45,-122.11 200.45,-140.99 200.45,-140.99"/>
<polygon fill="black" stroke="black" points="196.95,-140.99 200.45,-150.99 203.95,-140.99 196.95,-140.99"/>
</g>
<!-- EmptyDemoRoutingModule -->
<g id="node3" class="node">
<title>EmptyDemoRoutingModule</title>
<polygon fill="#8dd3c7" stroke="black" points="424.21,-122 421.21,-126 400.21,-126 397.21,-122 247.79,-122 247.79,-86 424.21,-86 424.21,-122"/>
<text text-anchor="middle" x="336" y="-99.8" font-family="Times,serif" font-size="14.00">EmptyDemoRoutingModule</text>
</g>
<!-- EmptyDemoRoutingModule&#45;&gt;EmptyDemoModule -->
<g id="edge2" class="edge">
<title>EmptyDemoRoutingModule&#45;&gt;EmptyDemoModule</title>
<path fill="none" stroke="black" d="M277.72,-122.11C277.72,-122.11 277.72,-140.99 277.72,-140.99"/>
<polygon fill="black" stroke="black" points="274.22,-140.99 277.72,-150.99 281.22,-140.99 274.22,-140.99"/>
</g>
</g>
</svg>
