<?xml version="1.0" encoding="UTF-8" standalone="no"?>
<!DOCTYPE svg PUBLIC "-//W3C//DTD SVG 1.1//EN"
 "http://www.w3.org/Graphics/SVG/1.1/DTD/svg11.dtd">
<!-- Generated by graphviz version 2.47.0 (20210316.0004)
 -->
<!-- Title: dependencies Pages: 1 -->
<svg width="504pt" height="211pt"
 viewBox="0.00 0.00 504.00 211.00" xmlns="http://www.w3.org/2000/svg" xmlns:xlink="http://www.w3.org/1999/xlink">
<g id="graph0" class="graph" transform="scale(1 1) rotate(0) translate(4 207)">
<title>dependencies</title>
<polygon fill="white" stroke="transparent" points="-4,4 -4,-207 500,-207 500,4 -4,4"/>
<text text-anchor="start" x="227.01" y="-42.4" font-family="Times-12" font-weight="bold" font-size="14.00">Legend</text>
<polygon fill="#ffffb3" stroke="transparent" points="14,-10 14,-30 34,-30 34,-10 14,-10"/>
<text text-anchor="start" x="37.63" y="-15.4" font-family="Times-12" font-size="14.00"> &#160;Declarations</text>
<polygon fill="#8dd3c7" stroke="transparent" points="127,-10 127,-30 147,-30 147,-10 127,-10"/>
<text text-anchor="start" x="150.73" y="-15.4" font-family="Times-12" font-size="14.00"> &#160;Module</text>
<polygon fill="#80b1d3" stroke="transparent" points="213,-10 213,-30 233,-30 233,-10 213,-10"/>
<text text-anchor="start" x="236.78" y="-15.4" font-family="Times-12" font-size="14.00"> &#160;Bootstrap</text>
<polygon fill="#fdb462" stroke="transparent" points="310,-10 310,-30 330,-30 330,-10 310,-10"/>
<text text-anchor="start" x="333.67" y="-15.4" font-family="Times-12" font-size="14.00"> &#160;Providers</text>
<polygon fill="#fb8072" stroke="transparent" points="406,-10 406,-30 426,-30 426,-10 406,-10"/>
<text text-anchor="start" x="429.73" y="-15.4" font-family="Times-12" font-size="14.00"> &#160;Exports</text>
<g id="clust1" class="cluster">
<title>cluster_ShoppingCartModule</title>
<polygon fill="none" stroke="black" stroke-dasharray="1,5" points="49,-70 49,-195 447,-195 447,-70 49,-70"/>
</g>
<g id="clust2" class="cluster">
<title>cluster_ShoppingCartModule_declarations</title>
<polygon fill="none" stroke="black" points="263,-78 263,-130 439,-130 439,-78 263,-78"/>
</g>
<g id="clust4" class="cluster">
<title>cluster_ShoppingCartModule_imports</title>
<polygon fill="none" stroke="black" points="57,-78 57,-130 255,-130 255,-78 57,-78"/>
</g>
<!-- ShoppingCartComponent -->
<g id="node1" class="node">
<title>ShoppingCartComponent</title>
<polygon fill="#ffffb3" stroke="black" points="430.61,-122 271.39,-122 271.39,-86 430.61,-86 430.61,-122"/>
<text text-anchor="middle" x="351" y="-99.8" font-family="Times,serif" font-size="14.00">ShoppingCartComponent</text>
</g>
<!-- ShoppingCartModule -->
<g id="node2" class="node">
<title>ShoppingCartModule</title>
<polygon fill="#8dd3c7" stroke="black" points="321.83,-187 318.83,-191 297.83,-191 294.83,-187 184.17,-187 184.17,-151 321.83,-151 321.83,-187"/>
<text text-anchor="middle" x="253" y="-164.8" font-family="Times,serif" font-size="14.00">ShoppingCartModule</text>
</g>
<!-- ShoppingCartComponent&#45;&gt;ShoppingCartModule -->
<g id="edge1" class="edge">
<title>ShoppingCartComponent&#45;&gt;ShoppingCartModule</title>
<path fill="none" stroke="black" d="M296.55,-122.11C296.55,-122.11 296.55,-140.99 296.55,-140.99"/>
<polygon fill="black" stroke="black" points="293.05,-140.99 296.55,-150.99 300.05,-140.99 293.05,-140.99"/>
</g>
<!-- ShoppingCartRoutingModule -->
<g id="node3" class="node">
<title>ShoppingCartRoutingModule</title>
<polygon fill="#8dd3c7" stroke="black" points="247.44,-122 244.44,-126 223.44,-126 220.44,-122 64.56,-122 64.56,-86 247.44,-86 247.44,-122"/>
<text text-anchor="middle" x="156" y="-99.8" font-family="Times,serif" font-size="14.00">ShoppingCartRoutingModule</text>
</g>
<!-- ShoppingCartRoutingModule&#45;&gt;ShoppingCartModule -->
<g id="edge2" class="edge">
<title>ShoppingCartRoutingModule&#45;&gt;ShoppingCartModule</title>
<path fill="none" stroke="black" d="M215.78,-122.11C215.78,-122.11 215.78,-140.99 215.78,-140.99"/>
<polygon fill="black" stroke="black" points="212.28,-140.99 215.78,-150.99 219.28,-140.99 212.28,-140.99"/>
</g>
</g>
</svg>
