<?xml version="1.0" encoding="UTF-8" standalone="no"?>
<!DOCTYPE svg PUBLIC "-//W3C//DTD SVG 1.1//EN"
 "http://www.w3.org/Graphics/SVG/1.1/DTD/svg11.dtd">
<!-- Generated by graphviz version 2.47.0 (20210316.0004)
 -->
<!-- Title: dependencies Pages: 1 -->
<svg width="504pt" height="211pt"
 viewBox="0.00 0.00 504.00 211.00" xmlns="http://www.w3.org/2000/svg" xmlns:xlink="http://www.w3.org/1999/xlink">
<g id="graph0" class="graph" transform="scale(1 1) rotate(0) translate(4 207)">
<title>dependencies</title>
<polygon fill="white" stroke="transparent" points="-4,4 -4,-207 500,-207 500,4 -4,4"/>
<text text-anchor="start" x="227.01" y="-42.4" font-family="Times-12" font-weight="bold" font-size="14.00">Legend</text>
<polygon fill="#ffffb3" stroke="transparent" points="14,-10 14,-30 34,-30 34,-10 14,-10"/>
<text text-anchor="start" x="37.63" y="-15.4" font-family="Times-12" font-size="14.00"> &#160;Declarations</text>
<polygon fill="#8dd3c7" stroke="transparent" points="127,-10 127,-30 147,-30 147,-10 127,-10"/>
<text text-anchor="start" x="150.73" y="-15.4" font-family="Times-12" font-size="14.00"> &#160;Module</text>
<polygon fill="#80b1d3" stroke="transparent" points="213,-10 213,-30 233,-30 233,-10 213,-10"/>
<text text-anchor="start" x="236.78" y="-15.4" font-family="Times-12" font-size="14.00"> &#160;Bootstrap</text>
<polygon fill="#fdb462" stroke="transparent" points="310,-10 310,-30 330,-30 330,-10 310,-10"/>
<text text-anchor="start" x="333.67" y="-15.4" font-family="Times-12" font-size="14.00"> &#160;Providers</text>
<polygon fill="#fb8072" stroke="transparent" points="406,-10 406,-30 426,-30 426,-10 406,-10"/>
<text text-anchor="start" x="429.73" y="-15.4" font-family="Times-12" font-size="14.00"> &#160;Exports</text>
<g id="clust1" class="cluster">
<title>cluster_ProductListModule</title>
<polygon fill="none" stroke="black" stroke-dasharray="1,5" points="62,-70 62,-195 434,-195 434,-70 62,-70"/>
</g>
<g id="clust4" class="cluster">
<title>cluster_ProductListModule_imports</title>
<polygon fill="none" stroke="black" points="240,-78 240,-130 426,-130 426,-78 240,-78"/>
</g>
<g id="clust2" class="cluster">
<title>cluster_ProductListModule_declarations</title>
<polygon fill="none" stroke="black" points="70,-78 70,-130 232,-130 232,-78 70,-78"/>
</g>
<!-- ProductListComponent -->
<g id="node1" class="node">
<title>ProductListComponent</title>
<polygon fill="#ffffb3" stroke="black" points="224.16,-122 77.84,-122 77.84,-86 224.16,-86 224.16,-122"/>
<text text-anchor="middle" x="151" y="-99.8" font-family="Times,serif" font-size="14.00">ProductListComponent</text>
</g>
<!-- ProductListModule -->
<g id="node2" class="node">
<title>ProductListModule</title>
<polygon fill="#8dd3c7" stroke="black" points="304.38,-187 301.38,-191 280.38,-191 277.38,-187 179.62,-187 179.62,-151 304.38,-151 304.38,-187"/>
<text text-anchor="middle" x="242" y="-164.8" font-family="Times,serif" font-size="14.00">ProductListModule</text>
</g>
<!-- ProductListComponent&#45;&gt;ProductListModule -->
<g id="edge1" class="edge">
<title>ProductListComponent&#45;&gt;ProductListModule</title>
<path fill="none" stroke="black" d="M201.95,-122.11C201.95,-122.11 201.95,-140.99 201.95,-140.99"/>
<polygon fill="black" stroke="black" points="198.45,-140.99 201.95,-150.99 205.45,-140.99 198.45,-140.99"/>
</g>
<!-- ProductListRoutingModule -->
<g id="node3" class="node">
<title>ProductListRoutingModule</title>
<polygon fill="#8dd3c7" stroke="black" points="417.99,-122 414.99,-126 393.99,-126 390.99,-122 248.01,-122 248.01,-86 417.99,-86 417.99,-122"/>
<text text-anchor="middle" x="333" y="-99.8" font-family="Times,serif" font-size="14.00">ProductListRoutingModule</text>
</g>
<!-- ProductListRoutingModule&#45;&gt;ProductListModule -->
<g id="edge2" class="edge">
<title>ProductListRoutingModule&#45;&gt;ProductListModule</title>
<path fill="none" stroke="black" d="M276.22,-122.11C276.22,-122.11 276.22,-140.99 276.22,-140.99"/>
<polygon fill="black" stroke="black" points="272.72,-140.99 276.22,-150.99 279.72,-140.99 272.72,-140.99"/>
</g>
</g>
</svg>
