<?xml version="1.0" encoding="UTF-8" standalone="no"?>
<!DOCTYPE svg PUBLIC "-//W3C//DTD SVG 1.1//EN"
 "http://www.w3.org/Graphics/SVG/1.1/DTD/svg11.dtd">
<!-- Generated by graphviz version 2.47.0 (20210316.0004)
 -->
<!-- Title: dependencies Pages: 1 -->
<svg width="1555pt" height="211pt"
 viewBox="0.00 0.00 1555.00 211.00" xmlns="http://www.w3.org/2000/svg" xmlns:xlink="http://www.w3.org/1999/xlink">
<g id="graph0" class="graph" transform="scale(1 1) rotate(0) translate(4 207)">
<title>dependencies</title>
<polygon fill="white" stroke="transparent" points="-4,4 -4,-207 1551,-207 1551,4 -4,4"/>
<text text-anchor="start" x="752.51" y="-42.4" font-family="Times-12" font-weight="bold" font-size="14.00">Legend</text>
<polygon fill="#ffffb3" stroke="transparent" points="539.5,-10 539.5,-30 559.5,-30 559.5,-10 539.5,-10"/>
<text text-anchor="start" x="563.13" y="-15.4" font-family="Times-12" font-size="14.00"> &#160;Declarations</text>
<polygon fill="#8dd3c7" stroke="transparent" points="652.5,-10 652.5,-30 672.5,-30 672.5,-10 652.5,-10"/>
<text text-anchor="start" x="676.23" y="-15.4" font-family="Times-12" font-size="14.00"> &#160;Module</text>
<polygon fill="#80b1d3" stroke="transparent" points="738.5,-10 738.5,-30 758.5,-30 758.5,-10 738.5,-10"/>
<text text-anchor="start" x="762.28" y="-15.4" font-family="Times-12" font-size="14.00"> &#160;Bootstrap</text>
<polygon fill="#fdb462" stroke="transparent" points="835.5,-10 835.5,-30 855.5,-30 855.5,-10 835.5,-10"/>
<text text-anchor="start" x="859.17" y="-15.4" font-family="Times-12" font-size="14.00"> &#160;Providers</text>
<polygon fill="#fb8072" stroke="transparent" points="931.5,-10 931.5,-30 951.5,-30 951.5,-10 931.5,-10"/>
<text text-anchor="start" x="955.23" y="-15.4" font-family="Times-12" font-size="14.00"> &#160;Exports</text>
<g id="clust1" class="cluster">
<title>cluster_AppLayoutModule</title>
<polygon fill="none" stroke="black" stroke-dasharray="1,5" points="8,-70 8,-195 1539,-195 1539,-70 8,-70"/>
</g>
<g id="clust2" class="cluster">
<title>cluster_AppLayoutModule_declarations</title>
<polygon fill="none" stroke="black" points="162,-78 162,-130 1531,-130 1531,-78 162,-78"/>
</g>
<g id="clust11" class="cluster">
<title>cluster_AppLayoutModule_imports</title>
<polygon fill="none" stroke="black" points="16,-78 16,-130 154,-130 154,-78 16,-78"/>
</g>
<!-- AppBreadcrumbComponent -->
<g id="node1" class="node">
<title>AppBreadcrumbComponent</title>
<polygon fill="#ffffb3" stroke="black" points="1523.13,-122 1348.87,-122 1348.87,-86 1523.13,-86 1523.13,-122"/>
<text text-anchor="middle" x="1436" y="-99.8" font-family="Times,serif" font-size="14.00">AppBreadcrumbComponent</text>
</g>
<!-- AppLayoutModule -->
<g id="node9" class="node">
<title>AppLayoutModule</title>
<polygon fill="#8dd3c7" stroke="black" points="830.81,-187 827.81,-191 806.81,-191 803.81,-187 707.19,-187 707.19,-151 830.81,-151 830.81,-187"/>
<text text-anchor="middle" x="769" y="-164.8" font-family="Times,serif" font-size="14.00">AppLayoutModule</text>
</g>
<!-- AppBreadcrumbComponent&#45;&gt;AppLayoutModule -->
<g id="edge1" class="edge">
<title>AppBreadcrumbComponent&#45;&gt;AppLayoutModule</title>
<path fill="none" stroke="black" d="M1436,-122.01C1436,-144.49 1436,-180 1436,-180 1436,-180 840.85,-180 840.85,-180"/>
<polygon fill="black" stroke="black" points="840.85,-176.5 830.85,-180 840.85,-183.5 840.85,-176.5"/>
</g>
<!-- AppFooterComponent -->
<g id="node2" class="node">
<title>AppFooterComponent</title>
<polygon fill="#ffffb3" stroke="black" points="1330.99,-122 1189.01,-122 1189.01,-86 1330.99,-86 1330.99,-122"/>
<text text-anchor="middle" x="1260" y="-99.8" font-family="Times,serif" font-size="14.00">AppFooterComponent</text>
</g>
<!-- AppFooterComponent&#45;&gt;AppLayoutModule -->
<g id="edge2" class="edge">
<title>AppFooterComponent&#45;&gt;AppLayoutModule</title>
<path fill="none" stroke="black" d="M1260,-122.13C1260,-142.57 1260,-173 1260,-173 1260,-173 840.69,-173 840.69,-173"/>
<polygon fill="black" stroke="black" points="840.69,-169.5 830.69,-173 840.69,-176.5 840.69,-169.5"/>
</g>
<!-- AppLayoutComponent -->
<g id="node3" class="node">
<title>AppLayoutComponent</title>
<polygon fill="#ffffb3" stroke="black" points="1170.6,-122 1025.4,-122 1025.4,-86 1170.6,-86 1170.6,-122"/>
<text text-anchor="middle" x="1098" y="-99.8" font-family="Times,serif" font-size="14.00">AppLayoutComponent</text>
</g>
<!-- AppLayoutComponent&#45;&gt;AppLayoutModule -->
<g id="edge3" class="edge">
<title>AppLayoutComponent&#45;&gt;AppLayoutModule</title>
<path fill="none" stroke="black" d="M1098,-122.27C1098,-140.56 1098,-166 1098,-166 1098,-166 840.88,-166 840.88,-166"/>
<polygon fill="black" stroke="black" points="840.88,-162.5 830.88,-166 840.88,-169.5 840.88,-162.5"/>
</g>
<!-- AppMenuComponent -->
<g id="node4" class="node">
<title>AppMenuComponent</title>
<polygon fill="#ffffb3" stroke="black" points="1007.1,-122 868.9,-122 868.9,-86 1007.1,-86 1007.1,-122"/>
<text text-anchor="middle" x="938" y="-99.8" font-family="Times,serif" font-size="14.00">AppMenuComponent</text>
</g>
<!-- AppMenuComponent&#45;&gt;AppLayoutModule -->
<g id="edge4" class="edge">
<title>AppMenuComponent&#45;&gt;AppLayoutModule</title>
<path fill="none" stroke="black" d="M938,-122.01C938,-138.05 938,-159 938,-159 938,-159 840.97,-159 840.97,-159"/>
<polygon fill="black" stroke="black" points="840.97,-155.5 830.97,-159 840.97,-162.5 840.97,-155.5"/>
</g>
<!-- AppMenuitemComponent -->
<g id="node5" class="node">
<title>AppMenuitemComponent</title>
<polygon fill="#ffffb3" stroke="black" points="850.48,-122 687.52,-122 687.52,-86 850.48,-86 850.48,-122"/>
<text text-anchor="middle" x="769" y="-99.8" font-family="Times,serif" font-size="14.00">AppMenuitemComponent</text>
</g>
<!-- AppMenuitemComponent&#45;&gt;AppLayoutModule -->
<g id="edge5" class="edge">
<title>AppMenuitemComponent&#45;&gt;AppLayoutModule</title>
<path fill="none" stroke="black" d="M769,-122.11C769,-122.11 769,-140.99 769,-140.99"/>
<polygon fill="black" stroke="black" points="765.5,-140.99 769,-150.99 772.5,-140.99 765.5,-140.99"/>
</g>
<!-- AppRightMenuComponent -->
<g id="node6" class="node">
<title>AppRightMenuComponent</title>
<polygon fill="#ffffb3" stroke="black" points="669.72,-122 500.28,-122 500.28,-86 669.72,-86 669.72,-122"/>
<text text-anchor="middle" x="585" y="-99.8" font-family="Times,serif" font-size="14.00">AppRightMenuComponent</text>
</g>
<!-- AppRightMenuComponent&#45;&gt;AppLayoutModule -->
<g id="edge6" class="edge">
<title>AppRightMenuComponent&#45;&gt;AppLayoutModule</title>
<path fill="none" stroke="black" d="M585,-122.01C585,-138.05 585,-159 585,-159 585,-159 697.22,-159 697.22,-159"/>
<polygon fill="black" stroke="black" points="697.22,-162.5 707.22,-159 697.22,-155.5 697.22,-162.5"/>
</g>
<!-- AppSidebarComponent -->
<g id="node7" class="node">
<title>AppSidebarComponent</title>
<polygon fill="#ffffb3" stroke="black" points="482.2,-122 333.8,-122 333.8,-86 482.2,-86 482.2,-122"/>
<text text-anchor="middle" x="408" y="-99.8" font-family="Times,serif" font-size="14.00">AppSidebarComponent</text>
</g>
<!-- AppSidebarComponent&#45;&gt;AppLayoutModule -->
<g id="edge7" class="edge">
<title>AppSidebarComponent&#45;&gt;AppLayoutModule</title>
<path fill="none" stroke="black" d="M408,-122.27C408,-140.56 408,-166 408,-166 408,-166 696.94,-166 696.94,-166"/>
<polygon fill="black" stroke="black" points="696.94,-169.5 706.94,-166 696.94,-162.5 696.94,-169.5"/>
</g>
<!-- AppTopbarComponent -->
<g id="node8" class="node">
<title>AppTopbarComponent</title>
<polygon fill="#ffffb3" stroke="black" points="315.87,-122 170.13,-122 170.13,-86 315.87,-86 315.87,-122"/>
<text text-anchor="middle" x="243" y="-99.8" font-family="Times,serif" font-size="14.00">AppTopbarComponent</text>
</g>
<!-- AppTopbarComponent&#45;&gt;AppLayoutModule -->
<g id="edge8" class="edge">
<title>AppTopbarComponent&#45;&gt;AppLayoutModule</title>
<path fill="none" stroke="black" d="M243,-122.13C243,-142.57 243,-173 243,-173 243,-173 697.11,-173 697.11,-173"/>
<polygon fill="black" stroke="black" points="697.11,-176.5 707.11,-173 697.11,-169.5 697.11,-176.5"/>
</g>
<!-- AppConfigModule -->
<g id="node10" class="node">
<title>AppConfigModule</title>
<polygon fill="#8dd3c7" stroke="black" points="146.05,-122 143.05,-126 122.05,-126 119.05,-122 23.95,-122 23.95,-86 146.05,-86 146.05,-122"/>
<text text-anchor="middle" x="85" y="-99.8" font-family="Times,serif" font-size="14.00">AppConfigModule</text>
</g>
<!-- AppConfigModule&#45;&gt;AppLayoutModule -->
<g id="edge9" class="edge">
<title>AppConfigModule&#45;&gt;AppLayoutModule</title>
<path fill="none" stroke="black" d="M85,-122.01C85,-144.49 85,-180 85,-180 85,-180 697.09,-180 697.09,-180"/>
<polygon fill="black" stroke="black" points="697.09,-183.5 707.09,-180 697.09,-176.5 697.09,-183.5"/>
</g>
</g>
</svg>
