<?xml version="1.0" encoding="UTF-8" standalone="no"?>
<!DOCTYPE svg PUBLIC "-//W3C//DTD SVG 1.1//EN"
 "http://www.w3.org/Graphics/SVG/1.1/DTD/svg11.dtd">
<!-- Generated by graphviz version 2.47.0 (20210316.0004)
 -->
<!-- Title: dependencies Pages: 1 -->
<svg width="504pt" height="211pt"
 viewBox="0.00 0.00 504.00 211.00" xmlns="http://www.w3.org/2000/svg" xmlns:xlink="http://www.w3.org/1999/xlink">
<g id="graph0" class="graph" transform="scale(1 1) rotate(0) translate(4 207)">
<title>dependencies</title>
<polygon fill="white" stroke="transparent" points="-4,4 -4,-207 500,-207 500,4 -4,4"/>
<text text-anchor="start" x="227.01" y="-42.4" font-family="Times-12" font-weight="bold" font-size="14.00">Legend</text>
<polygon fill="#ffffb3" stroke="transparent" points="14,-10 14,-30 34,-30 34,-10 14,-10"/>
<text text-anchor="start" x="37.63" y="-15.4" font-family="Times-12" font-size="14.00"> &#160;Declarations</text>
<polygon fill="#8dd3c7" stroke="transparent" points="127,-10 127,-30 147,-30 147,-10 127,-10"/>
<text text-anchor="start" x="150.73" y="-15.4" font-family="Times-12" font-size="14.00"> &#160;Module</text>
<polygon fill="#80b1d3" stroke="transparent" points="213,-10 213,-30 233,-30 233,-10 213,-10"/>
<text text-anchor="start" x="236.78" y="-15.4" font-family="Times-12" font-size="14.00"> &#160;Bootstrap</text>
<polygon fill="#fdb462" stroke="transparent" points="310,-10 310,-30 330,-30 330,-10 310,-10"/>
<text text-anchor="start" x="333.67" y="-15.4" font-family="Times-12" font-size="14.00"> &#160;Providers</text>
<polygon fill="#fb8072" stroke="transparent" points="406,-10 406,-30 426,-30 426,-10 406,-10"/>
<text text-anchor="start" x="429.73" y="-15.4" font-family="Times-12" font-size="14.00"> &#160;Exports</text>
<g id="clust1" class="cluster">
<title>cluster_DocumentationModule</title>
<polygon fill="none" stroke="black" stroke-dasharray="1,5" points="41,-70 41,-195 455,-195 455,-70 41,-70"/>
</g>
<g id="clust4" class="cluster">
<title>cluster_DocumentationModule_imports</title>
<polygon fill="none" stroke="black" points="241,-78 241,-130 447,-130 447,-78 241,-78"/>
</g>
<g id="clust2" class="cluster">
<title>cluster_DocumentationModule_declarations</title>
<polygon fill="none" stroke="black" points="49,-78 49,-130 233,-130 233,-78 49,-78"/>
</g>
<!-- DocumentationComponent -->
<g id="node1" class="node">
<title>DocumentationComponent</title>
<polygon fill="#ffffb3" stroke="black" points="224.65,-122 57.35,-122 57.35,-86 224.65,-86 224.65,-122"/>
<text text-anchor="middle" x="141" y="-99.8" font-family="Times,serif" font-size="14.00">DocumentationComponent</text>
</g>
<!-- DocumentationModule -->
<g id="node2" class="node">
<title>DocumentationModule</title>
<polygon fill="#8dd3c7" stroke="black" points="314.86,-187 311.86,-191 290.86,-191 287.86,-187 169.14,-187 169.14,-151 314.86,-151 314.86,-187"/>
<text text-anchor="middle" x="242" y="-164.8" font-family="Times,serif" font-size="14.00">DocumentationModule</text>
</g>
<!-- DocumentationComponent&#45;&gt;DocumentationModule -->
<g id="edge1" class="edge">
<title>DocumentationComponent&#45;&gt;DocumentationModule</title>
<path fill="none" stroke="black" d="M196.95,-122.11C196.95,-122.11 196.95,-140.99 196.95,-140.99"/>
<polygon fill="black" stroke="black" points="193.45,-140.99 196.95,-150.99 200.45,-140.99 193.45,-140.99"/>
</g>
<!-- DocumentationRoutingModule -->
<g id="node3" class="node">
<title>DocumentationRoutingModule</title>
<polygon fill="#8dd3c7" stroke="black" points="439.48,-122 436.48,-126 415.48,-126 412.48,-122 248.52,-122 248.52,-86 439.48,-86 439.48,-122"/>
<text text-anchor="middle" x="344" y="-99.8" font-family="Times,serif" font-size="14.00">DocumentationRoutingModule</text>
</g>
<!-- DocumentationRoutingModule&#45;&gt;DocumentationModule -->
<g id="edge2" class="edge">
<title>DocumentationRoutingModule&#45;&gt;DocumentationModule</title>
<path fill="none" stroke="black" d="M281.72,-122.11C281.72,-122.11 281.72,-140.99 281.72,-140.99"/>
<polygon fill="black" stroke="black" points="278.22,-140.99 281.72,-150.99 285.22,-140.99 278.22,-140.99"/>
</g>
</g>
</svg>
