<?xml version="1.0" encoding="UTF-8" standalone="no"?>
<!DOCTYPE svg PUBLIC "-//W3C//DTD SVG 1.1//EN"
 "http://www.w3.org/Graphics/SVG/1.1/DTD/svg11.dtd">
<!-- Generated by graphviz version 2.47.0 (20210316.0004)
 -->
<!-- Title: dependencies Pages: 1 -->
<svg width="504pt" height="211pt"
 viewBox="0.00 0.00 504.00 211.00" xmlns="http://www.w3.org/2000/svg" xmlns:xlink="http://www.w3.org/1999/xlink">
<g id="graph0" class="graph" transform="scale(1 1) rotate(0) translate(4 207)">
<title>dependencies</title>
<polygon fill="white" stroke="transparent" points="-4,4 -4,-207 500,-207 500,4 -4,4"/>
<text text-anchor="start" x="227.01" y="-42.4" font-family="Times-12" font-weight="bold" font-size="14.00">Legend</text>
<polygon fill="#ffffb3" stroke="transparent" points="14,-10 14,-30 34,-30 34,-10 14,-10"/>
<text text-anchor="start" x="37.63" y="-15.4" font-family="Times-12" font-size="14.00"> &#160;Declarations</text>
<polygon fill="#8dd3c7" stroke="transparent" points="127,-10 127,-30 147,-30 147,-10 127,-10"/>
<text text-anchor="start" x="150.73" y="-15.4" font-family="Times-12" font-size="14.00"> &#160;Module</text>
<polygon fill="#80b1d3" stroke="transparent" points="213,-10 213,-30 233,-30 233,-10 213,-10"/>
<text text-anchor="start" x="236.78" y="-15.4" font-family="Times-12" font-size="14.00"> &#160;Bootstrap</text>
<polygon fill="#fdb462" stroke="transparent" points="310,-10 310,-30 330,-30 330,-10 310,-10"/>
<text text-anchor="start" x="333.67" y="-15.4" font-family="Times-12" font-size="14.00"> &#160;Providers</text>
<polygon fill="#fb8072" stroke="transparent" points="406,-10 406,-30 426,-30 426,-10 406,-10"/>
<text text-anchor="start" x="429.73" y="-15.4" font-family="Times-12" font-size="14.00"> &#160;Exports</text>
<g id="clust1" class="cluster">
<title>cluster_TimelineDemoModule</title>
<polygon fill="none" stroke="black" stroke-dasharray="1,5" points="42,-70 42,-195 454,-195 454,-70 42,-70"/>
</g>
<g id="clust2" class="cluster">
<title>cluster_TimelineDemoModule_declarations</title>
<polygon fill="none" stroke="black" points="264,-78 264,-130 446,-130 446,-78 264,-78"/>
</g>
<g id="clust4" class="cluster">
<title>cluster_TimelineDemoModule_imports</title>
<polygon fill="none" stroke="black" points="50,-78 50,-130 256,-130 256,-78 50,-78"/>
</g>
<!-- TimelineDemoComponent -->
<g id="node1" class="node">
<title>TimelineDemoComponent</title>
<polygon fill="#ffffb3" stroke="black" points="438.09,-122 271.91,-122 271.91,-86 438.09,-86 438.09,-122"/>
<text text-anchor="middle" x="355" y="-99.8" font-family="Times,serif" font-size="14.00">TimelineDemoComponent</text>
</g>
<!-- TimelineDemoModule -->
<g id="node2" class="node">
<title>TimelineDemoModule</title>
<polygon fill="#8dd3c7" stroke="black" points="326.31,-187 323.31,-191 302.31,-191 299.31,-187 181.69,-187 181.69,-151 326.31,-151 326.31,-187"/>
<text text-anchor="middle" x="254" y="-164.8" font-family="Times,serif" font-size="14.00">TimelineDemoModule</text>
</g>
<!-- TimelineDemoComponent&#45;&gt;TimelineDemoModule -->
<g id="edge1" class="edge">
<title>TimelineDemoComponent&#45;&gt;TimelineDemoModule</title>
<path fill="none" stroke="black" d="M299.05,-122.11C299.05,-122.11 299.05,-140.99 299.05,-140.99"/>
<polygon fill="black" stroke="black" points="295.55,-140.99 299.05,-150.99 302.55,-140.99 295.55,-140.99"/>
</g>
<!-- TimelineDemoRoutingModule -->
<g id="node3" class="node">
<title>TimelineDemoRoutingModule</title>
<polygon fill="#8dd3c7" stroke="black" points="247.92,-122 244.92,-126 223.92,-126 220.92,-122 58.08,-122 58.08,-86 247.92,-86 247.92,-122"/>
<text text-anchor="middle" x="153" y="-99.8" font-family="Times,serif" font-size="14.00">TimelineDemoRoutingModule</text>
</g>
<!-- TimelineDemoRoutingModule&#45;&gt;TimelineDemoModule -->
<g id="edge2" class="edge">
<title>TimelineDemoRoutingModule&#45;&gt;TimelineDemoModule</title>
<path fill="none" stroke="black" d="M214.78,-122.11C214.78,-122.11 214.78,-140.99 214.78,-140.99"/>
<polygon fill="black" stroke="black" points="211.28,-140.99 214.78,-150.99 218.28,-140.99 211.28,-140.99"/>
</g>
</g>
</svg>
