<?xml version="1.0" encoding="UTF-8" standalone="no"?>
<!DOCTYPE svg PUBLIC "-//W3C//DTD SVG 1.1//EN"
 "http://www.w3.org/Graphics/SVG/1.1/DTD/svg11.dtd">
<!-- Generated by graphviz version 2.47.0 (20210316.0004)
 -->
<!-- Title: dependencies Pages: 1 -->
<svg width="866pt" height="211pt"
 viewBox="0.00 0.00 866.00 211.00" xmlns="http://www.w3.org/2000/svg" xmlns:xlink="http://www.w3.org/1999/xlink">
<g id="graph0" class="graph" transform="scale(1 1) rotate(0) translate(4 207)">
<title>dependencies</title>
<polygon fill="white" stroke="transparent" points="-4,4 -4,-207 862,-207 862,4 -4,4"/>
<text text-anchor="start" x="408.01" y="-42.4" font-family="Times-12" font-weight="bold" font-size="14.00">Legend</text>
<polygon fill="#ffffb3" stroke="transparent" points="195,-10 195,-30 215,-30 215,-10 195,-10"/>
<text text-anchor="start" x="218.63" y="-15.4" font-family="Times-12" font-size="14.00"> &#160;Declarations</text>
<polygon fill="#8dd3c7" stroke="transparent" points="308,-10 308,-30 328,-30 328,-10 308,-10"/>
<text text-anchor="start" x="331.73" y="-15.4" font-family="Times-12" font-size="14.00"> &#160;Module</text>
<polygon fill="#80b1d3" stroke="transparent" points="394,-10 394,-30 414,-30 414,-10 394,-10"/>
<text text-anchor="start" x="417.78" y="-15.4" font-family="Times-12" font-size="14.00"> &#160;Bootstrap</text>
<polygon fill="#fdb462" stroke="transparent" points="491,-10 491,-30 511,-30 511,-10 491,-10"/>
<text text-anchor="start" x="514.67" y="-15.4" font-family="Times-12" font-size="14.00"> &#160;Providers</text>
<polygon fill="#fb8072" stroke="transparent" points="587,-10 587,-30 607,-30 607,-10 587,-10"/>
<text text-anchor="start" x="610.73" y="-15.4" font-family="Times-12" font-size="14.00"> &#160;Exports</text>
<g id="clust1" class="cluster">
<title>cluster_TaskListAppModule</title>
<polygon fill="none" stroke="black" stroke-dasharray="1,5" points="8,-70 8,-195 850,-195 850,-70 8,-70"/>
</g>
<g id="clust6" class="cluster">
<title>cluster_TaskListAppModule_imports</title>
<polygon fill="none" stroke="black" points="648,-78 648,-130 842,-130 842,-78 648,-78"/>
</g>
<g id="clust9" class="cluster">
<title>cluster_TaskListAppModule_providers</title>
<polygon fill="none" stroke="black" points="506,-78 506,-130 640,-130 640,-78 506,-78"/>
</g>
<g id="clust2" class="cluster">
<title>cluster_TaskListAppModule_declarations</title>
<polygon fill="none" stroke="black" points="16,-78 16,-130 498,-130 498,-78 16,-78"/>
</g>
<!-- CreateTaskComponent -->
<g id="node1" class="node">
<title>CreateTaskComponent</title>
<polygon fill="#ffffb3" stroke="black" points="489.58,-122 344.42,-122 344.42,-86 489.58,-86 489.58,-122"/>
<text text-anchor="middle" x="417" y="-99.8" font-family="Times,serif" font-size="14.00">CreateTaskComponent</text>
</g>
<!-- TaskListAppModule -->
<g id="node4" class="node">
<title>TaskListAppModule</title>
<polygon fill="#8dd3c7" stroke="black" points="483.15,-187 480.15,-191 459.15,-191 456.15,-187 350.85,-187 350.85,-151 483.15,-151 483.15,-187"/>
<text text-anchor="middle" x="417" y="-164.8" font-family="Times,serif" font-size="14.00">TaskListAppModule</text>
</g>
<!-- CreateTaskComponent&#45;&gt;TaskListAppModule -->
<g id="edge1" class="edge">
<title>CreateTaskComponent&#45;&gt;TaskListAppModule</title>
<path fill="none" stroke="black" d="M417,-122.11C417,-122.11 417,-140.99 417,-140.99"/>
<polygon fill="black" stroke="black" points="413.5,-140.99 417,-150.99 420.5,-140.99 413.5,-140.99"/>
</g>
<!-- TaskListAppComponent -->
<g id="node2" class="node">
<title>TaskListAppComponent</title>
<polygon fill="#ffffb3" stroke="black" points="326.43,-122 171.57,-122 171.57,-86 326.43,-86 326.43,-122"/>
<text text-anchor="middle" x="249" y="-99.8" font-family="Times,serif" font-size="14.00">TaskListAppComponent</text>
</g>
<!-- TaskListAppComponent&#45;&gt;TaskListAppModule -->
<g id="edge2" class="edge">
<title>TaskListAppComponent&#45;&gt;TaskListAppModule</title>
<path fill="none" stroke="black" d="M249,-122.02C249,-139.37 249,-163 249,-163 249,-163 340.6,-163 340.6,-163"/>
<polygon fill="black" stroke="black" points="340.6,-166.5 350.6,-163 340.6,-159.5 340.6,-166.5"/>
</g>
<!-- TaskListComponent -->
<g id="node3" class="node">
<title>TaskListComponent</title>
<polygon fill="#ffffb3" stroke="black" points="154.32,-122 23.68,-122 23.68,-86 154.32,-86 154.32,-122"/>
<text text-anchor="middle" x="89" y="-99.8" font-family="Times,serif" font-size="14.00">TaskListComponent</text>
</g>
<!-- TaskListComponent&#45;&gt;TaskListAppModule -->
<g id="edge3" class="edge">
<title>TaskListComponent&#45;&gt;TaskListAppModule</title>
<path fill="none" stroke="black" d="M89,-122.28C89,-143.32 89,-175 89,-175 89,-175 340.62,-175 340.62,-175"/>
<polygon fill="black" stroke="black" points="340.62,-178.5 350.62,-175 340.62,-171.5 340.62,-178.5"/>
</g>
<!-- TaskListAppRoutingModule -->
<g id="node5" class="node">
<title>TaskListAppRoutingModule</title>
<polygon fill="#8dd3c7" stroke="black" points="833.76,-122 830.76,-126 809.76,-126 806.76,-122 656.24,-122 656.24,-86 833.76,-86 833.76,-122"/>
<text text-anchor="middle" x="745" y="-99.8" font-family="Times,serif" font-size="14.00">TaskListAppRoutingModule</text>
</g>
<!-- TaskListAppRoutingModule&#45;&gt;TaskListAppModule -->
<g id="edge4" class="edge">
<title>TaskListAppRoutingModule&#45;&gt;TaskListAppModule</title>
<path fill="none" stroke="black" d="M745,-122.28C745,-143.32 745,-175 745,-175 745,-175 493.38,-175 493.38,-175"/>
<polygon fill="black" stroke="black" points="493.38,-171.5 483.38,-175 493.38,-178.5 493.38,-171.5"/>
</g>
<!-- TaskService -->
<g id="node6" class="node">
<title>TaskService</title>
<ellipse fill="#fdb462" stroke="black" cx="573" cy="-104" rx="58.53" ry="18"/>
<text text-anchor="middle" x="573" y="-99.8" font-family="Times,serif" font-size="14.00">TaskService</text>
</g>
<!-- TaskService&#45;&gt;TaskListAppModule -->
<g id="edge5" class="edge">
<title>TaskService&#45;&gt;TaskListAppModule</title>
<path fill="none" stroke="black" d="M573,-122.02C573,-139.37 573,-163 573,-163 573,-163 493.16,-163 493.16,-163"/>
<polygon fill="black" stroke="black" points="493.16,-159.5 483.16,-163 493.16,-166.5 493.16,-159.5"/>
</g>
</g>
</svg>
