<?xml version="1.0" encoding="UTF-8" standalone="no"?>
<!DOCTYPE svg PUBLIC "-//W3C//DTD SVG 1.1//EN"
 "http://www.w3.org/Graphics/SVG/1.1/DTD/svg11.dtd">
<!-- Generated by graphviz version 2.47.0 (20210316.0004)
 -->
<!-- Title: dependencies Pages: 1 -->
<svg width="540pt" height="211pt"
 viewBox="0.00 0.00 540.00 211.00" xmlns="http://www.w3.org/2000/svg" xmlns:xlink="http://www.w3.org/1999/xlink">
<g id="graph0" class="graph" transform="scale(1 1) rotate(0) translate(4 207)">
<title>dependencies</title>
<polygon fill="white" stroke="transparent" points="-4,4 -4,-207 536,-207 536,4 -4,4"/>
<text text-anchor="start" x="245.01" y="-42.4" font-family="Times-12" font-weight="bold" font-size="14.00">Legend</text>
<polygon fill="#ffffb3" stroke="transparent" points="32,-10 32,-30 52,-30 52,-10 32,-10"/>
<text text-anchor="start" x="55.63" y="-15.4" font-family="Times-12" font-size="14.00"> &#160;Declarations</text>
<polygon fill="#8dd3c7" stroke="transparent" points="145,-10 145,-30 165,-30 165,-10 145,-10"/>
<text text-anchor="start" x="168.73" y="-15.4" font-family="Times-12" font-size="14.00"> &#160;Module</text>
<polygon fill="#80b1d3" stroke="transparent" points="231,-10 231,-30 251,-30 251,-10 231,-10"/>
<text text-anchor="start" x="254.78" y="-15.4" font-family="Times-12" font-size="14.00"> &#160;Bootstrap</text>
<polygon fill="#fdb462" stroke="transparent" points="328,-10 328,-30 348,-30 348,-10 328,-10"/>
<text text-anchor="start" x="351.67" y="-15.4" font-family="Times-12" font-size="14.00"> &#160;Providers</text>
<polygon fill="#fb8072" stroke="transparent" points="424,-10 424,-30 444,-30 444,-10 424,-10"/>
<text text-anchor="start" x="447.73" y="-15.4" font-family="Times-12" font-size="14.00"> &#160;Exports</text>
<g id="clust1" class="cluster">
<title>cluster_BlogListModule</title>
<polygon fill="none" stroke="black" stroke-dasharray="1,5" points="8,-70 8,-195 524,-195 524,-70 8,-70"/>
</g>
<g id="clust2" class="cluster">
<title>cluster_BlogListModule_declarations</title>
<polygon fill="none" stroke="black" points="194,-78 194,-130 516,-130 516,-78 194,-78"/>
</g>
<g id="clust5" class="cluster">
<title>cluster_BlogListModule_imports</title>
<polygon fill="none" stroke="black" points="16,-78 16,-130 186,-130 186,-78 16,-78"/>
</g>
<!-- BlogListCardComponent -->
<g id="node1" class="node">
<title>BlogListCardComponent</title>
<polygon fill="#ffffb3" stroke="black" points="507.55,-122 350.45,-122 350.45,-86 507.55,-86 507.55,-122"/>
<text text-anchor="middle" x="429" y="-99.8" font-family="Times,serif" font-size="14.00">BlogListCardComponent</text>
</g>
<!-- BlogListModule -->
<g id="node3" class="node">
<title>BlogListModule</title>
<polygon fill="#8dd3c7" stroke="black" points="321.06,-187 318.06,-191 297.06,-191 294.06,-187 212.94,-187 212.94,-151 321.06,-151 321.06,-187"/>
<text text-anchor="middle" x="267" y="-164.8" font-family="Times,serif" font-size="14.00">BlogListModule</text>
</g>
<!-- BlogListCardComponent&#45;&gt;BlogListModule -->
<g id="edge1" class="edge">
<title>BlogListCardComponent&#45;&gt;BlogListModule</title>
<path fill="none" stroke="black" d="M429,-122.11C429,-141.34 429,-169 429,-169 429,-169 331.39,-169 331.39,-169"/>
<polygon fill="black" stroke="black" points="331.39,-165.5 321.39,-169 331.39,-172.5 331.39,-165.5"/>
</g>
<!-- BlogListComponent -->
<g id="node2" class="node">
<title>BlogListComponent</title>
<polygon fill="#ffffb3" stroke="black" points="332.34,-122 201.66,-122 201.66,-86 332.34,-86 332.34,-122"/>
<text text-anchor="middle" x="267" y="-99.8" font-family="Times,serif" font-size="14.00">BlogListComponent</text>
</g>
<!-- BlogListComponent&#45;&gt;BlogListModule -->
<g id="edge2" class="edge">
<title>BlogListComponent&#45;&gt;BlogListModule</title>
<path fill="none" stroke="black" d="M267,-122.11C267,-122.11 267,-140.99 267,-140.99"/>
<polygon fill="black" stroke="black" points="263.5,-140.99 267,-150.99 270.5,-140.99 263.5,-140.99"/>
</g>
<!-- BlogListRoutingModule -->
<g id="node4" class="node">
<title>BlogListRoutingModule</title>
<polygon fill="#8dd3c7" stroke="black" points="177.67,-122 174.67,-126 153.67,-126 150.67,-122 24.33,-122 24.33,-86 177.67,-86 177.67,-122"/>
<text text-anchor="middle" x="101" y="-99.8" font-family="Times,serif" font-size="14.00">BlogListRoutingModule</text>
</g>
<!-- BlogListRoutingModule&#45;&gt;BlogListModule -->
<g id="edge3" class="edge">
<title>BlogListRoutingModule&#45;&gt;BlogListModule</title>
<path fill="none" stroke="black" d="M101,-122.11C101,-141.34 101,-169 101,-169 101,-169 202.65,-169 202.65,-169"/>
<polygon fill="black" stroke="black" points="202.65,-172.5 212.65,-169 202.65,-165.5 202.65,-172.5"/>
</g>
</g>
</svg>
