<?xml version="1.0" encoding="UTF-8" standalone="no"?>
<!DOCTYPE svg PUBLIC "-//W3C//DTD SVG 1.1//EN"
 "http://www.w3.org/Graphics/SVG/1.1/DTD/svg11.dtd">
<!-- Generated by graphviz version 2.47.0 (20210316.0004)
 -->
<!-- Title: dependencies Pages: 1 -->
<svg width="757pt" height="211pt"
 viewBox="0.00 0.00 757.00 211.00" xmlns="http://www.w3.org/2000/svg" xmlns:xlink="http://www.w3.org/1999/xlink">
<g id="graph0" class="graph" transform="scale(1 1) rotate(0) translate(4 207)">
<title>dependencies</title>
<polygon fill="white" stroke="transparent" points="-4,4 -4,-207 753,-207 753,4 -4,4"/>
<text text-anchor="start" x="353.51" y="-42.4" font-family="Times-12" font-weight="bold" font-size="14.00">Legend</text>
<polygon fill="#ffffb3" stroke="transparent" points="140.5,-10 140.5,-30 160.5,-30 160.5,-10 140.5,-10"/>
<text text-anchor="start" x="164.13" y="-15.4" font-family="Times-12" font-size="14.00"> &#160;Declarations</text>
<polygon fill="#8dd3c7" stroke="transparent" points="253.5,-10 253.5,-30 273.5,-30 273.5,-10 253.5,-10"/>
<text text-anchor="start" x="277.23" y="-15.4" font-family="Times-12" font-size="14.00"> &#160;Module</text>
<polygon fill="#80b1d3" stroke="transparent" points="339.5,-10 339.5,-30 359.5,-30 359.5,-10 339.5,-10"/>
<text text-anchor="start" x="363.28" y="-15.4" font-family="Times-12" font-size="14.00"> &#160;Bootstrap</text>
<polygon fill="#fdb462" stroke="transparent" points="436.5,-10 436.5,-30 456.5,-30 456.5,-10 436.5,-10"/>
<text text-anchor="start" x="460.17" y="-15.4" font-family="Times-12" font-size="14.00"> &#160;Providers</text>
<polygon fill="#fb8072" stroke="transparent" points="532.5,-10 532.5,-30 552.5,-30 552.5,-10 532.5,-10"/>
<text text-anchor="start" x="556.23" y="-15.4" font-family="Times-12" font-size="14.00"> &#160;Exports</text>
<g id="clust1" class="cluster">
<title>cluster_BlogDetailModule</title>
<polygon fill="none" stroke="black" stroke-dasharray="1,5" points="8,-70 8,-195 741,-195 741,-70 8,-70"/>
</g>
<g id="clust2" class="cluster">
<title>cluster_BlogDetailModule_declarations</title>
<polygon fill="none" stroke="black" points="206,-78 206,-130 733,-130 733,-78 206,-78"/>
</g>
<g id="clust6" class="cluster">
<title>cluster_BlogDetailModule_imports</title>
<polygon fill="none" stroke="black" points="16,-78 16,-130 198,-130 198,-78 16,-78"/>
</g>
<!-- BlogCommentsComponent -->
<g id="node1" class="node">
<title>BlogCommentsComponent</title>
<polygon fill="#ffffb3" stroke="black" points="724.73,-122 555.27,-122 555.27,-86 724.73,-86 724.73,-122"/>
<text text-anchor="middle" x="640" y="-99.8" font-family="Times,serif" font-size="14.00">BlogCommentsComponent</text>
</g>
<!-- BlogDetailModule -->
<g id="node4" class="node">
<title>BlogDetailModule</title>
<polygon fill="#8dd3c7" stroke="black" points="440.48,-187 437.48,-191 416.48,-191 413.48,-187 319.52,-187 319.52,-151 440.48,-151 440.48,-187"/>
<text text-anchor="middle" x="380" y="-164.8" font-family="Times,serif" font-size="14.00">BlogDetailModule</text>
</g>
<!-- BlogCommentsComponent&#45;&gt;BlogDetailModule -->
<g id="edge1" class="edge">
<title>BlogCommentsComponent&#45;&gt;BlogDetailModule</title>
<path fill="none" stroke="black" d="M640,-122.11C640,-141.34 640,-169 640,-169 640,-169 450.63,-169 450.63,-169"/>
<polygon fill="black" stroke="black" points="450.63,-165.5 440.63,-169 450.63,-172.5 450.63,-165.5"/>
</g>
<!-- BlogDetailComponent -->
<g id="node2" class="node">
<title>BlogDetailComponent</title>
<polygon fill="#ffffb3" stroke="black" points="537.27,-122 394.73,-122 394.73,-86 537.27,-86 537.27,-122"/>
<text text-anchor="middle" x="466" y="-99.8" font-family="Times,serif" font-size="14.00">BlogDetailComponent</text>
</g>
<!-- BlogDetailComponent&#45;&gt;BlogDetailModule -->
<g id="edge2" class="edge">
<title>BlogDetailComponent&#45;&gt;BlogDetailModule</title>
<path fill="none" stroke="black" d="M417.55,-122.11C417.55,-122.11 417.55,-140.99 417.55,-140.99"/>
<polygon fill="black" stroke="black" points="414.05,-140.99 417.55,-150.99 421.05,-140.99 414.05,-140.99"/>
</g>
<!-- NewCommentComponent -->
<g id="node3" class="node">
<title>NewCommentComponent</title>
<polygon fill="#ffffb3" stroke="black" points="376.48,-122 213.52,-122 213.52,-86 376.48,-86 376.48,-122"/>
<text text-anchor="middle" x="295" y="-99.8" font-family="Times,serif" font-size="14.00">NewCommentComponent</text>
</g>
<!-- NewCommentComponent&#45;&gt;BlogDetailModule -->
<g id="edge3" class="edge">
<title>NewCommentComponent&#45;&gt;BlogDetailModule</title>
<path fill="none" stroke="black" d="M348,-122.11C348,-122.11 348,-140.99 348,-140.99"/>
<polygon fill="black" stroke="black" points="344.5,-140.99 348,-150.99 351.5,-140.99 344.5,-140.99"/>
</g>
<!-- BlogDetailRoutingModule -->
<g id="node5" class="node">
<title>BlogDetailRoutingModule</title>
<polygon fill="#8dd3c7" stroke="black" points="190.1,-122 187.1,-126 166.1,-126 163.1,-122 23.9,-122 23.9,-86 190.1,-86 190.1,-122"/>
<text text-anchor="middle" x="107" y="-99.8" font-family="Times,serif" font-size="14.00">BlogDetailRoutingModule</text>
</g>
<!-- BlogDetailRoutingModule&#45;&gt;BlogDetailModule -->
<g id="edge4" class="edge">
<title>BlogDetailRoutingModule&#45;&gt;BlogDetailModule</title>
<path fill="none" stroke="black" d="M107,-122.11C107,-141.34 107,-169 107,-169 107,-169 309.41,-169 309.41,-169"/>
<polygon fill="black" stroke="black" points="309.41,-172.5 319.41,-169 309.41,-165.5 309.41,-172.5"/>
</g>
</g>
</svg>
