<?xml version="1.0" encoding="UTF-8" standalone="no"?>
<!DOCTYPE svg PUBLIC "-//W3C//DTD SVG 1.1//EN"
 "http://www.w3.org/Graphics/SVG/1.1/DTD/svg11.dtd">
<!-- Generated by graphviz version 2.47.0 (20210316.0004)
 -->
<!-- Title: dependencies Pages: 1 -->
<svg width="624pt" height="211pt"
 viewBox="0.00 0.00 624.00 211.00" xmlns="http://www.w3.org/2000/svg" xmlns:xlink="http://www.w3.org/1999/xlink">
<g id="graph0" class="graph" transform="scale(1 1) rotate(0) translate(4 207)">
<title>dependencies</title>
<polygon fill="white" stroke="transparent" points="-4,4 -4,-207 620,-207 620,4 -4,4"/>
<text text-anchor="start" x="287.01" y="-42.4" font-family="Times-12" font-weight="bold" font-size="14.00">Legend</text>
<polygon fill="#ffffb3" stroke="transparent" points="74,-10 74,-30 94,-30 94,-10 74,-10"/>
<text text-anchor="start" x="97.63" y="-15.4" font-family="Times-12" font-size="14.00"> &#160;Declarations</text>
<polygon fill="#8dd3c7" stroke="transparent" points="187,-10 187,-30 207,-30 207,-10 187,-10"/>
<text text-anchor="start" x="210.73" y="-15.4" font-family="Times-12" font-size="14.00"> &#160;Module</text>
<polygon fill="#80b1d3" stroke="transparent" points="273,-10 273,-30 293,-30 293,-10 273,-10"/>
<text text-anchor="start" x="296.78" y="-15.4" font-family="Times-12" font-size="14.00"> &#160;Bootstrap</text>
<polygon fill="#fdb462" stroke="transparent" points="370,-10 370,-30 390,-30 390,-10 370,-10"/>
<text text-anchor="start" x="393.67" y="-15.4" font-family="Times-12" font-size="14.00"> &#160;Providers</text>
<polygon fill="#fb8072" stroke="transparent" points="466,-10 466,-30 486,-30 486,-10 466,-10"/>
<text text-anchor="start" x="489.73" y="-15.4" font-family="Times-12" font-size="14.00"> &#160;Exports</text>
<g id="clust1" class="cluster">
<title>cluster_EmailConfirmationModule</title>
<polygon fill="none" stroke="black" stroke-dasharray="1,5" points="8,-70 8,-195 608,-195 608,-70 8,-70"/>
</g>
<g id="clust2" class="cluster">
<title>cluster_EmailConfirmationModule_declarations</title>
<polygon fill="none" stroke="black" points="394,-78 394,-130 600,-130 600,-78 394,-78"/>
</g>
<g id="clust4" class="cluster">
<title>cluster_EmailConfirmationModule_imports</title>
<polygon fill="none" stroke="black" points="16,-78 16,-130 386,-130 386,-78 16,-78"/>
</g>
<!-- EmailConfirmationComponent -->
<g id="node1" class="node">
<title>EmailConfirmationComponent</title>
<polygon fill="#ffffb3" stroke="black" points="592.21,-122 401.79,-122 401.79,-86 592.21,-86 592.21,-122"/>
<text text-anchor="middle" x="497" y="-99.8" font-family="Times,serif" font-size="14.00">EmailConfirmationComponent</text>
</g>
<!-- EmailConfirmationModule -->
<g id="node2" class="node">
<title>EmailConfirmationModule</title>
<polygon fill="#8dd3c7" stroke="black" points="401.42,-187 398.42,-191 377.42,-191 374.42,-187 232.58,-187 232.58,-151 401.42,-151 401.42,-187"/>
<text text-anchor="middle" x="317" y="-164.8" font-family="Times,serif" font-size="14.00">EmailConfirmationModule</text>
</g>
<!-- EmailConfirmationComponent&#45;&gt;EmailConfirmationModule -->
<g id="edge1" class="edge">
<title>EmailConfirmationComponent&#45;&gt;EmailConfirmationModule</title>
<path fill="none" stroke="black" d="M401.63,-104C394.34,-104 389.74,-104 389.74,-104 389.74,-104 389.74,-140.89 389.74,-140.89"/>
<polygon fill="black" stroke="black" points="386.24,-140.89 389.74,-150.89 393.24,-140.89 386.24,-140.89"/>
</g>
<!-- AppConfigModule -->
<g id="node3" class="node">
<title>AppConfigModule</title>
<polygon fill="#8dd3c7" stroke="black" points="378.05,-122 375.05,-126 354.05,-126 351.05,-122 255.95,-122 255.95,-86 378.05,-86 378.05,-122"/>
<text text-anchor="middle" x="317" y="-99.8" font-family="Times,serif" font-size="14.00">AppConfigModule</text>
</g>
<!-- AppConfigModule&#45;&gt;EmailConfirmationModule -->
<g id="edge2" class="edge">
<title>AppConfigModule&#45;&gt;EmailConfirmationModule</title>
<path fill="none" stroke="black" d="M317,-122.11C317,-122.11 317,-140.99 317,-140.99"/>
<polygon fill="black" stroke="black" points="313.5,-140.99 317,-150.99 320.5,-140.99 313.5,-140.99"/>
</g>
<!-- EmailConfirmationRoutingModule -->
<g id="node4" class="node">
<title>EmailConfirmationRoutingModule</title>
<polygon fill="#8dd3c7" stroke="black" points="237.54,-122 234.54,-126 213.54,-126 210.54,-122 24.46,-122 24.46,-86 237.54,-86 237.54,-122"/>
<text text-anchor="middle" x="131" y="-99.8" font-family="Times,serif" font-size="14.00">EmailConfirmationRoutingModule</text>
</g>
<!-- EmailConfirmationRoutingModule&#45;&gt;EmailConfirmationModule -->
<g id="edge3" class="edge">
<title>EmailConfirmationRoutingModule&#45;&gt;EmailConfirmationModule</title>
<path fill="none" stroke="black" d="M237.67,-104C243.33,-104 246.75,-104 246.75,-104 246.75,-104 246.75,-140.89 246.75,-140.89"/>
<polygon fill="black" stroke="black" points="243.25,-140.89 246.75,-150.89 250.25,-140.89 243.25,-140.89"/>
</g>
</g>
</svg>
