<?xml version="1.0" encoding="UTF-8" standalone="no"?>
<!DOCTYPE svg PUBLIC "-//W3C//DTD SVG 1.1//EN"
 "http://www.w3.org/Graphics/SVG/1.1/DTD/svg11.dtd">
<!-- Generated by graphviz version 2.47.0 (20210316.0004)
 -->
<!-- Title: dependencies Pages: 1 -->
<svg width="504pt" height="211pt"
 viewBox="0.00 0.00 504.00 211.00" xmlns="http://www.w3.org/2000/svg" xmlns:xlink="http://www.w3.org/1999/xlink">
<g id="graph0" class="graph" transform="scale(1 1) rotate(0) translate(4 207)">
<title>dependencies</title>
<polygon fill="white" stroke="transparent" points="-4,4 -4,-207 500,-207 500,4 -4,4"/>
<text text-anchor="start" x="227.01" y="-42.4" font-family="Times-12" font-weight="bold" font-size="14.00">Legend</text>
<polygon fill="#ffffb3" stroke="transparent" points="14,-10 14,-30 34,-30 34,-10 14,-10"/>
<text text-anchor="start" x="37.63" y="-15.4" font-family="Times-12" font-size="14.00"> &#160;Declarations</text>
<polygon fill="#8dd3c7" stroke="transparent" points="127,-10 127,-30 147,-30 147,-10 127,-10"/>
<text text-anchor="start" x="150.73" y="-15.4" font-family="Times-12" font-size="14.00"> &#160;Module</text>
<polygon fill="#80b1d3" stroke="transparent" points="213,-10 213,-30 233,-30 233,-10 213,-10"/>
<text text-anchor="start" x="236.78" y="-15.4" font-family="Times-12" font-size="14.00"> &#160;Bootstrap</text>
<polygon fill="#fdb462" stroke="transparent" points="310,-10 310,-30 330,-30 330,-10 310,-10"/>
<text text-anchor="start" x="333.67" y="-15.4" font-family="Times-12" font-size="14.00"> &#160;Providers</text>
<polygon fill="#fb8072" stroke="transparent" points="406,-10 406,-30 426,-30 426,-10 406,-10"/>
<text text-anchor="start" x="429.73" y="-15.4" font-family="Times-12" font-size="14.00"> &#160;Exports</text>
<g id="clust1" class="cluster">
<title>cluster_FormLayoutDemoModule</title>
<polygon fill="none" stroke="black" stroke-dasharray="1,5" points="23,-70 23,-195 473,-195 473,-70 23,-70"/>
</g>
<g id="clust2" class="cluster">
<title>cluster_FormLayoutDemoModule_declarations</title>
<polygon fill="none" stroke="black" points="263,-78 263,-130 465,-130 465,-78 263,-78"/>
</g>
<g id="clust4" class="cluster">
<title>cluster_FormLayoutDemoModule_imports</title>
<polygon fill="none" stroke="black" points="31,-78 31,-130 255,-130 255,-78 31,-78"/>
</g>
<!-- FormLayoutDemoComponent -->
<g id="node1" class="node">
<title>FormLayoutDemoComponent</title>
<polygon fill="#ffffb3" stroke="black" points="456.54,-122 271.46,-122 271.46,-86 456.54,-86 456.54,-122"/>
<text text-anchor="middle" x="364" y="-99.8" font-family="Times,serif" font-size="14.00">FormLayoutDemoComponent</text>
</g>
<!-- FormLayoutDemoModule -->
<g id="node2" class="node">
<title>FormLayoutDemoModule</title>
<polygon fill="#8dd3c7" stroke="black" points="334.75,-187 331.75,-191 310.75,-191 307.75,-187 171.25,-187 171.25,-151 334.75,-151 334.75,-187"/>
<text text-anchor="middle" x="253" y="-164.8" font-family="Times,serif" font-size="14.00">FormLayoutDemoModule</text>
</g>
<!-- FormLayoutDemoComponent&#45;&gt;FormLayoutDemoModule -->
<g id="edge1" class="edge">
<title>FormLayoutDemoComponent&#45;&gt;FormLayoutDemoModule</title>
<path fill="none" stroke="black" d="M303.05,-122.11C303.05,-122.11 303.05,-140.99 303.05,-140.99"/>
<polygon fill="black" stroke="black" points="299.55,-140.99 303.05,-150.99 306.55,-140.99 299.55,-140.99"/>
</g>
<!-- FormLayoutDemoRoutingModule -->
<g id="node3" class="node">
<title>FormLayoutDemoRoutingModule</title>
<polygon fill="#8dd3c7" stroke="black" points="247.37,-122 244.37,-126 223.37,-126 220.37,-122 38.63,-122 38.63,-86 247.37,-86 247.37,-122"/>
<text text-anchor="middle" x="143" y="-99.8" font-family="Times,serif" font-size="14.00">FormLayoutDemoRoutingModule</text>
</g>
<!-- FormLayoutDemoRoutingModule&#45;&gt;FormLayoutDemoModule -->
<g id="edge2" class="edge">
<title>FormLayoutDemoRoutingModule&#45;&gt;FormLayoutDemoModule</title>
<path fill="none" stroke="black" d="M209.28,-122.11C209.28,-122.11 209.28,-140.99 209.28,-140.99"/>
<polygon fill="black" stroke="black" points="205.78,-140.99 209.28,-150.99 212.78,-140.99 205.78,-140.99"/>
</g>
</g>
</svg>
