<?xml version="1.0" encoding="UTF-8" standalone="no"?>
<!DOCTYPE svg PUBLIC "-//W3C//DTD SVG 1.1//EN"
 "http://www.w3.org/Graphics/SVG/1.1/DTD/svg11.dtd">
<!-- Generated by graphviz version 2.47.0 (20210316.0004)
 -->
<!-- Title: dependencies Pages: 1 -->
<svg width="504pt" height="211pt"
 viewBox="0.00 0.00 504.00 211.00" xmlns="http://www.w3.org/2000/svg" xmlns:xlink="http://www.w3.org/1999/xlink">
<g id="graph0" class="graph" transform="scale(1 1) rotate(0) translate(4 207)">
<title>dependencies</title>
<polygon fill="white" stroke="transparent" points="-4,4 -4,-207 500,-207 500,4 -4,4"/>
<text text-anchor="start" x="227.01" y="-42.4" font-family="Times-12" font-weight="bold" font-size="14.00">Legend</text>
<polygon fill="#ffffb3" stroke="transparent" points="14,-10 14,-30 34,-30 34,-10 14,-10"/>
<text text-anchor="start" x="37.63" y="-15.4" font-family="Times-12" font-size="14.00"> &#160;Declarations</text>
<polygon fill="#8dd3c7" stroke="transparent" points="127,-10 127,-30 147,-30 147,-10 127,-10"/>
<text text-anchor="start" x="150.73" y="-15.4" font-family="Times-12" font-size="14.00"> &#160;Module</text>
<polygon fill="#80b1d3" stroke="transparent" points="213,-10 213,-30 233,-30 233,-10 213,-10"/>
<text text-anchor="start" x="236.78" y="-15.4" font-family="Times-12" font-size="14.00"> &#160;Bootstrap</text>
<polygon fill="#fdb462" stroke="transparent" points="310,-10 310,-30 330,-30 330,-10 310,-10"/>
<text text-anchor="start" x="333.67" y="-15.4" font-family="Times-12" font-size="14.00"> &#160;Providers</text>
<polygon fill="#fb8072" stroke="transparent" points="406,-10 406,-30 426,-30 426,-10 406,-10"/>
<text text-anchor="start" x="429.73" y="-15.4" font-family="Times-12" font-size="14.00"> &#160;Exports</text>
<g id="clust1" class="cluster">
<title>cluster_TreeDemoModule</title>
<polygon fill="none" stroke="black" stroke-dasharray="1,5" points="67,-70 67,-195 429,-195 429,-70 67,-70"/>
</g>
<g id="clust2" class="cluster">
<title>cluster_TreeDemoModule_declarations</title>
<polygon fill="none" stroke="black" points="263,-78 263,-130 421,-130 421,-78 263,-78"/>
</g>
<g id="clust4" class="cluster">
<title>cluster_TreeDemoModule_imports</title>
<polygon fill="none" stroke="black" points="75,-78 75,-130 255,-130 255,-78 75,-78"/>
</g>
<!-- TreeDemoComponent -->
<g id="node1" class="node">
<title>TreeDemoComponent</title>
<polygon fill="#ffffb3" stroke="black" points="412.69,-122 271.31,-122 271.31,-86 412.69,-86 412.69,-122"/>
<text text-anchor="middle" x="342" y="-99.8" font-family="Times,serif" font-size="14.00">TreeDemoComponent</text>
</g>
<!-- TreeDemoModule -->
<g id="node2" class="node">
<title>TreeDemoModule</title>
<polygon fill="#8dd3c7" stroke="black" points="312.9,-187 309.9,-191 288.9,-191 285.9,-187 193.1,-187 193.1,-151 312.9,-151 312.9,-187"/>
<text text-anchor="middle" x="253" y="-164.8" font-family="Times,serif" font-size="14.00">TreeDemoModule</text>
</g>
<!-- TreeDemoComponent&#45;&gt;TreeDemoModule -->
<g id="edge1" class="edge">
<title>TreeDemoComponent&#45;&gt;TreeDemoModule</title>
<path fill="none" stroke="black" d="M292.05,-122.11C292.05,-122.11 292.05,-140.99 292.05,-140.99"/>
<polygon fill="black" stroke="black" points="288.55,-140.99 292.05,-150.99 295.55,-140.99 288.55,-140.99"/>
</g>
<!-- TreeDemoRoutingModule -->
<g id="node3" class="node">
<title>TreeDemoRoutingModule</title>
<polygon fill="#8dd3c7" stroke="black" points="247.02,-122 244.02,-126 223.02,-126 220.02,-122 82.98,-122 82.98,-86 247.02,-86 247.02,-122"/>
<text text-anchor="middle" x="165" y="-99.8" font-family="Times,serif" font-size="14.00">TreeDemoRoutingModule</text>
</g>
<!-- TreeDemoRoutingModule&#45;&gt;TreeDemoModule -->
<g id="edge2" class="edge">
<title>TreeDemoRoutingModule&#45;&gt;TreeDemoModule</title>
<path fill="none" stroke="black" d="M220.28,-122.11C220.28,-122.11 220.28,-140.99 220.28,-140.99"/>
<polygon fill="black" stroke="black" points="216.78,-140.99 220.28,-150.99 223.78,-140.99 216.78,-140.99"/>
</g>
</g>
</svg>
