<?xml version="1.0" encoding="UTF-8" standalone="no"?>
<!DOCTYPE svg PUBLIC "-//W3C//DTD SVG 1.1//EN"
 "http://www.w3.org/Graphics/SVG/1.1/DTD/svg11.dtd">
<!-- Generated by graphviz version 2.47.0 (20210316.0004)
 -->
<!-- Title: dependencies Pages: 1 -->
<svg width="504pt" height="211pt"
 viewBox="0.00 0.00 504.00 211.00" xmlns="http://www.w3.org/2000/svg" xmlns:xlink="http://www.w3.org/1999/xlink">
<g id="graph0" class="graph" transform="scale(1 1) rotate(0) translate(4 207)">
<title>dependencies</title>
<polygon fill="white" stroke="transparent" points="-4,4 -4,-207 500,-207 500,4 -4,4"/>
<text text-anchor="start" x="227.01" y="-42.4" font-family="Times-12" font-weight="bold" font-size="14.00">Legend</text>
<polygon fill="#ffffb3" stroke="transparent" points="14,-10 14,-30 34,-30 34,-10 14,-10"/>
<text text-anchor="start" x="37.63" y="-15.4" font-family="Times-12" font-size="14.00"> &#160;Declarations</text>
<polygon fill="#8dd3c7" stroke="transparent" points="127,-10 127,-30 147,-30 147,-10 127,-10"/>
<text text-anchor="start" x="150.73" y="-15.4" font-family="Times-12" font-size="14.00"> &#160;Module</text>
<polygon fill="#80b1d3" stroke="transparent" points="213,-10 213,-30 233,-30 233,-10 213,-10"/>
<text text-anchor="start" x="236.78" y="-15.4" font-family="Times-12" font-size="14.00"> &#160;Bootstrap</text>
<polygon fill="#fdb462" stroke="transparent" points="310,-10 310,-30 330,-30 330,-10 310,-10"/>
<text text-anchor="start" x="333.67" y="-15.4" font-family="Times-12" font-size="14.00"> &#160;Providers</text>
<polygon fill="#fb8072" stroke="transparent" points="406,-10 406,-30 426,-30 426,-10 406,-10"/>
<text text-anchor="start" x="429.73" y="-15.4" font-family="Times-12" font-size="14.00"> &#160;Exports</text>
<g id="clust1" class="cluster">
<title>cluster_NewProductModule</title>
<polygon fill="none" stroke="black" stroke-dasharray="1,5" points="57,-70 57,-195 439,-195 439,-70 57,-70"/>
</g>
<g id="clust2" class="cluster">
<title>cluster_NewProductModule_declarations</title>
<polygon fill="none" stroke="black" points="263,-78 263,-130 431,-130 431,-78 263,-78"/>
</g>
<g id="clust4" class="cluster">
<title>cluster_NewProductModule_imports</title>
<polygon fill="none" stroke="black" points="65,-78 65,-130 255,-130 255,-78 65,-78"/>
</g>
<!-- NewProductComponent -->
<g id="node1" class="node">
<title>NewProductComponent</title>
<polygon fill="#ffffb3" stroke="black" points="422.81,-122 271.19,-122 271.19,-86 422.81,-86 422.81,-122"/>
<text text-anchor="middle" x="347" y="-99.8" font-family="Times,serif" font-size="14.00">NewProductComponent</text>
</g>
<!-- NewProductModule -->
<g id="node2" class="node">
<title>NewProductModule</title>
<polygon fill="#8dd3c7" stroke="black" points="317.53,-187 314.53,-191 293.53,-191 290.53,-187 188.47,-187 188.47,-151 317.53,-151 317.53,-187"/>
<text text-anchor="middle" x="253" y="-164.8" font-family="Times,serif" font-size="14.00">NewProductModule</text>
</g>
<!-- NewProductComponent&#45;&gt;NewProductModule -->
<g id="edge1" class="edge">
<title>NewProductComponent&#45;&gt;NewProductModule</title>
<path fill="none" stroke="black" d="M294.55,-122.11C294.55,-122.11 294.55,-140.99 294.55,-140.99"/>
<polygon fill="black" stroke="black" points="291.05,-140.99 294.55,-150.99 298.05,-140.99 291.05,-140.99"/>
</g>
<!-- NewProductRoutingModule -->
<g id="node3" class="node">
<title>NewProductRoutingModule</title>
<polygon fill="#8dd3c7" stroke="black" points="247.14,-122 244.14,-126 223.14,-126 220.14,-122 72.86,-122 72.86,-86 247.14,-86 247.14,-122"/>
<text text-anchor="middle" x="160" y="-99.8" font-family="Times,serif" font-size="14.00">NewProductRoutingModule</text>
</g>
<!-- NewProductRoutingModule&#45;&gt;NewProductModule -->
<g id="edge2" class="edge">
<title>NewProductRoutingModule&#45;&gt;NewProductModule</title>
<path fill="none" stroke="black" d="M217.78,-122.11C217.78,-122.11 217.78,-140.99 217.78,-140.99"/>
<polygon fill="black" stroke="black" points="214.28,-140.99 217.78,-150.99 221.28,-140.99 214.28,-140.99"/>
</g>
</g>
</svg>
