<?xml version="1.0" encoding="UTF-8" standalone="no"?>
<!DOCTYPE svg PUBLIC "-//W3C//DTD SVG 1.1//EN"
 "http://www.w3.org/Graphics/SVG/1.1/DTD/svg11.dtd">
<!-- Generated by graphviz version 2.47.0 (20210316.0004)
 -->
<!-- Title: dependencies Pages: 1 -->
<svg width="1085pt" height="211pt"
 viewBox="0.00 0.00 1085.00 211.00" xmlns="http://www.w3.org/2000/svg" xmlns:xlink="http://www.w3.org/1999/xlink">
<g id="graph0" class="graph" transform="scale(1 1) rotate(0) translate(4 207)">
<title>dependencies</title>
<polygon fill="white" stroke="transparent" points="-4,4 -4,-207 1081,-207 1081,4 -4,4"/>
<text text-anchor="start" x="517.51" y="-42.4" font-family="Times-12" font-weight="bold" font-size="14.00">Legend</text>
<polygon fill="#ffffb3" stroke="transparent" points="304.5,-10 304.5,-30 324.5,-30 324.5,-10 304.5,-10"/>
<text text-anchor="start" x="328.13" y="-15.4" font-family="Times-12" font-size="14.00"> &#160;Declarations</text>
<polygon fill="#8dd3c7" stroke="transparent" points="417.5,-10 417.5,-30 437.5,-30 437.5,-10 417.5,-10"/>
<text text-anchor="start" x="441.23" y="-15.4" font-family="Times-12" font-size="14.00"> &#160;Module</text>
<polygon fill="#80b1d3" stroke="transparent" points="503.5,-10 503.5,-30 523.5,-30 523.5,-10 503.5,-10"/>
<text text-anchor="start" x="527.28" y="-15.4" font-family="Times-12" font-size="14.00"> &#160;Bootstrap</text>
<polygon fill="#fdb462" stroke="transparent" points="600.5,-10 600.5,-30 620.5,-30 620.5,-10 600.5,-10"/>
<text text-anchor="start" x="624.17" y="-15.4" font-family="Times-12" font-size="14.00"> &#160;Providers</text>
<polygon fill="#fb8072" stroke="transparent" points="696.5,-10 696.5,-30 716.5,-30 716.5,-10 696.5,-10"/>
<text text-anchor="start" x="720.23" y="-15.4" font-family="Times-12" font-size="14.00"> &#160;Exports</text>
<g id="clust1" class="cluster">
<title>cluster_KanbanAppModule</title>
<polygon fill="none" stroke="black" stroke-dasharray="1,5" points="8,-70 8,-195 1069,-195 1069,-70 8,-70"/>
</g>
<g id="clust10" class="cluster">
<title>cluster_KanbanAppModule_providers</title>
<polygon fill="none" stroke="black" points="905,-78 905,-130 1061,-130 1061,-78 905,-78"/>
</g>
<g id="clust7" class="cluster">
<title>cluster_KanbanAppModule_imports</title>
<polygon fill="none" stroke="black" points="709,-78 709,-130 897,-130 897,-78 709,-78"/>
</g>
<g id="clust2" class="cluster">
<title>cluster_KanbanAppModule_declarations</title>
<polygon fill="none" stroke="black" points="16,-78 16,-130 701,-130 701,-78 16,-78"/>
</g>
<!-- KanbanAppComponent -->
<g id="node1" class="node">
<title>KanbanAppComponent</title>
<polygon fill="#ffffb3" stroke="black" points="693.47,-122 544.53,-122 544.53,-86 693.47,-86 693.47,-122"/>
<text text-anchor="middle" x="619" y="-99.8" font-family="Times,serif" font-size="14.00">KanbanAppComponent</text>
</g>
<!-- KanbanAppModule -->
<g id="node5" class="node">
<title>KanbanAppModule</title>
<polygon fill="#8dd3c7" stroke="black" points="597.69,-187 594.69,-191 573.69,-191 570.69,-187 470.31,-187 470.31,-151 597.69,-151 597.69,-187"/>
<text text-anchor="middle" x="534" y="-164.8" font-family="Times,serif" font-size="14.00">KanbanAppModule</text>
</g>
<!-- KanbanAppComponent&#45;&gt;KanbanAppModule -->
<g id="edge1" class="edge">
<title>KanbanAppComponent&#45;&gt;KanbanAppModule</title>
<path fill="none" stroke="black" d="M571.05,-122.11C571.05,-122.11 571.05,-140.99 571.05,-140.99"/>
<polygon fill="black" stroke="black" points="567.55,-140.99 571.05,-150.99 574.55,-140.99 567.55,-140.99"/>
</g>
<!-- KanbanCardComponent -->
<g id="node2" class="node">
<title>KanbanCardComponent</title>
<polygon fill="#ffffb3" stroke="black" points="526.08,-122 373.92,-122 373.92,-86 526.08,-86 526.08,-122"/>
<text text-anchor="middle" x="450" y="-99.8" font-family="Times,serif" font-size="14.00">KanbanCardComponent</text>
</g>
<!-- KanbanCardComponent&#45;&gt;KanbanAppModule -->
<g id="edge2" class="edge">
<title>KanbanCardComponent&#45;&gt;KanbanAppModule</title>
<path fill="none" stroke="black" d="M498.22,-122.11C498.22,-122.11 498.22,-140.99 498.22,-140.99"/>
<polygon fill="black" stroke="black" points="494.72,-140.99 498.22,-150.99 501.72,-140.99 494.72,-140.99"/>
</g>
<!-- KanbanListComponent -->
<g id="node3" class="node">
<title>KanbanListComponent</title>
<polygon fill="#ffffb3" stroke="black" points="356.15,-122 209.85,-122 209.85,-86 356.15,-86 356.15,-122"/>
<text text-anchor="middle" x="283" y="-99.8" font-family="Times,serif" font-size="14.00">KanbanListComponent</text>
</g>
<!-- KanbanListComponent&#45;&gt;KanbanAppModule -->
<g id="edge3" class="edge">
<title>KanbanListComponent&#45;&gt;KanbanAppModule</title>
<path fill="none" stroke="black" d="M283,-122.02C283,-139.37 283,-163 283,-163 283,-163 460.34,-163 460.34,-163"/>
<polygon fill="black" stroke="black" points="460.34,-166.5 470.34,-163 460.34,-159.5 460.34,-166.5"/>
</g>
<!-- KanbanSidebarComponent -->
<g id="node4" class="node">
<title>KanbanSidebarComponent</title>
<polygon fill="#ffffb3" stroke="black" points="191.63,-122 24.37,-122 24.37,-86 191.63,-86 191.63,-122"/>
<text text-anchor="middle" x="108" y="-99.8" font-family="Times,serif" font-size="14.00">KanbanSidebarComponent</text>
</g>
<!-- KanbanSidebarComponent&#45;&gt;KanbanAppModule -->
<g id="edge4" class="edge">
<title>KanbanSidebarComponent&#45;&gt;KanbanAppModule</title>
<path fill="none" stroke="black" d="M108,-122.28C108,-143.32 108,-175 108,-175 108,-175 460.22,-175 460.22,-175"/>
<polygon fill="black" stroke="black" points="460.22,-178.5 470.22,-175 460.22,-171.5 460.22,-178.5"/>
</g>
<!-- KanbanAppRoutingModule -->
<g id="node6" class="node">
<title>KanbanAppRoutingModule</title>
<polygon fill="#8dd3c7" stroke="black" points="889.31,-122 886.31,-126 865.31,-126 862.31,-122 716.69,-122 716.69,-86 889.31,-86 889.31,-122"/>
<text text-anchor="middle" x="803" y="-99.8" font-family="Times,serif" font-size="14.00">KanbanAppRoutingModule</text>
</g>
<!-- KanbanAppRoutingModule&#45;&gt;KanbanAppModule -->
<g id="edge5" class="edge">
<title>KanbanAppRoutingModule&#45;&gt;KanbanAppModule</title>
<path fill="none" stroke="black" d="M803,-122.02C803,-139.37 803,-163 803,-163 803,-163 607.75,-163 607.75,-163"/>
<polygon fill="black" stroke="black" points="607.75,-159.5 597.75,-163 607.75,-166.5 607.75,-159.5"/>
</g>
<!-- KanbanService -->
<g id="node7" class="node">
<title>KanbanService</title>
<ellipse fill="#fdb462" stroke="black" cx="983" cy="-104" rx="70.04" ry="18"/>
<text text-anchor="middle" x="983" y="-99.8" font-family="Times,serif" font-size="14.00">KanbanService</text>
</g>
<!-- KanbanService&#45;&gt;KanbanAppModule -->
<g id="edge6" class="edge">
<title>KanbanService&#45;&gt;KanbanAppModule</title>
<path fill="none" stroke="black" d="M983,-122.28C983,-143.32 983,-175 983,-175 983,-175 607.85,-175 607.85,-175"/>
<polygon fill="black" stroke="black" points="607.85,-171.5 597.85,-175 607.85,-178.5 607.85,-171.5"/>
</g>
</g>
</svg>
