<?xml version="1.0" encoding="UTF-8" standalone="no"?>
<!DOCTYPE svg PUBLIC "-//W3C//DTD SVG 1.1//EN"
 "http://www.w3.org/Graphics/SVG/1.1/DTD/svg11.dtd">
<!-- Generated by graphviz version 2.47.0 (20210316.0004)
 -->
<!-- Title: dependencies Pages: 1 -->
<svg width="504pt" height="211pt"
 viewBox="0.00 0.00 504.00 211.00" xmlns="http://www.w3.org/2000/svg" xmlns:xlink="http://www.w3.org/1999/xlink">
<g id="graph0" class="graph" transform="scale(1 1) rotate(0) translate(4 207)">
<title>dependencies</title>
<polygon fill="white" stroke="transparent" points="-4,4 -4,-207 500,-207 500,4 -4,4"/>
<text text-anchor="start" x="227.01" y="-42.4" font-family="Times-12" font-weight="bold" font-size="14.00">Legend</text>
<polygon fill="#ffffb3" stroke="transparent" points="14,-10 14,-30 34,-30 34,-10 14,-10"/>
<text text-anchor="start" x="37.63" y="-15.4" font-family="Times-12" font-size="14.00"> &#160;Declarations</text>
<polygon fill="#8dd3c7" stroke="transparent" points="127,-10 127,-30 147,-30 147,-10 127,-10"/>
<text text-anchor="start" x="150.73" y="-15.4" font-family="Times-12" font-size="14.00"> &#160;Module</text>
<polygon fill="#80b1d3" stroke="transparent" points="213,-10 213,-30 233,-30 233,-10 213,-10"/>
<text text-anchor="start" x="236.78" y="-15.4" font-family="Times-12" font-size="14.00"> &#160;Bootstrap</text>
<polygon fill="#fdb462" stroke="transparent" points="310,-10 310,-30 330,-30 330,-10 310,-10"/>
<text text-anchor="start" x="333.67" y="-15.4" font-family="Times-12" font-size="14.00"> &#160;Providers</text>
<polygon fill="#fb8072" stroke="transparent" points="406,-10 406,-30 426,-30 426,-10 406,-10"/>
<text text-anchor="start" x="429.73" y="-15.4" font-family="Times-12" font-size="14.00"> &#160;Exports</text>
<g id="clust1" class="cluster">
<title>cluster_InputDemoModule</title>
<polygon fill="none" stroke="black" stroke-dasharray="1,5" points="63,-70 63,-195 433,-195 433,-70 63,-70"/>
</g>
<g id="clust2" class="cluster">
<title>cluster_InputDemoModule_declarations</title>
<polygon fill="none" stroke="black" points="263,-78 263,-130 425,-130 425,-78 263,-78"/>
</g>
<g id="clust4" class="cluster">
<title>cluster_InputDemoModule_imports</title>
<polygon fill="none" stroke="black" points="71,-78 71,-130 255,-130 255,-78 71,-78"/>
</g>
<!-- InputDemoComponent -->
<g id="node1" class="node">
<title>InputDemoComponent</title>
<polygon fill="#ffffb3" stroke="black" points="416.6,-122 271.4,-122 271.4,-86 416.6,-86 416.6,-122"/>
<text text-anchor="middle" x="344" y="-99.8" font-family="Times,serif" font-size="14.00">InputDemoComponent</text>
</g>
<!-- InputDemoModule -->
<g id="node2" class="node">
<title>InputDemoModule</title>
<polygon fill="#8dd3c7" stroke="black" points="314.81,-187 311.81,-191 290.81,-191 287.81,-187 191.19,-187 191.19,-151 314.81,-151 314.81,-187"/>
<text text-anchor="middle" x="253" y="-164.8" font-family="Times,serif" font-size="14.00">InputDemoModule</text>
</g>
<!-- InputDemoComponent&#45;&gt;InputDemoModule -->
<g id="edge1" class="edge">
<title>InputDemoComponent&#45;&gt;InputDemoModule</title>
<path fill="none" stroke="black" d="M293.05,-122.11C293.05,-122.11 293.05,-140.99 293.05,-140.99"/>
<polygon fill="black" stroke="black" points="289.55,-140.99 293.05,-150.99 296.55,-140.99 289.55,-140.99"/>
</g>
<!-- InputDemoRoutingModule -->
<g id="node3" class="node">
<title>InputDemoRoutingModule</title>
<polygon fill="#8dd3c7" stroke="black" points="247.43,-122 244.43,-126 223.43,-126 220.43,-122 78.57,-122 78.57,-86 247.43,-86 247.43,-122"/>
<text text-anchor="middle" x="163" y="-99.8" font-family="Times,serif" font-size="14.00">InputDemoRoutingModule</text>
</g>
<!-- InputDemoRoutingModule&#45;&gt;InputDemoModule -->
<g id="edge2" class="edge">
<title>InputDemoRoutingModule&#45;&gt;InputDemoModule</title>
<path fill="none" stroke="black" d="M219.28,-122.11C219.28,-122.11 219.28,-140.99 219.28,-140.99"/>
<polygon fill="black" stroke="black" points="215.78,-140.99 219.28,-150.99 222.78,-140.99 215.78,-140.99"/>
</g>
</g>
</svg>
