<?xml version="1.0" encoding="UTF-8" standalone="no"?>
<!DOCTYPE svg PUBLIC "-//W3C//DTD SVG 1.1//EN"
 "http://www.w3.org/Graphics/SVG/1.1/DTD/svg11.dtd">
<!-- Generated by graphviz version 2.47.0 (20210316.0004)
 -->
<!-- Title: dependencies Pages: 1 -->
<svg width="978pt" height="211pt"
 viewBox="0.00 0.00 978.00 211.00" xmlns="http://www.w3.org/2000/svg" xmlns:xlink="http://www.w3.org/1999/xlink">
<g id="graph0" class="graph" transform="scale(1 1) rotate(0) translate(4 207)">
<title>dependencies</title>
<polygon fill="white" stroke="transparent" points="-4,4 -4,-207 974,-207 974,4 -4,4"/>
<text text-anchor="start" x="464.01" y="-42.4" font-family="Times-12" font-weight="bold" font-size="14.00">Legend</text>
<polygon fill="#ffffb3" stroke="transparent" points="251,-10 251,-30 271,-30 271,-10 251,-10"/>
<text text-anchor="start" x="274.63" y="-15.4" font-family="Times-12" font-size="14.00"> &#160;Declarations</text>
<polygon fill="#8dd3c7" stroke="transparent" points="364,-10 364,-30 384,-30 384,-10 364,-10"/>
<text text-anchor="start" x="387.73" y="-15.4" font-family="Times-12" font-size="14.00"> &#160;Module</text>
<polygon fill="#80b1d3" stroke="transparent" points="450,-10 450,-30 470,-30 470,-10 450,-10"/>
<text text-anchor="start" x="473.78" y="-15.4" font-family="Times-12" font-size="14.00"> &#160;Bootstrap</text>
<polygon fill="#fdb462" stroke="transparent" points="547,-10 547,-30 567,-30 567,-10 547,-10"/>
<text text-anchor="start" x="570.67" y="-15.4" font-family="Times-12" font-size="14.00"> &#160;Providers</text>
<polygon fill="#fb8072" stroke="transparent" points="643,-10 643,-30 663,-30 663,-10 643,-10"/>
<text text-anchor="start" x="666.73" y="-15.4" font-family="Times-12" font-size="14.00"> &#160;Exports</text>
<g id="clust1" class="cluster">
<title>cluster_ChatAppModule</title>
<polygon fill="none" stroke="black" stroke-dasharray="1,5" points="8,-70 8,-195 962,-195 962,-70 8,-70"/>
</g>
<g id="clust2" class="cluster">
<title>cluster_ChatAppModule_declarations</title>
<polygon fill="none" stroke="black" points="336,-78 336,-130 954,-130 954,-78 336,-78"/>
</g>
<g id="clust7" class="cluster">
<title>cluster_ChatAppModule_imports</title>
<polygon fill="none" stroke="black" points="156,-78 156,-130 328,-130 328,-78 156,-78"/>
</g>
<g id="clust10" class="cluster">
<title>cluster_ChatAppModule_providers</title>
<polygon fill="none" stroke="black" points="16,-78 16,-130 148,-130 148,-78 16,-78"/>
</g>
<!-- ChatAppComponent -->
<g id="node1" class="node">
<title>ChatAppComponent</title>
<polygon fill="#ffffb3" stroke="black" points="945.88,-122 814.12,-122 814.12,-86 945.88,-86 945.88,-122"/>
<text text-anchor="middle" x="880" y="-99.8" font-family="Times,serif" font-size="14.00">ChatAppComponent</text>
</g>
<!-- ChatAppModule -->
<g id="node5" class="node">
<title>ChatAppModule</title>
<polygon fill="#8dd3c7" stroke="black" points="546.1,-187 543.1,-191 522.1,-191 519.1,-187 435.9,-187 435.9,-151 546.1,-151 546.1,-187"/>
<text text-anchor="middle" x="491" y="-164.8" font-family="Times,serif" font-size="14.00">ChatAppModule</text>
</g>
<!-- ChatAppComponent&#45;&gt;ChatAppModule -->
<g id="edge1" class="edge">
<title>ChatAppComponent&#45;&gt;ChatAppModule</title>
<path fill="none" stroke="black" d="M880,-122.28C880,-143.32 880,-175 880,-175 880,-175 556.32,-175 556.32,-175"/>
<polygon fill="black" stroke="black" points="556.32,-171.5 546.32,-175 556.32,-178.5 556.32,-171.5"/>
</g>
<!-- ChatBoxComponent -->
<g id="node2" class="node">
<title>ChatBoxComponent</title>
<polygon fill="#ffffb3" stroke="black" points="796.61,-122 665.39,-122 665.39,-86 796.61,-86 796.61,-122"/>
<text text-anchor="middle" x="731" y="-99.8" font-family="Times,serif" font-size="14.00">ChatBoxComponent</text>
</g>
<!-- ChatBoxComponent&#45;&gt;ChatAppModule -->
<g id="edge2" class="edge">
<title>ChatBoxComponent&#45;&gt;ChatAppModule</title>
<path fill="none" stroke="black" d="M731,-122.02C731,-139.37 731,-163 731,-163 731,-163 556.06,-163 556.06,-163"/>
<polygon fill="black" stroke="black" points="556.06,-159.5 546.06,-163 556.06,-166.5 556.06,-159.5"/>
</g>
<!-- ChatSidebarComponent -->
<g id="node3" class="node">
<title>ChatSidebarComponent</title>
<polygon fill="#ffffb3" stroke="black" points="647.04,-122 496.96,-122 496.96,-86 647.04,-86 647.04,-122"/>
<text text-anchor="middle" x="572" y="-99.8" font-family="Times,serif" font-size="14.00">ChatSidebarComponent</text>
</g>
<!-- ChatSidebarComponent&#45;&gt;ChatAppModule -->
<g id="edge3" class="edge">
<title>ChatSidebarComponent&#45;&gt;ChatAppModule</title>
<path fill="none" stroke="black" d="M521.39,-122.11C521.39,-122.11 521.39,-140.99 521.39,-140.99"/>
<polygon fill="black" stroke="black" points="517.89,-140.99 521.39,-150.99 524.89,-140.99 517.89,-140.99"/>
</g>
<!-- UserCardComponent -->
<g id="node4" class="node">
<title>UserCardComponent</title>
<polygon fill="#ffffb3" stroke="black" points="478.47,-122 343.53,-122 343.53,-86 478.47,-86 478.47,-122"/>
<text text-anchor="middle" x="411" y="-99.8" font-family="Times,serif" font-size="14.00">UserCardComponent</text>
</g>
<!-- UserCardComponent&#45;&gt;ChatAppModule -->
<g id="edge4" class="edge">
<title>UserCardComponent&#45;&gt;ChatAppModule</title>
<path fill="none" stroke="black" d="M457.22,-122.11C457.22,-122.11 457.22,-140.99 457.22,-140.99"/>
<polygon fill="black" stroke="black" points="453.72,-140.99 457.22,-150.99 460.72,-140.99 453.72,-140.99"/>
</g>
<!-- ChatAppRoutingModule -->
<g id="node6" class="node">
<title>ChatAppRoutingModule</title>
<polygon fill="#8dd3c7" stroke="black" points="319.72,-122 316.72,-126 295.72,-126 292.72,-122 164.28,-122 164.28,-86 319.72,-86 319.72,-122"/>
<text text-anchor="middle" x="242" y="-99.8" font-family="Times,serif" font-size="14.00">ChatAppRoutingModule</text>
</g>
<!-- ChatAppRoutingModule&#45;&gt;ChatAppModule -->
<g id="edge5" class="edge">
<title>ChatAppRoutingModule&#45;&gt;ChatAppModule</title>
<path fill="none" stroke="black" d="M242,-122.02C242,-139.37 242,-163 242,-163 242,-163 425.74,-163 425.74,-163"/>
<polygon fill="black" stroke="black" points="425.74,-166.5 435.74,-163 425.74,-159.5 425.74,-166.5"/>
</g>
<!-- ChatService -->
<g id="node7" class="node">
<title>ChatService</title>
<ellipse fill="#fdb462" stroke="black" cx="82" cy="-104" rx="58.46" ry="18"/>
<text text-anchor="middle" x="82" y="-99.8" font-family="Times,serif" font-size="14.00">ChatService</text>
</g>
<!-- ChatService&#45;&gt;ChatAppModule -->
<g id="edge6" class="edge">
<title>ChatService&#45;&gt;ChatAppModule</title>
<path fill="none" stroke="black" d="M82,-122.28C82,-143.32 82,-175 82,-175 82,-175 425.84,-175 425.84,-175"/>
<polygon fill="black" stroke="black" points="425.84,-178.5 435.84,-175 425.84,-171.5 425.84,-178.5"/>
</g>
</g>
</svg>
