<?xml version="1.0" encoding="UTF-8" standalone="no"?>
<!DOCTYPE svg PUBLIC "-//W3C//DTD SVG 1.1//EN"
 "http://www.w3.org/Graphics/SVG/1.1/DTD/svg11.dtd">
<!-- Generated by graphviz version 2.47.0 (20210316.0004)
 -->
<!-- Title: dependencies Pages: 1 -->
<svg width="504pt" height="211pt"
 viewBox="0.00 0.00 504.00 211.00" xmlns="http://www.w3.org/2000/svg" xmlns:xlink="http://www.w3.org/1999/xlink">
<g id="graph0" class="graph" transform="scale(1 1) rotate(0) translate(4 207)">
<title>dependencies</title>
<polygon fill="white" stroke="transparent" points="-4,4 -4,-207 500,-207 500,4 -4,4"/>
<text text-anchor="start" x="227.01" y="-42.4" font-family="Times-12" font-weight="bold" font-size="14.00">Legend</text>
<polygon fill="#ffffb3" stroke="transparent" points="14,-10 14,-30 34,-30 34,-10 14,-10"/>
<text text-anchor="start" x="37.63" y="-15.4" font-family="Times-12" font-size="14.00"> &#160;Declarations</text>
<polygon fill="#8dd3c7" stroke="transparent" points="127,-10 127,-30 147,-30 147,-10 127,-10"/>
<text text-anchor="start" x="150.73" y="-15.4" font-family="Times-12" font-size="14.00"> &#160;Module</text>
<polygon fill="#80b1d3" stroke="transparent" points="213,-10 213,-30 233,-30 233,-10 213,-10"/>
<text text-anchor="start" x="236.78" y="-15.4" font-family="Times-12" font-size="14.00"> &#160;Bootstrap</text>
<polygon fill="#fdb462" stroke="transparent" points="310,-10 310,-30 330,-30 330,-10 310,-10"/>
<text text-anchor="start" x="333.67" y="-15.4" font-family="Times-12" font-size="14.00"> &#160;Providers</text>
<polygon fill="#fb8072" stroke="transparent" points="406,-10 406,-30 426,-30 426,-10 406,-10"/>
<text text-anchor="start" x="429.73" y="-15.4" font-family="Times-12" font-size="14.00"> &#160;Exports</text>
<g id="clust1" class="cluster">
<title>cluster_UtilitiesModule</title>
<polygon fill="none" stroke="black" stroke-dasharray="1,5" points="21,-70 21,-195 475,-195 475,-70 21,-70"/>
</g>
<g id="clust2" class="cluster">
<title>cluster_UtilitiesModule_declarations</title>
<polygon fill="none" stroke="black" points="203,-78 203,-130 467,-130 467,-78 203,-78"/>
</g>
<g id="clust5" class="cluster">
<title>cluster_UtilitiesModule_imports</title>
<polygon fill="none" stroke="black" points="29,-78 29,-130 195,-130 195,-78 29,-78"/>
</g>
<!-- ColorsComponent -->
<g id="node1" class="node">
<title>ColorsComponent</title>
<polygon fill="#ffffb3" stroke="black" points="459.17,-122 340.83,-122 340.83,-86 459.17,-86 459.17,-122"/>
<text text-anchor="middle" x="400" y="-99.8" font-family="Times,serif" font-size="14.00">ColorsComponent</text>
</g>
<!-- UtilitiesModule -->
<g id="node3" class="node">
<title>UtilitiesModule</title>
<polygon fill="#8dd3c7" stroke="black" points="319.16,-187 316.16,-191 295.16,-191 292.16,-187 214.84,-187 214.84,-151 319.16,-151 319.16,-187"/>
<text text-anchor="middle" x="267" y="-164.8" font-family="Times,serif" font-size="14.00">UtilitiesModule</text>
</g>
<!-- ColorsComponent&#45;&gt;UtilitiesModule -->
<g id="edge1" class="edge">
<title>ColorsComponent&#45;&gt;UtilitiesModule</title>
<path fill="none" stroke="black" d="M400,-122.11C400,-141.34 400,-169 400,-169 400,-169 329.18,-169 329.18,-169"/>
<polygon fill="black" stroke="black" points="329.18,-165.5 319.18,-169 329.18,-172.5 329.18,-165.5"/>
</g>
<!-- IconsComponent -->
<g id="node2" class="node">
<title>IconsComponent</title>
<polygon fill="#ffffb3" stroke="black" points="322.65,-122 211.35,-122 211.35,-86 322.65,-86 322.65,-122"/>
<text text-anchor="middle" x="267" y="-99.8" font-family="Times,serif" font-size="14.00">IconsComponent</text>
</g>
<!-- IconsComponent&#45;&gt;UtilitiesModule -->
<g id="edge2" class="edge">
<title>IconsComponent&#45;&gt;UtilitiesModule</title>
<path fill="none" stroke="black" d="M267,-122.11C267,-122.11 267,-140.99 267,-140.99"/>
<polygon fill="black" stroke="black" points="263.5,-140.99 267,-150.99 270.5,-140.99 263.5,-140.99"/>
</g>
<!-- UtilitiesRoutingModule -->
<g id="node4" class="node">
<title>UtilitiesRoutingModule</title>
<polygon fill="#8dd3c7" stroke="black" points="186.78,-122 183.78,-126 162.78,-126 159.78,-122 37.22,-122 37.22,-86 186.78,-86 186.78,-122"/>
<text text-anchor="middle" x="112" y="-99.8" font-family="Times,serif" font-size="14.00">UtilitiesRoutingModule</text>
</g>
<!-- UtilitiesRoutingModule&#45;&gt;UtilitiesModule -->
<g id="edge3" class="edge">
<title>UtilitiesRoutingModule&#45;&gt;UtilitiesModule</title>
<path fill="none" stroke="black" d="M112,-122.11C112,-141.34 112,-169 112,-169 112,-169 204.52,-169 204.52,-169"/>
<polygon fill="black" stroke="black" points="204.52,-172.5 214.52,-169 204.52,-165.5 204.52,-172.5"/>
</g>
</g>
</svg>
