<?xml version="1.0" encoding="UTF-8" standalone="no"?>
<!DOCTYPE svg PUBLIC "-//W3C//DTD SVG 1.1//EN"
 "http://www.w3.org/Graphics/SVG/1.1/DTD/svg11.dtd">
<!-- Generated by graphviz version 2.47.0 (20210316.0004)
 -->
<!-- Title: dependencies Pages: 1 -->
<svg width="504pt" height="276pt"
 viewBox="0.00 0.00 504.00 276.00" xmlns="http://www.w3.org/2000/svg" xmlns:xlink="http://www.w3.org/1999/xlink">
<g id="graph0" class="graph" transform="scale(1 1) rotate(0) translate(4 272)">
<title>dependencies</title>
<polygon fill="white" stroke="transparent" points="-4,4 -4,-272 500,-272 500,4 -4,4"/>
<text text-anchor="start" x="227.01" y="-42.4" font-family="Times-12" font-weight="bold" font-size="14.00">Legend</text>
<polygon fill="#ffffb3" stroke="transparent" points="14,-10 14,-30 34,-30 34,-10 14,-10"/>
<text text-anchor="start" x="37.63" y="-15.4" font-family="Times-12" font-size="14.00"> &#160;Declarations</text>
<polygon fill="#8dd3c7" stroke="transparent" points="127,-10 127,-30 147,-30 147,-10 127,-10"/>
<text text-anchor="start" x="150.73" y="-15.4" font-family="Times-12" font-size="14.00"> &#160;Module</text>
<polygon fill="#80b1d3" stroke="transparent" points="213,-10 213,-30 233,-30 233,-10 213,-10"/>
<text text-anchor="start" x="236.78" y="-15.4" font-family="Times-12" font-size="14.00"> &#160;Bootstrap</text>
<polygon fill="#fdb462" stroke="transparent" points="310,-10 310,-30 330,-30 330,-10 310,-10"/>
<text text-anchor="start" x="333.67" y="-15.4" font-family="Times-12" font-size="14.00"> &#160;Providers</text>
<polygon fill="#fb8072" stroke="transparent" points="406,-10 406,-30 426,-30 426,-10 406,-10"/>
<text text-anchor="start" x="429.73" y="-15.4" font-family="Times-12" font-size="14.00"> &#160;Exports</text>
<g id="clust1" class="cluster">
<title>cluster_MessagesDemoModule</title>
<polygon fill="none" stroke="black" stroke-dasharray="1,5" points="38,-70 38,-260 458,-260 458,-70 38,-70"/>
</g>
<g id="clust2" class="cluster">
<title>cluster_MessagesDemoModule_declarations</title>
<polygon fill="none" stroke="black" points="264,-143 264,-195 450,-195 450,-143 264,-143"/>
</g>
<g id="clust3" class="cluster">
<title>cluster_MessagesDemoModule_MessagesDemoComponent_providers</title>
<polygon fill="none" stroke="black" points="275,-78 275,-130 439,-130 439,-78 275,-78"/>
</g>
<g id="clust4" class="cluster">
<title>cluster_MessagesDemoModule_imports</title>
<polygon fill="none" stroke="black" points="46,-143 46,-195 256,-195 256,-143 46,-143"/>
</g>
<!-- MessagesDemoComponent -->
<g id="node1" class="node">
<title>MessagesDemoComponent</title>
<polygon fill="#ffffb3" stroke="black" points="441.97,-187 272.03,-187 272.03,-151 441.97,-151 441.97,-187"/>
<text text-anchor="middle" x="357" y="-164.8" font-family="Times,serif" font-size="14.00">MessagesDemoComponent</text>
</g>
<!-- MessagesDemoModule -->
<g id="node2" class="node">
<title>MessagesDemoModule</title>
<polygon fill="#8dd3c7" stroke="black" points="328.18,-252 325.18,-256 304.18,-256 301.18,-252 179.82,-252 179.82,-216 328.18,-216 328.18,-252"/>
<text text-anchor="middle" x="254" y="-229.8" font-family="Times,serif" font-size="14.00">MessagesDemoModule</text>
</g>
<!-- MessagesDemoComponent&#45;&gt;MessagesDemoModule -->
<g id="edge1" class="edge">
<title>MessagesDemoComponent&#45;&gt;MessagesDemoModule</title>
<path fill="none" stroke="black" d="M300.05,-187.11C300.05,-187.11 300.05,-205.99 300.05,-205.99"/>
<polygon fill="black" stroke="black" points="296.55,-205.99 300.05,-215.99 303.55,-205.99 296.55,-205.99"/>
</g>
<!-- MessageService -->
<g id="node3" class="node">
<title>MessageService</title>
<ellipse fill="#fdb462" stroke="black" cx="357" cy="-104" rx="73.55" ry="18"/>
<text text-anchor="middle" x="357" y="-99.8" font-family="Times,serif" font-size="14.00">MessageService</text>
</g>
<!-- MessageService&#45;&gt;MessagesDemoComponent -->
<g id="edge2" class="edge">
<title>MessageService&#45;&gt;MessagesDemoComponent</title>
<path fill="none" stroke="black" d="M357,-122.11C357,-122.11 357,-140.99 357,-140.99"/>
<polygon fill="black" stroke="black" points="353.5,-140.99 357,-150.99 360.5,-140.99 353.5,-140.99"/>
</g>
<!-- MessagesDemoRoutingModule -->
<g id="node4" class="node">
<title>MessagesDemoRoutingModule</title>
<polygon fill="#8dd3c7" stroke="black" points="247.8,-187 244.8,-191 223.8,-191 220.8,-187 54.2,-187 54.2,-151 247.8,-151 247.8,-187"/>
<text text-anchor="middle" x="151" y="-164.8" font-family="Times,serif" font-size="14.00">MessagesDemoRoutingModule</text>
</g>
<!-- MessagesDemoRoutingModule&#45;&gt;MessagesDemoModule -->
<g id="edge3" class="edge">
<title>MessagesDemoRoutingModule&#45;&gt;MessagesDemoModule</title>
<path fill="none" stroke="black" d="M213.78,-187.11C213.78,-187.11 213.78,-205.99 213.78,-205.99"/>
<polygon fill="black" stroke="black" points="210.28,-205.99 213.78,-215.99 217.28,-205.99 210.28,-205.99"/>
</g>
</g>
</svg>
