<?xml version="1.0" encoding="UTF-8" standalone="no"?>
<!DOCTYPE svg PUBLIC "-//W3C//DTD SVG 1.1//EN"
 "http://www.w3.org/Graphics/SVG/1.1/DTD/svg11.dtd">
<!-- Generated by graphviz version 2.47.0 (20210316.0004)
 -->
<!-- Title: dependencies Pages: 1 -->
<svg width="600pt" height="276pt"
 viewBox="0.00 0.00 600.00 276.00" xmlns="http://www.w3.org/2000/svg" xmlns:xlink="http://www.w3.org/1999/xlink">
<g id="graph0" class="graph" transform="scale(1 1) rotate(0) translate(4 272)">
<title>dependencies</title>
<polygon fill="white" stroke="transparent" points="-4,4 -4,-272 596,-272 596,4 -4,4"/>
<text text-anchor="start" x="275.01" y="-42.4" font-family="Times-12" font-weight="bold" font-size="14.00">Legend</text>
<polygon fill="#ffffb3" stroke="transparent" points="62,-10 62,-30 82,-30 82,-10 62,-10"/>
<text text-anchor="start" x="85.63" y="-15.4" font-family="Times-12" font-size="14.00"> &#160;Declarations</text>
<polygon fill="#8dd3c7" stroke="transparent" points="175,-10 175,-30 195,-30 195,-10 175,-10"/>
<text text-anchor="start" x="198.73" y="-15.4" font-family="Times-12" font-size="14.00"> &#160;Module</text>
<polygon fill="#80b1d3" stroke="transparent" points="261,-10 261,-30 281,-30 281,-10 261,-10"/>
<text text-anchor="start" x="284.78" y="-15.4" font-family="Times-12" font-size="14.00"> &#160;Bootstrap</text>
<polygon fill="#fdb462" stroke="transparent" points="358,-10 358,-30 378,-30 378,-10 358,-10"/>
<text text-anchor="start" x="381.67" y="-15.4" font-family="Times-12" font-size="14.00"> &#160;Providers</text>
<polygon fill="#fb8072" stroke="transparent" points="454,-10 454,-30 474,-30 474,-10 454,-10"/>
<text text-anchor="start" x="477.73" y="-15.4" font-family="Times-12" font-size="14.00"> &#160;Exports</text>
<g id="clust1" class="cluster">
<title>cluster_TableDemoModule</title>
<polygon fill="none" stroke="black" stroke-dasharray="1,5" points="8,-70 8,-260 584,-260 584,-70 8,-70"/>
</g>
<g id="clust3" class="cluster">
<title>cluster_TableDemoModule_TableDemoComponent_providers</title>
<polygon fill="none" stroke="black" points="210,-78 210,-195 576,-195 576,-78 210,-78"/>
</g>
<g id="clust4" class="cluster">
<title>cluster_TableDemoModule_imports</title>
<polygon fill="none" stroke="black" points="16,-143 16,-195 202,-195 202,-143 16,-143"/>
</g>
<!-- TableDemoComponent -->
<g id="node1" class="node">
<title>TableDemoComponent</title>
<polygon fill="#ffffb3" stroke="black" points="383.92,-187 236.08,-187 236.08,-151 383.92,-151 383.92,-187"/>
<text text-anchor="middle" x="310" y="-164.8" font-family="Times,serif" font-size="14.00">TableDemoComponent</text>
</g>
<!-- TableDemoModule -->
<g id="node2" class="node">
<title>TableDemoModule</title>
<polygon fill="#8dd3c7" stroke="black" points="271.63,-252 268.63,-256 247.63,-256 244.63,-252 146.37,-252 146.37,-216 271.63,-216 271.63,-252"/>
<text text-anchor="middle" x="209" y="-229.8" font-family="Times,serif" font-size="14.00">TableDemoModule</text>
</g>
<!-- TableDemoComponent&#45;&gt;TableDemoModule -->
<g id="edge1" class="edge">
<title>TableDemoComponent&#45;&gt;TableDemoModule</title>
<path fill="none" stroke="black" d="M254.05,-187.11C254.05,-187.11 254.05,-205.99 254.05,-205.99"/>
<polygon fill="black" stroke="black" points="250.55,-205.99 254.05,-215.99 257.55,-205.99 250.55,-205.99"/>
</g>
<!-- MessageService -->
<g id="node3" class="node">
<title>MessageService</title>
<ellipse fill="#fdb462" stroke="black" cx="494" cy="-104" rx="73.55" ry="18"/>
<text text-anchor="middle" x="494" y="-99.8" font-family="Times,serif" font-size="14.00">MessageService</text>
</g>
<!-- MessageService&#45;&gt;TableDemoComponent -->
<g id="edge2" class="edge">
<title>MessageService&#45;&gt;TableDemoComponent</title>
<path fill="none" stroke="black" d="M494,-122.11C494,-141.34 494,-169 494,-169 494,-169 393.78,-169 393.78,-169"/>
<polygon fill="black" stroke="black" points="393.78,-165.5 383.78,-169 393.78,-172.5 393.78,-165.5"/>
</g>
<!-- ConfirmationService -->
<g id="node4" class="node">
<title>ConfirmationService</title>
<ellipse fill="#fdb462" stroke="black" cx="310" cy="-104" rx="92.05" ry="18"/>
<text text-anchor="middle" x="310" y="-99.8" font-family="Times,serif" font-size="14.00">ConfirmationService</text>
</g>
<!-- ConfirmationService&#45;&gt;TableDemoComponent -->
<g id="edge3" class="edge">
<title>ConfirmationService&#45;&gt;TableDemoComponent</title>
<path fill="none" stroke="black" d="M310,-122.11C310,-122.11 310,-140.99 310,-140.99"/>
<polygon fill="black" stroke="black" points="306.5,-140.99 310,-150.99 313.5,-140.99 306.5,-140.99"/>
</g>
<!-- TableDemoRoutingModule -->
<g id="node5" class="node">
<title>TableDemoRoutingModule</title>
<polygon fill="#8dd3c7" stroke="black" points="194.25,-187 191.25,-191 170.25,-191 167.25,-187 23.75,-187 23.75,-151 194.25,-151 194.25,-187"/>
<text text-anchor="middle" x="109" y="-164.8" font-family="Times,serif" font-size="14.00">TableDemoRoutingModule</text>
</g>
<!-- TableDemoRoutingModule&#45;&gt;TableDemoModule -->
<g id="edge4" class="edge">
<title>TableDemoRoutingModule&#45;&gt;TableDemoModule</title>
<path fill="none" stroke="black" d="M170.28,-187.11C170.28,-187.11 170.28,-205.99 170.28,-205.99"/>
<polygon fill="black" stroke="black" points="166.78,-205.99 170.28,-215.99 173.78,-205.99 166.78,-205.99"/>
</g>
</g>
</svg>
