<?xml version="1.0" encoding="UTF-8" standalone="no"?>
<!DOCTYPE svg PUBLIC "-//W3C//DTD SVG 1.1//EN"
 "http://www.w3.org/Graphics/SVG/1.1/DTD/svg11.dtd">
<!-- Generated by graphviz version 2.47.0 (20210316.0004)
 -->
<!-- Title: dependencies Pages: 1 -->
<svg width="973pt" height="284pt"
 viewBox="0.00 0.00 973.00 284.00" xmlns="http://www.w3.org/2000/svg" xmlns:xlink="http://www.w3.org/1999/xlink">
<g id="graph0" class="graph" transform="scale(1 1) rotate(0) translate(4 280)">
<title>dependencies</title>
<polygon fill="white" stroke="transparent" points="-4,4 -4,-280 969,-280 969,4 -4,4"/>
<text text-anchor="start" x="461.51" y="-42.4" font-family="Times-12" font-weight="bold" font-size="14.00">Legend</text>
<polygon fill="#ffffb3" stroke="transparent" points="248.5,-10 248.5,-30 268.5,-30 268.5,-10 248.5,-10"/>
<text text-anchor="start" x="272.13" y="-15.4" font-family="Times-12" font-size="14.00"> &#160;Declarations</text>
<polygon fill="#8dd3c7" stroke="transparent" points="361.5,-10 361.5,-30 381.5,-30 381.5,-10 361.5,-10"/>
<text text-anchor="start" x="385.23" y="-15.4" font-family="Times-12" font-size="14.00"> &#160;Module</text>
<polygon fill="#80b1d3" stroke="transparent" points="447.5,-10 447.5,-30 467.5,-30 467.5,-10 447.5,-10"/>
<text text-anchor="start" x="471.28" y="-15.4" font-family="Times-12" font-size="14.00"> &#160;Bootstrap</text>
<polygon fill="#fdb462" stroke="transparent" points="544.5,-10 544.5,-30 564.5,-30 564.5,-10 544.5,-10"/>
<text text-anchor="start" x="568.17" y="-15.4" font-family="Times-12" font-size="14.00"> &#160;Providers</text>
<polygon fill="#fb8072" stroke="transparent" points="640.5,-10 640.5,-30 660.5,-30 660.5,-10 640.5,-10"/>
<text text-anchor="start" x="664.23" y="-15.4" font-family="Times-12" font-size="14.00"> &#160;Exports</text>
<g id="clust1" class="cluster">
<title>cluster_AppModule</title>
<polygon fill="none" stroke="black" stroke-dasharray="1,5" points="8,-70 8,-268 957,-268 957,-70 8,-70"/>
</g>
<g id="clust2" class="cluster">
<title>cluster_AppModule_declarations</title>
<polygon fill="none" stroke="black" points="694,-78 694,-130 949,-130 949,-78 694,-78"/>
</g>
<g id="clust5" class="cluster">
<title>cluster_AppModule_imports</title>
<polygon fill="none" stroke="black" points="16,-78 16,-130 686,-130 686,-78 16,-78"/>
</g>
<g id="clust7" class="cluster">
<title>cluster_AppModule_bootstrap</title>
<polygon fill="none" stroke="black" points="445,-208 445,-260 569,-260 569,-208 445,-208"/>
</g>
<!-- AppComponent -->
<g id="node1" class="node">
<title>AppComponent</title>
<polygon fill="#ffffb3" stroke="black" points="940.94,-122 835.06,-122 835.06,-86 940.94,-86 940.94,-122"/>
<text text-anchor="middle" x="888" y="-99.8" font-family="Times,serif" font-size="14.00">AppComponent</text>
</g>
<!-- AppModule -->
<g id="node3" class="node">
<title>AppModule</title>
<polygon fill="#8dd3c7" stroke="black" points="548.66,-187 545.66,-191 524.66,-191 521.66,-187 465.34,-187 465.34,-151 548.66,-151 548.66,-187"/>
<text text-anchor="middle" x="507" y="-164.8" font-family="Times,serif" font-size="14.00">AppModule</text>
</g>
<!-- AppComponent&#45;&gt;AppModule -->
<g id="edge1" class="edge">
<title>AppComponent&#45;&gt;AppModule</title>
<path fill="none" stroke="black" d="M888,-122.29C888,-144.21 888,-178 888,-178 888,-178 558.86,-178 558.86,-178"/>
<polygon fill="black" stroke="black" points="558.86,-174.5 548.86,-178 558.86,-181.5 558.86,-174.5"/>
</g>
<!-- HomeComponent -->
<g id="node2" class="node">
<title>HomeComponent</title>
<polygon fill="#ffffb3" stroke="black" points="817.55,-122 702.45,-122 702.45,-86 817.55,-86 817.55,-122"/>
<text text-anchor="middle" x="760" y="-99.8" font-family="Times,serif" font-size="14.00">HomeComponent</text>
</g>
<!-- HomeComponent&#45;&gt;AppModule -->
<g id="edge2" class="edge">
<title>HomeComponent&#45;&gt;AppModule</title>
<path fill="none" stroke="black" d="M760,-122.11C760,-141.34 760,-169 760,-169 760,-169 558.78,-169 558.78,-169"/>
<polygon fill="black" stroke="black" points="558.78,-165.5 548.78,-169 558.78,-172.5 558.78,-165.5"/>
</g>
<!-- AppComponent  -->
<g id="node9" class="node">
<title>AppComponent </title>
<polygon fill="#80b1d3" stroke="black" points="561.44,-252 452.56,-252 452.56,-216 561.44,-216 561.44,-252"/>
<text text-anchor="middle" x="507" y="-229.8" font-family="Times,serif" font-size="14.00">AppComponent </text>
</g>
<!-- AppModule&#45;&gt;AppComponent  -->
<g id="edge8" class="edge">
<title>AppModule&#45;&gt;AppComponent </title>
<path fill="none" stroke="black" stroke-dasharray="1,5" d="M507,-187.11C507,-187.11 507,-205.99 507,-205.99"/>
<polygon fill="black" stroke="black" points="503.5,-205.99 507,-215.99 510.5,-205.99 503.5,-205.99"/>
</g>
<!-- !environment -->
<g id="node4" class="node">
<title>!environment</title>
<polygon fill="#8dd3c7" stroke="black" points="677.92,-122 674.92,-126 653.92,-126 650.92,-122 586.08,-122 586.08,-86 677.92,-86 677.92,-122"/>
<text text-anchor="middle" x="632" y="-99.8" font-family="Times,serif" font-size="14.00">!environment</text>
</g>
<!-- !environment&#45;&gt;AppModule -->
<g id="edge3" class="edge">
<title>!environment&#45;&gt;AppModule</title>
<path fill="none" stroke="black" d="M632,-122.03C632,-138.4 632,-160 632,-160 632,-160 558.97,-160 558.97,-160"/>
<polygon fill="black" stroke="black" points="558.97,-156.5 548.97,-160 558.97,-163.5 558.97,-156.5"/>
</g>
<!-- AppLayoutModule -->
<g id="node5" class="node">
<title>AppLayoutModule</title>
<polygon fill="#8dd3c7" stroke="black" points="568.81,-122 565.81,-126 544.81,-126 541.81,-122 445.19,-122 445.19,-86 568.81,-86 568.81,-122"/>
<text text-anchor="middle" x="507" y="-99.8" font-family="Times,serif" font-size="14.00">AppLayoutModule</text>
</g>
<!-- AppLayoutModule&#45;&gt;AppModule -->
<g id="edge4" class="edge">
<title>AppLayoutModule&#45;&gt;AppModule</title>
<path fill="none" stroke="black" d="M507,-122.11C507,-122.11 507,-140.99 507,-140.99"/>
<polygon fill="black" stroke="black" points="503.5,-140.99 507,-150.99 510.5,-140.99 503.5,-140.99"/>
</g>
<!-- AppRoutingModule -->
<g id="node6" class="node">
<title>AppRoutingModule</title>
<polygon fill="#8dd3c7" stroke="black" points="427.27,-122 424.27,-126 403.27,-126 400.27,-122 298.73,-122 298.73,-86 427.27,-86 427.27,-122"/>
<text text-anchor="middle" x="363" y="-99.8" font-family="Times,serif" font-size="14.00">AppRoutingModule</text>
</g>
<!-- AppRoutingModule&#45;&gt;AppModule -->
<g id="edge5" class="edge">
<title>AppRoutingModule&#45;&gt;AppModule</title>
<path fill="none" stroke="black" d="M363,-122.03C363,-138.4 363,-160 363,-160 363,-160 454.96,-160 454.96,-160"/>
<polygon fill="black" stroke="black" points="454.96,-163.5 464.96,-160 454.96,-156.5 454.96,-163.5"/>
</g>
<!-- AuthModule -->
<g id="node7" class="node">
<title>AuthModule</title>
<polygon fill="#8dd3c7" stroke="black" points="280.55,-122 277.55,-126 256.55,-126 253.55,-122 193.45,-122 193.45,-86 280.55,-86 280.55,-122"/>
<text text-anchor="middle" x="237" y="-99.8" font-family="Times,serif" font-size="14.00">AuthModule</text>
</g>
<!-- AuthModule&#45;&gt;AppModule -->
<g id="edge6" class="edge">
<title>AuthModule&#45;&gt;AppModule</title>
<path fill="none" stroke="black" d="M237,-122.11C237,-141.34 237,-169 237,-169 237,-169 455.11,-169 455.11,-169"/>
<polygon fill="black" stroke="black" points="455.11,-172.5 465.11,-169 455.11,-165.5 455.11,-172.5"/>
</g>
<!-- SharedMaterialsModule -->
<g id="node8" class="node">
<title>SharedMaterialsModule</title>
<polygon fill="#8dd3c7" stroke="black" points="175.79,-122 172.79,-126 151.79,-126 148.79,-122 24.21,-122 24.21,-86 175.79,-86 175.79,-122"/>
<text text-anchor="middle" x="100" y="-99.8" font-family="Times,serif" font-size="14.00">SharedMaterialsModule</text>
</g>
<!-- SharedMaterialsModule&#45;&gt;AppModule -->
<g id="edge7" class="edge">
<title>SharedMaterialsModule&#45;&gt;AppModule</title>
<path fill="none" stroke="black" d="M100,-122.29C100,-144.21 100,-178 100,-178 100,-178 454.98,-178 454.98,-178"/>
<polygon fill="black" stroke="black" points="454.98,-181.5 464.98,-178 454.98,-174.5 454.98,-181.5"/>
</g>
</g>
</svg>
