<?xml version="1.0" encoding="UTF-8" standalone="no"?>
<!DOCTYPE svg PUBLIC "-//W3C//DTD SVG 1.1//EN"
 "http://www.w3.org/Graphics/SVG/1.1/DTD/svg11.dtd">
<!-- Generated by graphviz version 2.47.0 (20210316.0004)
 -->
<!-- Title: dependencies Pages: 1 -->
<svg width="504pt" height="211pt"
 viewBox="0.00 0.00 504.00 211.00" xmlns="http://www.w3.org/2000/svg" xmlns:xlink="http://www.w3.org/1999/xlink">
<g id="graph0" class="graph" transform="scale(1 1) rotate(0) translate(4 207)">
<title>dependencies</title>
<polygon fill="white" stroke="transparent" points="-4,4 -4,-207 500,-207 500,4 -4,4"/>
<text text-anchor="start" x="227.01" y="-42.4" font-family="Times-12" font-weight="bold" font-size="14.00">Legend</text>
<polygon fill="#ffffb3" stroke="transparent" points="14,-10 14,-30 34,-30 34,-10 14,-10"/>
<text text-anchor="start" x="37.63" y="-15.4" font-family="Times-12" font-size="14.00"> &#160;Declarations</text>
<polygon fill="#8dd3c7" stroke="transparent" points="127,-10 127,-30 147,-30 147,-10 127,-10"/>
<text text-anchor="start" x="150.73" y="-15.4" font-family="Times-12" font-size="14.00"> &#160;Module</text>
<polygon fill="#80b1d3" stroke="transparent" points="213,-10 213,-30 233,-30 233,-10 213,-10"/>
<text text-anchor="start" x="236.78" y="-15.4" font-family="Times-12" font-size="14.00"> &#160;Bootstrap</text>
<polygon fill="#fdb462" stroke="transparent" points="310,-10 310,-30 330,-30 330,-10 310,-10"/>
<text text-anchor="start" x="333.67" y="-15.4" font-family="Times-12" font-size="14.00"> &#160;Providers</text>
<polygon fill="#fb8072" stroke="transparent" points="406,-10 406,-30 426,-30 426,-10 406,-10"/>
<text text-anchor="start" x="429.73" y="-15.4" font-family="Times-12" font-size="14.00"> &#160;Exports</text>
<g id="clust1" class="cluster">
<title>cluster_ProductoverviewModule</title>
<polygon fill="none" stroke="black" stroke-dasharray="1,5" points="30,-70 30,-195 466,-195 466,-70 30,-70"/>
</g>
<g id="clust4" class="cluster">
<title>cluster_ProductoverviewModule_imports</title>
<polygon fill="none" stroke="black" points="242,-78 242,-130 458,-130 458,-78 242,-78"/>
</g>
<g id="clust2" class="cluster">
<title>cluster_ProductoverviewModule_declarations</title>
<polygon fill="none" stroke="black" points="38,-78 38,-130 234,-130 234,-78 38,-78"/>
</g>
<!-- ProductOverviewComponent -->
<g id="node1" class="node">
<title>ProductOverviewComponent</title>
<polygon fill="#ffffb3" stroke="black" points="226.07,-122 45.93,-122 45.93,-86 226.07,-86 226.07,-122"/>
<text text-anchor="middle" x="136" y="-99.8" font-family="Times,serif" font-size="14.00">ProductOverviewComponent</text>
</g>
<!-- ProductoverviewModule -->
<g id="node2" class="node">
<title>ProductoverviewModule</title>
<polygon fill="#8dd3c7" stroke="black" points="320.69,-187 317.69,-191 296.69,-191 293.69,-187 165.31,-187 165.31,-151 320.69,-151 320.69,-187"/>
<text text-anchor="middle" x="243" y="-164.8" font-family="Times,serif" font-size="14.00">ProductoverviewModule</text>
</g>
<!-- ProductOverviewComponent&#45;&gt;ProductoverviewModule -->
<g id="edge1" class="edge">
<title>ProductOverviewComponent&#45;&gt;ProductoverviewModule</title>
<path fill="none" stroke="black" d="M195.72,-122.11C195.72,-122.11 195.72,-140.99 195.72,-140.99"/>
<polygon fill="black" stroke="black" points="192.22,-140.99 195.72,-150.99 199.22,-140.99 192.22,-140.99"/>
</g>
<!-- ProductoverviewRoutingModule -->
<g id="node3" class="node">
<title>ProductoverviewRoutingModule</title>
<polygon fill="#8dd3c7" stroke="black" points="450.3,-122 447.3,-126 426.3,-126 423.3,-122 249.7,-122 249.7,-86 450.3,-86 450.3,-122"/>
<text text-anchor="middle" x="350" y="-99.8" font-family="Times,serif" font-size="14.00">ProductoverviewRoutingModule</text>
</g>
<!-- ProductoverviewRoutingModule&#45;&gt;ProductoverviewModule -->
<g id="edge2" class="edge">
<title>ProductoverviewRoutingModule&#45;&gt;ProductoverviewModule</title>
<path fill="none" stroke="black" d="M285.22,-122.11C285.22,-122.11 285.22,-140.99 285.22,-140.99"/>
<polygon fill="black" stroke="black" points="281.72,-140.99 285.22,-150.99 288.72,-140.99 281.72,-140.99"/>
</g>
</g>
</svg>
