<?xml version="1.0" encoding="UTF-8" standalone="no"?>
<!DOCTYPE svg PUBLIC "-//W3C//DTD SVG 1.1//EN"
 "http://www.w3.org/Graphics/SVG/1.1/DTD/svg11.dtd">
<!-- Generated by graphviz version 2.47.0 (20210316.0004)
 -->
<!-- Title: dependencies Pages: 1 -->
<svg width="504pt" height="211pt"
 viewBox="0.00 0.00 504.00 211.00" xmlns="http://www.w3.org/2000/svg" xmlns:xlink="http://www.w3.org/1999/xlink">
<g id="graph0" class="graph" transform="scale(1 1) rotate(0) translate(4 207)">
<title>dependencies</title>
<polygon fill="white" stroke="transparent" points="-4,4 -4,-207 500,-207 500,4 -4,4"/>
<text text-anchor="start" x="227.01" y="-42.4" font-family="Times-12" font-weight="bold" font-size="14.00">Legend</text>
<polygon fill="#ffffb3" stroke="transparent" points="14,-10 14,-30 34,-30 34,-10 14,-10"/>
<text text-anchor="start" x="37.63" y="-15.4" font-family="Times-12" font-size="14.00"> &#160;Declarations</text>
<polygon fill="#8dd3c7" stroke="transparent" points="127,-10 127,-30 147,-30 147,-10 127,-10"/>
<text text-anchor="start" x="150.73" y="-15.4" font-family="Times-12" font-size="14.00"> &#160;Module</text>
<polygon fill="#80b1d3" stroke="transparent" points="213,-10 213,-30 233,-30 233,-10 213,-10"/>
<text text-anchor="start" x="236.78" y="-15.4" font-family="Times-12" font-size="14.00"> &#160;Bootstrap</text>
<polygon fill="#fdb462" stroke="transparent" points="310,-10 310,-30 330,-30 330,-10 310,-10"/>
<text text-anchor="start" x="333.67" y="-15.4" font-family="Times-12" font-size="14.00"> &#160;Providers</text>
<polygon fill="#fb8072" stroke="transparent" points="406,-10 406,-30 426,-30 426,-10 406,-10"/>
<text text-anchor="start" x="429.73" y="-15.4" font-family="Times-12" font-size="14.00"> &#160;Exports</text>
<g id="clust1" class="cluster">
<title>cluster_InvoiceModule</title>
<polygon fill="none" stroke="black" stroke-dasharray="1,5" points="85,-70 85,-195 411,-195 411,-70 85,-70"/>
</g>
<g id="clust2" class="cluster">
<title>cluster_InvoiceModule_declarations</title>
<polygon fill="none" stroke="black" points="263,-78 263,-130 403,-130 403,-78 263,-78"/>
</g>
<g id="clust4" class="cluster">
<title>cluster_InvoiceModule_imports</title>
<polygon fill="none" stroke="black" points="93,-78 93,-130 255,-130 255,-78 93,-78"/>
</g>
<!-- InvoiceComponent -->
<g id="node1" class="node">
<title>InvoiceComponent</title>
<polygon fill="#ffffb3" stroke="black" points="394.81,-122 271.19,-122 271.19,-86 394.81,-86 394.81,-122"/>
<text text-anchor="middle" x="333" y="-99.8" font-family="Times,serif" font-size="14.00">InvoiceComponent</text>
</g>
<!-- InvoiceModule -->
<g id="node2" class="node">
<title>InvoiceModule</title>
<polygon fill="#8dd3c7" stroke="black" points="303.53,-187 300.53,-191 279.53,-191 276.53,-187 202.47,-187 202.47,-151 303.53,-151 303.53,-187"/>
<text text-anchor="middle" x="253" y="-164.8" font-family="Times,serif" font-size="14.00">InvoiceModule</text>
</g>
<!-- InvoiceComponent&#45;&gt;InvoiceModule -->
<g id="edge1" class="edge">
<title>InvoiceComponent&#45;&gt;InvoiceModule</title>
<path fill="none" stroke="black" d="M287.55,-122.11C287.55,-122.11 287.55,-140.99 287.55,-140.99"/>
<polygon fill="black" stroke="black" points="284.05,-140.99 287.55,-150.99 291.05,-140.99 284.05,-140.99"/>
</g>
<!-- InvoiceRoutingModule -->
<g id="node3" class="node">
<title>InvoiceRoutingModule</title>
<polygon fill="#8dd3c7" stroke="black" points="247.15,-122 244.15,-126 223.15,-126 220.15,-122 100.85,-122 100.85,-86 247.15,-86 247.15,-122"/>
<text text-anchor="middle" x="174" y="-99.8" font-family="Times,serif" font-size="14.00">InvoiceRoutingModule</text>
</g>
<!-- InvoiceRoutingModule&#45;&gt;InvoiceModule -->
<g id="edge2" class="edge">
<title>InvoiceRoutingModule&#45;&gt;InvoiceModule</title>
<path fill="none" stroke="black" d="M224.78,-122.11C224.78,-122.11 224.78,-140.99 224.78,-140.99"/>
<polygon fill="black" stroke="black" points="221.28,-140.99 224.78,-150.99 228.28,-140.99 221.28,-140.99"/>
</g>
</g>
</svg>
