<?xml version="1.0" encoding="UTF-8" standalone="no"?>
<!DOCTYPE svg PUBLIC "-//W3C//DTD SVG 1.1//EN"
 "http://www.w3.org/Graphics/SVG/1.1/DTD/svg11.dtd">
<!-- Generated by graphviz version 2.47.0 (20210316.0004)
 -->
<!-- Title: dependencies Pages: 1 -->
<svg width="560pt" height="211pt"
 viewBox="0.00 0.00 560.00 211.00" xmlns="http://www.w3.org/2000/svg" xmlns:xlink="http://www.w3.org/1999/xlink">
<g id="graph0" class="graph" transform="scale(1 1) rotate(0) translate(4 207)">
<title>dependencies</title>
<polygon fill="white" stroke="transparent" points="-4,4 -4,-207 556,-207 556,4 -4,4"/>
<text text-anchor="start" x="255.01" y="-42.4" font-family="Times-12" font-weight="bold" font-size="14.00">Legend</text>
<polygon fill="#ffffb3" stroke="transparent" points="42,-10 42,-30 62,-30 62,-10 42,-10"/>
<text text-anchor="start" x="65.63" y="-15.4" font-family="Times-12" font-size="14.00"> &#160;Declarations</text>
<polygon fill="#8dd3c7" stroke="transparent" points="155,-10 155,-30 175,-30 175,-10 155,-10"/>
<text text-anchor="start" x="178.73" y="-15.4" font-family="Times-12" font-size="14.00"> &#160;Module</text>
<polygon fill="#80b1d3" stroke="transparent" points="241,-10 241,-30 261,-30 261,-10 241,-10"/>
<text text-anchor="start" x="264.78" y="-15.4" font-family="Times-12" font-size="14.00"> &#160;Bootstrap</text>
<polygon fill="#fdb462" stroke="transparent" points="338,-10 338,-30 358,-30 358,-10 338,-10"/>
<text text-anchor="start" x="361.67" y="-15.4" font-family="Times-12" font-size="14.00"> &#160;Providers</text>
<polygon fill="#fb8072" stroke="transparent" points="434,-10 434,-30 454,-30 454,-10 434,-10"/>
<text text-anchor="start" x="457.73" y="-15.4" font-family="Times-12" font-size="14.00"> &#160;Exports</text>
<g id="clust1" class="cluster">
<title>cluster_AccessdeniedModule</title>
<polygon fill="none" stroke="black" stroke-dasharray="1,5" points="8,-70 8,-195 544,-195 544,-70 8,-70"/>
</g>
<g id="clust2" class="cluster">
<title>cluster_AccessdeniedModule_declarations</title>
<polygon fill="none" stroke="black" points="362,-78 362,-130 536,-130 536,-78 362,-78"/>
</g>
<g id="clust4" class="cluster">
<title>cluster_AccessdeniedModule_imports</title>
<polygon fill="none" stroke="black" points="16,-78 16,-130 354,-130 354,-78 16,-78"/>
</g>
<!-- AccessdeniedComponent -->
<g id="node1" class="node">
<title>AccessdeniedComponent</title>
<polygon fill="#ffffb3" stroke="black" points="528.29,-122 369.71,-122 369.71,-86 528.29,-86 528.29,-122"/>
<text text-anchor="middle" x="449" y="-99.8" font-family="Times,serif" font-size="14.00">AccessdeniedComponent</text>
</g>
<!-- AccessdeniedModule -->
<g id="node2" class="node">
<title>AccessdeniedModule</title>
<polygon fill="#8dd3c7" stroke="black" points="323.01,-187 320.01,-191 299.01,-191 296.01,-187 186.99,-187 186.99,-151 323.01,-151 323.01,-187"/>
<text text-anchor="middle" x="255" y="-164.8" font-family="Times,serif" font-size="14.00">AccessdeniedModule</text>
</g>
<!-- AccessdeniedComponent&#45;&gt;AccessdeniedModule -->
<g id="edge1" class="edge">
<title>AccessdeniedComponent&#45;&gt;AccessdeniedModule</title>
<path fill="none" stroke="black" d="M449,-122.11C449,-141.34 449,-169 449,-169 449,-169 333.12,-169 333.12,-169"/>
<polygon fill="black" stroke="black" points="333.12,-165.5 323.12,-169 333.12,-172.5 333.12,-165.5"/>
</g>
<!-- AccessdeniedRoutingModule -->
<g id="node3" class="node">
<title>AccessdeniedRoutingModule</title>
<polygon fill="#8dd3c7" stroke="black" points="345.63,-122 342.63,-126 321.63,-126 318.63,-122 164.37,-122 164.37,-86 345.63,-86 345.63,-122"/>
<text text-anchor="middle" x="255" y="-99.8" font-family="Times,serif" font-size="14.00">AccessdeniedRoutingModule</text>
</g>
<!-- AccessdeniedRoutingModule&#45;&gt;AccessdeniedModule -->
<g id="edge2" class="edge">
<title>AccessdeniedRoutingModule&#45;&gt;AccessdeniedModule</title>
<path fill="none" stroke="black" d="M255,-122.11C255,-122.11 255,-140.99 255,-140.99"/>
<polygon fill="black" stroke="black" points="251.5,-140.99 255,-150.99 258.5,-140.99 251.5,-140.99"/>
</g>
<!-- AppConfigModule -->
<g id="node4" class="node">
<title>AppConfigModule</title>
<polygon fill="#8dd3c7" stroke="black" points="146.05,-122 143.05,-126 122.05,-126 119.05,-122 23.95,-122 23.95,-86 146.05,-86 146.05,-122"/>
<text text-anchor="middle" x="85" y="-99.8" font-family="Times,serif" font-size="14.00">AppConfigModule</text>
</g>
<!-- AppConfigModule&#45;&gt;AccessdeniedModule -->
<g id="edge3" class="edge">
<title>AppConfigModule&#45;&gt;AccessdeniedModule</title>
<path fill="none" stroke="black" d="M85,-122.11C85,-141.34 85,-169 85,-169 85,-169 176.83,-169 176.83,-169"/>
<polygon fill="black" stroke="black" points="176.83,-172.5 186.83,-169 176.83,-165.5 176.83,-172.5"/>
</g>
</g>
</svg>
