<?xml version="1.0" encoding="UTF-8" standalone="no"?>
<!DOCTYPE svg PUBLIC "-//W3C//DTD SVG 1.1//EN"
 "http://www.w3.org/Graphics/SVG/1.1/DTD/svg11.dtd">
<!-- Generated by graphviz version 2.47.0 (20210316.0004)
 -->
<!-- Title: dependencies Pages: 1 -->
<svg width="677pt" height="211pt"
 viewBox="0.00 0.00 677.00 211.00" xmlns="http://www.w3.org/2000/svg" xmlns:xlink="http://www.w3.org/1999/xlink">
<g id="graph0" class="graph" transform="scale(1 1) rotate(0) translate(4 207)">
<title>dependencies</title>
<polygon fill="white" stroke="transparent" points="-4,4 -4,-207 673,-207 673,4 -4,4"/>
<text text-anchor="start" x="313.51" y="-42.4" font-family="Times-12" font-weight="bold" font-size="14.00">Legend</text>
<polygon fill="#ffffb3" stroke="transparent" points="100.5,-10 100.5,-30 120.5,-30 120.5,-10 100.5,-10"/>
<text text-anchor="start" x="124.13" y="-15.4" font-family="Times-12" font-size="14.00"> &#160;Declarations</text>
<polygon fill="#8dd3c7" stroke="transparent" points="213.5,-10 213.5,-30 233.5,-30 233.5,-10 213.5,-10"/>
<text text-anchor="start" x="237.23" y="-15.4" font-family="Times-12" font-size="14.00"> &#160;Module</text>
<polygon fill="#80b1d3" stroke="transparent" points="299.5,-10 299.5,-30 319.5,-30 319.5,-10 299.5,-10"/>
<text text-anchor="start" x="323.28" y="-15.4" font-family="Times-12" font-size="14.00"> &#160;Bootstrap</text>
<polygon fill="#fdb462" stroke="transparent" points="396.5,-10 396.5,-30 416.5,-30 416.5,-10 396.5,-10"/>
<text text-anchor="start" x="420.17" y="-15.4" font-family="Times-12" font-size="14.00"> &#160;Providers</text>
<polygon fill="#fb8072" stroke="transparent" points="492.5,-10 492.5,-30 512.5,-30 512.5,-10 492.5,-10"/>
<text text-anchor="start" x="516.23" y="-15.4" font-family="Times-12" font-size="14.00"> &#160;Exports</text>
<g id="clust1" class="cluster">
<title>cluster_FileAppModule</title>
<polygon fill="none" stroke="black" stroke-dasharray="1,5" points="8,-70 8,-195 661,-195 661,-70 8,-70"/>
</g>
<g id="clust5" class="cluster">
<title>cluster_FileAppModule_imports</title>
<polygon fill="none" stroke="black" points="487,-78 487,-130 653,-130 653,-78 487,-78"/>
</g>
<g id="clust2" class="cluster">
<title>cluster_FileAppModule_declarations</title>
<polygon fill="none" stroke="black" points="184,-78 184,-130 479,-130 479,-78 184,-78"/>
</g>
<g id="clust8" class="cluster">
<title>cluster_FileAppModule_providers</title>
<polygon fill="none" stroke="black" points="16,-78 16,-130 176,-130 176,-78 16,-78"/>
</g>
<!-- FileAppComponent -->
<g id="node1" class="node">
<title>FileAppComponent</title>
<polygon fill="#ffffb3" stroke="black" points="470.72,-122 343.28,-122 343.28,-86 470.72,-86 470.72,-122"/>
<text text-anchor="middle" x="407" y="-99.8" font-family="Times,serif" font-size="14.00">FileAppComponent</text>
</g>
<!-- FileAppModule -->
<g id="node3" class="node">
<title>FileAppModule</title>
<polygon fill="#8dd3c7" stroke="black" points="385.94,-187 382.94,-191 361.94,-191 358.94,-187 280.06,-187 280.06,-151 385.94,-151 385.94,-187"/>
<text text-anchor="middle" x="333" y="-164.8" font-family="Times,serif" font-size="14.00">FileAppModule</text>
</g>
<!-- FileAppComponent&#45;&gt;FileAppModule -->
<g id="edge1" class="edge">
<title>FileAppComponent&#45;&gt;FileAppModule</title>
<path fill="none" stroke="black" d="M364.55,-122.11C364.55,-122.11 364.55,-140.99 364.55,-140.99"/>
<polygon fill="black" stroke="black" points="361.05,-140.99 364.55,-150.99 368.05,-140.99 361.05,-140.99"/>
</g>
<!-- UploaderComponent -->
<g id="node2" class="node">
<title>UploaderComponent</title>
<polygon fill="#ffffb3" stroke="black" points="325.92,-122 192.08,-122 192.08,-86 325.92,-86 325.92,-122"/>
<text text-anchor="middle" x="259" y="-99.8" font-family="Times,serif" font-size="14.00">UploaderComponent</text>
</g>
<!-- UploaderComponent&#45;&gt;FileAppModule -->
<g id="edge2" class="edge">
<title>UploaderComponent&#45;&gt;FileAppModule</title>
<path fill="none" stroke="black" d="M303,-122.11C303,-122.11 303,-140.99 303,-140.99"/>
<polygon fill="black" stroke="black" points="299.5,-140.99 303,-150.99 306.5,-140.99 299.5,-140.99"/>
</g>
<!-- FileAppRoutingModule -->
<g id="node4" class="node">
<title>FileAppRoutingModule</title>
<polygon fill="#8dd3c7" stroke="black" points="645.05,-122 642.05,-126 621.05,-126 618.05,-122 494.95,-122 494.95,-86 645.05,-86 645.05,-122"/>
<text text-anchor="middle" x="570" y="-99.8" font-family="Times,serif" font-size="14.00">FileAppRoutingModule</text>
</g>
<!-- FileAppRoutingModule&#45;&gt;FileAppModule -->
<g id="edge3" class="edge">
<title>FileAppRoutingModule&#45;&gt;FileAppModule</title>
<path fill="none" stroke="black" d="M570,-122.11C570,-141.34 570,-169 570,-169 570,-169 395.89,-169 395.89,-169"/>
<polygon fill="black" stroke="black" points="395.89,-165.5 385.89,-169 395.89,-172.5 395.89,-165.5"/>
</g>
<!-- FileAppService -->
<g id="node5" class="node">
<title>FileAppService</title>
<ellipse fill="#fdb462" stroke="black" cx="96" cy="-104" rx="71.79" ry="18"/>
<text text-anchor="middle" x="96" y="-99.8" font-family="Times,serif" font-size="14.00">FileAppService</text>
</g>
<!-- FileAppService&#45;&gt;FileAppModule -->
<g id="edge4" class="edge">
<title>FileAppService&#45;&gt;FileAppModule</title>
<path fill="none" stroke="black" d="M96,-122.11C96,-141.34 96,-169 96,-169 96,-169 270.11,-169 270.11,-169"/>
<polygon fill="black" stroke="black" points="270.11,-172.5 280.11,-169 270.11,-165.5 270.11,-172.5"/>
</g>
</g>
</svg>
