<?xml version="1.0" encoding="UTF-8" standalone="no"?>
<!DOCTYPE svg PUBLIC "-//W3C//DTD SVG 1.1//EN"
 "http://www.w3.org/Graphics/SVG/1.1/DTD/svg11.dtd">
<!-- Generated by graphviz version 2.47.0 (20210316.0004)
 -->
<!-- Title: dependencies Pages: 1 -->
<svg width="504pt" height="276pt"
 viewBox="0.00 0.00 504.00 276.00" xmlns="http://www.w3.org/2000/svg" xmlns:xlink="http://www.w3.org/1999/xlink">
<g id="graph0" class="graph" transform="scale(1 1) rotate(0) translate(4 272)">
<title>dependencies</title>
<polygon fill="white" stroke="transparent" points="-4,4 -4,-272 500,-272 500,4 -4,4"/>
<text text-anchor="start" x="227.01" y="-42.4" font-family="Times-12" font-weight="bold" font-size="14.00">Legend</text>
<polygon fill="#ffffb3" stroke="transparent" points="14,-10 14,-30 34,-30 34,-10 14,-10"/>
<text text-anchor="start" x="37.63" y="-15.4" font-family="Times-12" font-size="14.00"> &#160;Declarations</text>
<polygon fill="#8dd3c7" stroke="transparent" points="127,-10 127,-30 147,-30 147,-10 127,-10"/>
<text text-anchor="start" x="150.73" y="-15.4" font-family="Times-12" font-size="14.00"> &#160;Module</text>
<polygon fill="#80b1d3" stroke="transparent" points="213,-10 213,-30 233,-30 233,-10 213,-10"/>
<text text-anchor="start" x="236.78" y="-15.4" font-family="Times-12" font-size="14.00"> &#160;Bootstrap</text>
<polygon fill="#fdb462" stroke="transparent" points="310,-10 310,-30 330,-30 330,-10 310,-10"/>
<text text-anchor="start" x="333.67" y="-15.4" font-family="Times-12" font-size="14.00"> &#160;Providers</text>
<polygon fill="#fb8072" stroke="transparent" points="406,-10 406,-30 426,-30 426,-10 406,-10"/>
<text text-anchor="start" x="429.73" y="-15.4" font-family="Times-12" font-size="14.00"> &#160;Exports</text>
<g id="clust1" class="cluster">
<title>cluster_FileDemoModule</title>
<polygon fill="none" stroke="black" stroke-dasharray="1,5" points="66,-70 66,-260 430,-260 430,-70 66,-70"/>
</g>
<g id="clust3" class="cluster">
<title>cluster_FileDemoModule_FileDemoComponent_providers</title>
<polygon fill="none" stroke="black" points="258,-78 258,-195 422,-195 422,-78 258,-78"/>
</g>
<g id="clust4" class="cluster">
<title>cluster_FileDemoModule_imports</title>
<polygon fill="none" stroke="black" points="74,-143 74,-195 250,-195 250,-143 74,-143"/>
</g>
<!-- FileDemoComponent -->
<g id="node1" class="node">
<title>FileDemoComponent</title>
<polygon fill="#ffffb3" stroke="black" points="405.82,-187 268.18,-187 268.18,-151 405.82,-151 405.82,-187"/>
<text text-anchor="middle" x="337" y="-164.8" font-family="Times,serif" font-size="14.00">FileDemoComponent</text>
</g>
<!-- FileDemoModule -->
<g id="node2" class="node">
<title>FileDemoModule</title>
<polygon fill="#8dd3c7" stroke="black" points="306.54,-252 303.54,-256 282.54,-256 279.54,-252 191.46,-252 191.46,-216 306.54,-216 306.54,-252"/>
<text text-anchor="middle" x="249" y="-229.8" font-family="Times,serif" font-size="14.00">FileDemoModule</text>
</g>
<!-- FileDemoComponent&#45;&gt;FileDemoModule -->
<g id="edge1" class="edge">
<title>FileDemoComponent&#45;&gt;FileDemoModule</title>
<path fill="none" stroke="black" d="M287.55,-187.11C287.55,-187.11 287.55,-205.99 287.55,-205.99"/>
<polygon fill="black" stroke="black" points="284.05,-205.99 287.55,-215.99 291.05,-205.99 284.05,-205.99"/>
</g>
<!-- MessageService -->
<g id="node3" class="node">
<title>MessageService</title>
<ellipse fill="#fdb462" stroke="black" cx="340" cy="-104" rx="73.55" ry="18"/>
<text text-anchor="middle" x="340" y="-99.8" font-family="Times,serif" font-size="14.00">MessageService</text>
</g>
<!-- MessageService&#45;&gt;FileDemoComponent -->
<g id="edge2" class="edge">
<title>MessageService&#45;&gt;FileDemoComponent</title>
<path fill="none" stroke="black" d="M337,-122.11C337,-122.11 337,-140.99 337,-140.99"/>
<polygon fill="black" stroke="black" points="333.5,-140.99 337,-150.99 340.5,-140.99 333.5,-140.99"/>
</g>
<!-- FileDemoRoutingModule -->
<g id="node4" class="node">
<title>FileDemoRoutingModule</title>
<polygon fill="#8dd3c7" stroke="black" points="242.16,-187 239.16,-191 218.16,-191 215.16,-187 81.84,-187 81.84,-151 242.16,-151 242.16,-187"/>
<text text-anchor="middle" x="162" y="-164.8" font-family="Times,serif" font-size="14.00">FileDemoRoutingModule</text>
</g>
<!-- FileDemoRoutingModule&#45;&gt;FileDemoModule -->
<g id="edge3" class="edge">
<title>FileDemoRoutingModule&#45;&gt;FileDemoModule</title>
<path fill="none" stroke="black" d="M216.78,-187.11C216.78,-187.11 216.78,-205.99 216.78,-205.99"/>
<polygon fill="black" stroke="black" points="213.28,-205.99 216.78,-215.99 220.28,-205.99 213.28,-205.99"/>
</g>
</g>
</svg>
