<?xml version="1.0" encoding="UTF-8" standalone="no"?>
<!DOCTYPE svg PUBLIC "-//W3C//DTD SVG 1.1//EN"
 "http://www.w3.org/Graphics/SVG/1.1/DTD/svg11.dtd">
<!-- Generated by graphviz version 2.47.0 (20210316.0004)
 -->
<!-- Title: dependencies Pages: 1 -->
<svg width="562pt" height="276pt"
 viewBox="0.00 0.00 562.00 276.00" xmlns="http://www.w3.org/2000/svg" xmlns:xlink="http://www.w3.org/1999/xlink">
<g id="graph0" class="graph" transform="scale(1 1) rotate(0) translate(4 272)">
<title>dependencies</title>
<polygon fill="white" stroke="transparent" points="-4,4 -4,-272 558,-272 558,4 -4,4"/>
<text text-anchor="start" x="256.01" y="-42.4" font-family="Times-12" font-weight="bold" font-size="14.00">Legend</text>
<polygon fill="#ffffb3" stroke="transparent" points="43,-10 43,-30 63,-30 63,-10 43,-10"/>
<text text-anchor="start" x="66.63" y="-15.4" font-family="Times-12" font-size="14.00"> &#160;Declarations</text>
<polygon fill="#8dd3c7" stroke="transparent" points="156,-10 156,-30 176,-30 176,-10 156,-10"/>
<text text-anchor="start" x="179.73" y="-15.4" font-family="Times-12" font-size="14.00"> &#160;Module</text>
<polygon fill="#80b1d3" stroke="transparent" points="242,-10 242,-30 262,-30 262,-10 242,-10"/>
<text text-anchor="start" x="265.78" y="-15.4" font-family="Times-12" font-size="14.00"> &#160;Bootstrap</text>
<polygon fill="#fdb462" stroke="transparent" points="339,-10 339,-30 359,-30 359,-10 339,-10"/>
<text text-anchor="start" x="362.67" y="-15.4" font-family="Times-12" font-size="14.00"> &#160;Providers</text>
<polygon fill="#fb8072" stroke="transparent" points="435,-10 435,-30 455,-30 455,-10 435,-10"/>
<text text-anchor="start" x="458.73" y="-15.4" font-family="Times-12" font-size="14.00"> &#160;Exports</text>
<g id="clust1" class="cluster">
<title>cluster_CrudModule</title>
<polygon fill="none" stroke="black" stroke-dasharray="1,5" points="8,-70 8,-260 546,-260 546,-70 8,-70"/>
</g>
<g id="clust3" class="cluster">
<title>cluster_CrudModule_CrudComponent_providers</title>
<polygon fill="none" stroke="black" points="172,-78 172,-195 538,-195 538,-78 172,-78"/>
</g>
<g id="clust4" class="cluster">
<title>cluster_CrudModule_imports</title>
<polygon fill="none" stroke="black" points="16,-143 16,-195 164,-195 164,-143 16,-143"/>
</g>
<!-- CrudComponent -->
<g id="node1" class="node">
<title>CrudComponent</title>
<polygon fill="#ffffb3" stroke="black" points="326.83,-187 217.17,-187 217.17,-151 326.83,-151 326.83,-187"/>
<text text-anchor="middle" x="272" y="-164.8" font-family="Times,serif" font-size="14.00">CrudComponent</text>
</g>
<!-- CrudModule -->
<g id="node2" class="node">
<title>CrudModule</title>
<polygon fill="#8dd3c7" stroke="black" points="224.55,-252 221.55,-256 200.55,-256 197.55,-252 137.45,-252 137.45,-216 224.55,-216 224.55,-252"/>
<text text-anchor="middle" x="181" y="-229.8" font-family="Times,serif" font-size="14.00">CrudModule</text>
</g>
<!-- CrudComponent&#45;&gt;CrudModule -->
<g id="edge1" class="edge">
<title>CrudComponent&#45;&gt;CrudModule</title>
<path fill="none" stroke="black" d="M221.05,-187.11C221.05,-187.11 221.05,-205.99 221.05,-205.99"/>
<polygon fill="black" stroke="black" points="217.55,-205.99 221.05,-215.99 224.55,-205.99 217.55,-205.99"/>
</g>
<!-- MessageService -->
<g id="node3" class="node">
<title>MessageService</title>
<ellipse fill="#fdb462" stroke="black" cx="456" cy="-104" rx="73.55" ry="18"/>
<text text-anchor="middle" x="456" y="-99.8" font-family="Times,serif" font-size="14.00">MessageService</text>
</g>
<!-- MessageService&#45;&gt;CrudComponent -->
<g id="edge2" class="edge">
<title>MessageService&#45;&gt;CrudComponent</title>
<path fill="none" stroke="black" d="M456,-122.11C456,-141.34 456,-169 456,-169 456,-169 336.71,-169 336.71,-169"/>
<polygon fill="black" stroke="black" points="336.71,-165.5 326.71,-169 336.71,-172.5 336.71,-165.5"/>
</g>
<!-- ConfirmationService -->
<g id="node4" class="node">
<title>ConfirmationService</title>
<ellipse fill="#fdb462" stroke="black" cx="272" cy="-104" rx="92.05" ry="18"/>
<text text-anchor="middle" x="272" y="-99.8" font-family="Times,serif" font-size="14.00">ConfirmationService</text>
</g>
<!-- ConfirmationService&#45;&gt;CrudComponent -->
<g id="edge3" class="edge">
<title>ConfirmationService&#45;&gt;CrudComponent</title>
<path fill="none" stroke="black" d="M272,-122.11C272,-122.11 272,-140.99 272,-140.99"/>
<polygon fill="black" stroke="black" points="268.5,-140.99 272,-150.99 275.5,-140.99 268.5,-140.99"/>
</g>
<!-- CrudRoutingModule -->
<g id="node5" class="node">
<title>CrudRoutingModule</title>
<polygon fill="#8dd3c7" stroke="black" points="156.17,-187 153.17,-191 132.17,-191 129.17,-187 23.83,-187 23.83,-151 156.17,-151 156.17,-187"/>
<text text-anchor="middle" x="90" y="-164.8" font-family="Times,serif" font-size="14.00">CrudRoutingModule</text>
</g>
<!-- CrudRoutingModule&#45;&gt;CrudModule -->
<g id="edge4" class="edge">
<title>CrudRoutingModule&#45;&gt;CrudModule</title>
<path fill="none" stroke="black" d="M146.78,-187.11C146.78,-187.11 146.78,-205.99 146.78,-205.99"/>
<polygon fill="black" stroke="black" points="143.28,-205.99 146.78,-215.99 150.28,-205.99 143.28,-205.99"/>
</g>
</g>
</svg>
