<?xml version="1.0" encoding="UTF-8" standalone="no"?>
<!DOCTYPE svg PUBLIC "-//W3C//DTD SVG 1.1//EN"
 "http://www.w3.org/Graphics/SVG/1.1/DTD/svg11.dtd">
<!-- Generated by graphviz version 2.47.0 (20210316.0004)
 -->
<!-- Title: dependencies Pages: 1 -->
<svg width="550pt" height="211pt"
 viewBox="0.00 0.00 550.00 211.00" xmlns="http://www.w3.org/2000/svg" xmlns:xlink="http://www.w3.org/1999/xlink">
<g id="graph0" class="graph" transform="scale(1 1) rotate(0) translate(4 207)">
<title>dependencies</title>
<polygon fill="white" stroke="transparent" points="-4,4 -4,-207 546,-207 546,4 -4,4"/>
<text text-anchor="start" x="250.01" y="-42.4" font-family="Times-12" font-weight="bold" font-size="14.00">Legend</text>
<polygon fill="#ffffb3" stroke="transparent" points="37,-10 37,-30 57,-30 57,-10 37,-10"/>
<text text-anchor="start" x="60.63" y="-15.4" font-family="Times-12" font-size="14.00"> &#160;Declarations</text>
<polygon fill="#8dd3c7" stroke="transparent" points="150,-10 150,-30 170,-30 170,-10 150,-10"/>
<text text-anchor="start" x="173.73" y="-15.4" font-family="Times-12" font-size="14.00"> &#160;Module</text>
<polygon fill="#80b1d3" stroke="transparent" points="236,-10 236,-30 256,-30 256,-10 236,-10"/>
<text text-anchor="start" x="259.78" y="-15.4" font-family="Times-12" font-size="14.00"> &#160;Bootstrap</text>
<polygon fill="#fdb462" stroke="transparent" points="333,-10 333,-30 353,-30 353,-10 333,-10"/>
<text text-anchor="start" x="356.67" y="-15.4" font-family="Times-12" font-size="14.00"> &#160;Providers</text>
<polygon fill="#fb8072" stroke="transparent" points="429,-10 429,-30 449,-30 449,-10 429,-10"/>
<text text-anchor="start" x="452.73" y="-15.4" font-family="Times-12" font-size="14.00"> &#160;Exports</text>
<g id="clust1" class="cluster">
<title>cluster_PrimeBlocksModule</title>
<polygon fill="none" stroke="black" stroke-dasharray="1,5" points="8,-70 8,-195 534,-195 534,-70 8,-70"/>
</g>
<g id="clust5" class="cluster">
<title>cluster_PrimeBlocksModule_imports</title>
<polygon fill="none" stroke="black" points="334,-78 334,-130 526,-130 526,-78 334,-78"/>
</g>
<g id="clust2" class="cluster">
<title>cluster_PrimeBlocksModule_declarations</title>
<polygon fill="none" stroke="black" points="16,-78 16,-130 326,-130 326,-78 16,-78"/>
</g>
<!-- BlockViewerComponent -->
<g id="node1" class="node">
<title>BlockViewerComponent</title>
<polygon fill="#ffffb3" stroke="black" points="317.97,-122 162.03,-122 162.03,-86 317.97,-86 317.97,-122"/>
<text text-anchor="middle" x="240" y="-99.8" font-family="Times,serif" font-size="14.00">BlockViewerComponent</text>
</g>
<!-- PrimeBlocksModule -->
<g id="node3" class="node">
<title>PrimeBlocksModule</title>
<polygon fill="#8dd3c7" stroke="black" points="305.88,-187 302.88,-191 281.88,-191 278.88,-187 174.12,-187 174.12,-151 305.88,-151 305.88,-187"/>
<text text-anchor="middle" x="240" y="-164.8" font-family="Times,serif" font-size="14.00">PrimeBlocksModule</text>
</g>
<!-- BlockViewerComponent&#45;&gt;PrimeBlocksModule -->
<g id="edge1" class="edge">
<title>BlockViewerComponent&#45;&gt;PrimeBlocksModule</title>
<path fill="none" stroke="black" d="M240,-122.11C240,-122.11 240,-140.99 240,-140.99"/>
<polygon fill="black" stroke="black" points="236.5,-140.99 240,-150.99 243.5,-140.99 236.5,-140.99"/>
</g>
<!-- BlocksComponent -->
<g id="node2" class="node">
<title>BlocksComponent</title>
<polygon fill="#ffffb3" stroke="black" points="144.22,-122 23.78,-122 23.78,-86 144.22,-86 144.22,-122"/>
<text text-anchor="middle" x="84" y="-99.8" font-family="Times,serif" font-size="14.00">BlocksComponent</text>
</g>
<!-- BlocksComponent&#45;&gt;PrimeBlocksModule -->
<g id="edge2" class="edge">
<title>BlocksComponent&#45;&gt;PrimeBlocksModule</title>
<path fill="none" stroke="black" d="M84,-122.11C84,-141.34 84,-169 84,-169 84,-169 163.84,-169 163.84,-169"/>
<polygon fill="black" stroke="black" points="163.84,-172.5 173.84,-169 163.84,-165.5 163.84,-172.5"/>
</g>
<!-- PrimeBlocksRoutingModule -->
<g id="node4" class="node">
<title>PrimeBlocksRoutingModule</title>
<polygon fill="#8dd3c7" stroke="black" points="518.49,-122 515.49,-126 494.49,-126 491.49,-122 341.51,-122 341.51,-86 518.49,-86 518.49,-122"/>
<text text-anchor="middle" x="430" y="-99.8" font-family="Times,serif" font-size="14.00">PrimeBlocksRoutingModule</text>
</g>
<!-- PrimeBlocksRoutingModule&#45;&gt;PrimeBlocksModule -->
<g id="edge3" class="edge">
<title>PrimeBlocksRoutingModule&#45;&gt;PrimeBlocksModule</title>
<path fill="none" stroke="black" d="M430,-122.11C430,-141.34 430,-169 430,-169 430,-169 315.92,-169 315.92,-169"/>
<polygon fill="black" stroke="black" points="315.92,-165.5 305.92,-169 315.92,-172.5 315.92,-165.5"/>
</g>
</g>
</svg>
