<?xml version="1.0" encoding="UTF-8" standalone="no"?>
<!DOCTYPE svg PUBLIC "-//W3C//DTD SVG 1.1//EN"
 "http://www.w3.org/Graphics/SVG/1.1/DTD/svg11.dtd">
<!-- Generated by graphviz version 2.47.0 (20210316.0004)
 -->
<!-- Title: dependencies Pages: 1 -->
<svg width="566pt" height="211pt"
 viewBox="0.00 0.00 566.00 211.00" xmlns="http://www.w3.org/2000/svg" xmlns:xlink="http://www.w3.org/1999/xlink">
<g id="graph0" class="graph" transform="scale(1 1) rotate(0) translate(4 207)">
<title>dependencies</title>
<polygon fill="white" stroke="transparent" points="-4,4 -4,-207 562,-207 562,4 -4,4"/>
<text text-anchor="start" x="258.01" y="-42.4" font-family="Times-12" font-weight="bold" font-size="14.00">Legend</text>
<polygon fill="#ffffb3" stroke="transparent" points="45,-10 45,-30 65,-30 65,-10 45,-10"/>
<text text-anchor="start" x="68.63" y="-15.4" font-family="Times-12" font-size="14.00"> &#160;Declarations</text>
<polygon fill="#8dd3c7" stroke="transparent" points="158,-10 158,-30 178,-30 178,-10 158,-10"/>
<text text-anchor="start" x="181.73" y="-15.4" font-family="Times-12" font-size="14.00"> &#160;Module</text>
<polygon fill="#80b1d3" stroke="transparent" points="244,-10 244,-30 264,-30 264,-10 244,-10"/>
<text text-anchor="start" x="267.78" y="-15.4" font-family="Times-12" font-size="14.00"> &#160;Bootstrap</text>
<polygon fill="#fdb462" stroke="transparent" points="341,-10 341,-30 361,-30 361,-10 341,-10"/>
<text text-anchor="start" x="364.67" y="-15.4" font-family="Times-12" font-size="14.00"> &#160;Providers</text>
<polygon fill="#fb8072" stroke="transparent" points="437,-10 437,-30 457,-30 457,-10 437,-10"/>
<text text-anchor="start" x="460.73" y="-15.4" font-family="Times-12" font-size="14.00"> &#160;Exports</text>
<g id="clust1" class="cluster">
<title>cluster_CalendarAppModule</title>
<polygon fill="none" stroke="black" stroke-dasharray="1,5" points="8,-70 8,-195 550,-195 550,-70 8,-70"/>
</g>
<g id="clust2" class="cluster">
<title>cluster_CalendarAppModule_declarations</title>
<polygon fill="none" stroke="black" points="370,-78 370,-130 542,-130 542,-78 370,-78"/>
</g>
<g id="clust4" class="cluster">
<title>cluster_CalendarAppModule_imports</title>
<polygon fill="none" stroke="black" points="166,-78 166,-130 362,-130 362,-78 166,-78"/>
</g>
<g id="clust7" class="cluster">
<title>cluster_CalendarAppModule_providers</title>
<polygon fill="none" stroke="black" points="16,-78 16,-130 158,-130 158,-78 16,-78"/>
</g>
<!-- CalendarAppComponent -->
<g id="node1" class="node">
<title>CalendarAppComponent</title>
<polygon fill="#ffffb3" stroke="black" points="533.97,-122 378.03,-122 378.03,-86 533.97,-86 533.97,-122"/>
<text text-anchor="middle" x="456" y="-99.8" font-family="Times,serif" font-size="14.00">CalendarAppComponent</text>
</g>
<!-- CalendarAppModule -->
<g id="node2" class="node">
<title>CalendarAppModule</title>
<polygon fill="#8dd3c7" stroke="black" points="331.19,-187 328.19,-191 307.19,-191 304.19,-187 196.81,-187 196.81,-151 331.19,-151 331.19,-187"/>
<text text-anchor="middle" x="264" y="-164.8" font-family="Times,serif" font-size="14.00">CalendarAppModule</text>
</g>
<!-- CalendarAppComponent&#45;&gt;CalendarAppModule -->
<g id="edge1" class="edge">
<title>CalendarAppComponent&#45;&gt;CalendarAppModule</title>
<path fill="none" stroke="black" d="M456,-122.11C456,-141.34 456,-169 456,-169 456,-169 341.15,-169 341.15,-169"/>
<polygon fill="black" stroke="black" points="341.15,-165.5 331.15,-169 341.15,-172.5 341.15,-165.5"/>
</g>
<!-- CalendarAppRoutingModule -->
<g id="node3" class="node">
<title>CalendarAppRoutingModule</title>
<polygon fill="#8dd3c7" stroke="black" points="353.81,-122 350.81,-126 329.81,-126 326.81,-122 174.19,-122 174.19,-86 353.81,-86 353.81,-122"/>
<text text-anchor="middle" x="264" y="-99.8" font-family="Times,serif" font-size="14.00">CalendarAppRoutingModule</text>
</g>
<!-- CalendarAppRoutingModule&#45;&gt;CalendarAppModule -->
<g id="edge2" class="edge">
<title>CalendarAppRoutingModule&#45;&gt;CalendarAppModule</title>
<path fill="none" stroke="black" d="M264,-122.11C264,-122.11 264,-140.99 264,-140.99"/>
<polygon fill="black" stroke="black" points="260.5,-140.99 264,-150.99 267.5,-140.99 260.5,-140.99"/>
</g>
<!-- EventService -->
<g id="node4" class="node">
<title>EventService</title>
<ellipse fill="#fdb462" stroke="black" cx="87" cy="-104" rx="62.54" ry="18"/>
<text text-anchor="middle" x="87" y="-99.8" font-family="Times,serif" font-size="14.00">EventService</text>
</g>
<!-- EventService&#45;&gt;CalendarAppModule -->
<g id="edge3" class="edge">
<title>EventService&#45;&gt;CalendarAppModule</title>
<path fill="none" stroke="black" d="M87,-122.11C87,-141.34 87,-169 87,-169 87,-169 186.83,-169 186.83,-169"/>
<polygon fill="black" stroke="black" points="186.83,-172.5 196.83,-169 186.83,-165.5 186.83,-172.5"/>
</g>
</g>
</svg>
