<?xml version="1.0" encoding="UTF-8" standalone="no"?>
<!DOCTYPE svg PUBLIC "-//W3C//DTD SVG 1.1//EN"
 "http://www.w3.org/Graphics/SVG/1.1/DTD/svg11.dtd">
<!-- Generated by graphviz version 2.47.0 (20210316.0004)
 -->
<!-- Title: dependencies Pages: 1 -->
<svg width="504pt" height="211pt"
 viewBox="0.00 0.00 504.00 211.00" xmlns="http://www.w3.org/2000/svg" xmlns:xlink="http://www.w3.org/1999/xlink">
<g id="graph0" class="graph" transform="scale(1 1) rotate(0) translate(4 207)">
<title>dependencies</title>
<polygon fill="white" stroke="transparent" points="-4,4 -4,-207 500,-207 500,4 -4,4"/>
<text text-anchor="start" x="227.01" y="-42.4" font-family="Times-12" font-weight="bold" font-size="14.00">Legend</text>
<polygon fill="#ffffb3" stroke="transparent" points="14,-10 14,-30 34,-30 34,-10 14,-10"/>
<text text-anchor="start" x="37.63" y="-15.4" font-family="Times-12" font-size="14.00"> &#160;Declarations</text>
<polygon fill="#8dd3c7" stroke="transparent" points="127,-10 127,-30 147,-30 147,-10 127,-10"/>
<text text-anchor="start" x="150.73" y="-15.4" font-family="Times-12" font-size="14.00"> &#160;Module</text>
<polygon fill="#80b1d3" stroke="transparent" points="213,-10 213,-30 233,-30 233,-10 213,-10"/>
<text text-anchor="start" x="236.78" y="-15.4" font-family="Times-12" font-size="14.00"> &#160;Bootstrap</text>
<polygon fill="#fdb462" stroke="transparent" points="310,-10 310,-30 330,-30 330,-10 310,-10"/>
<text text-anchor="start" x="333.67" y="-15.4" font-family="Times-12" font-size="14.00"> &#160;Providers</text>
<polygon fill="#fb8072" stroke="transparent" points="406,-10 406,-30 426,-30 426,-10 406,-10"/>
<text text-anchor="start" x="429.73" y="-15.4" font-family="Times-12" font-size="14.00"> &#160;Exports</text>
<g id="clust1" class="cluster">
<title>cluster_ButtonDemoModule</title>
<polygon fill="none" stroke="black" stroke-dasharray="1,5" points="55,-70 55,-195 441,-195 441,-70 55,-70"/>
</g>
<g id="clust2" class="cluster">
<title>cluster_ButtonDemoModule_declarations</title>
<polygon fill="none" stroke="black" points="263,-78 263,-130 433,-130 433,-78 263,-78"/>
</g>
<g id="clust4" class="cluster">
<title>cluster_ButtonDemoModule_imports</title>
<polygon fill="none" stroke="black" points="63,-78 63,-130 255,-130 255,-78 63,-78"/>
</g>
<!-- ButtonDemoComponent -->
<g id="node1" class="node">
<title>ButtonDemoComponent</title>
<polygon fill="#ffffb3" stroke="black" points="424.66,-122 271.34,-122 271.34,-86 424.66,-86 424.66,-122"/>
<text text-anchor="middle" x="348" y="-99.8" font-family="Times,serif" font-size="14.00">ButtonDemoComponent</text>
</g>
<!-- ButtonDemoModule -->
<g id="node2" class="node">
<title>ButtonDemoModule</title>
<polygon fill="#8dd3c7" stroke="black" points="318.88,-187 315.88,-191 294.88,-191 291.88,-187 187.12,-187 187.12,-151 318.88,-151 318.88,-187"/>
<text text-anchor="middle" x="253" y="-164.8" font-family="Times,serif" font-size="14.00">ButtonDemoModule</text>
</g>
<!-- ButtonDemoComponent&#45;&gt;ButtonDemoModule -->
<g id="edge1" class="edge">
<title>ButtonDemoComponent&#45;&gt;ButtonDemoModule</title>
<path fill="none" stroke="black" d="M295.05,-122.11C295.05,-122.11 295.05,-140.99 295.05,-140.99"/>
<polygon fill="black" stroke="black" points="291.55,-140.99 295.05,-150.99 298.55,-140.99 291.55,-140.99"/>
</g>
<!-- ButtonDemoRoutingModule -->
<g id="node3" class="node">
<title>ButtonDemoRoutingModule</title>
<polygon fill="#8dd3c7" stroke="black" points="247.5,-122 244.5,-126 223.5,-126 220.5,-122 70.5,-122 70.5,-86 247.5,-86 247.5,-122"/>
<text text-anchor="middle" x="159" y="-99.8" font-family="Times,serif" font-size="14.00">ButtonDemoRoutingModule</text>
</g>
<!-- ButtonDemoRoutingModule&#45;&gt;ButtonDemoModule -->
<g id="edge2" class="edge">
<title>ButtonDemoRoutingModule&#45;&gt;ButtonDemoModule</title>
<path fill="none" stroke="black" d="M217.28,-122.11C217.28,-122.11 217.28,-140.99 217.28,-140.99"/>
<polygon fill="black" stroke="black" points="213.78,-140.99 217.28,-150.99 220.78,-140.99 213.78,-140.99"/>
</g>
</g>
</svg>
