<?xml version="1.0" encoding="UTF-8" standalone="no"?>
<!DOCTYPE svg PUBLIC "-//W3C//DTD SVG 1.1//EN"
 "http://www.w3.org/Graphics/SVG/1.1/DTD/svg11.dtd">
<!-- Generated by graphviz version 2.47.0 (20210316.0004)
 -->
<!-- Title: dependencies Pages: 1 -->
<svg width="504pt" height="211pt"
 viewBox="0.00 0.00 504.00 211.00" xmlns="http://www.w3.org/2000/svg" xmlns:xlink="http://www.w3.org/1999/xlink">
<g id="graph0" class="graph" transform="scale(1 1) rotate(0) translate(4 207)">
<title>dependencies</title>
<polygon fill="white" stroke="transparent" points="-4,4 -4,-207 500,-207 500,4 -4,4"/>
<text text-anchor="start" x="227.01" y="-42.4" font-family="Times-12" font-weight="bold" font-size="14.00">Legend</text>
<polygon fill="#ffffb3" stroke="transparent" points="14,-10 14,-30 34,-30 34,-10 14,-10"/>
<text text-anchor="start" x="37.63" y="-15.4" font-family="Times-12" font-size="14.00"> &#160;Declarations</text>
<polygon fill="#8dd3c7" stroke="transparent" points="127,-10 127,-30 147,-30 147,-10 127,-10"/>
<text text-anchor="start" x="150.73" y="-15.4" font-family="Times-12" font-size="14.00"> &#160;Module</text>
<polygon fill="#80b1d3" stroke="transparent" points="213,-10 213,-30 233,-30 233,-10 213,-10"/>
<text text-anchor="start" x="236.78" y="-15.4" font-family="Times-12" font-size="14.00"> &#160;Bootstrap</text>
<polygon fill="#fdb462" stroke="transparent" points="310,-10 310,-30 330,-30 330,-10 310,-10"/>
<text text-anchor="start" x="333.67" y="-15.4" font-family="Times-12" font-size="14.00"> &#160;Providers</text>
<polygon fill="#fb8072" stroke="transparent" points="406,-10 406,-30 426,-30 426,-10 406,-10"/>
<text text-anchor="start" x="429.73" y="-15.4" font-family="Times-12" font-size="14.00"> &#160;Exports</text>
<g id="clust1" class="cluster">
<title>cluster_ProfileCreateModule</title>
<polygon fill="none" stroke="black" stroke-dasharray="1,5" points="52,-70 52,-195 444,-195 444,-70 52,-70"/>
</g>
<g id="clust4" class="cluster">
<title>cluster_ProfileCreateModule_imports</title>
<polygon fill="none" stroke="black" points="240,-78 240,-130 436,-130 436,-78 240,-78"/>
</g>
<g id="clust2" class="cluster">
<title>cluster_ProfileCreateModule_declarations</title>
<polygon fill="none" stroke="black" points="60,-78 60,-130 232,-130 232,-78 60,-78"/>
</g>
<!-- ProfileCreateComponent -->
<g id="node1" class="node">
<title>ProfileCreateComponent</title>
<polygon fill="#ffffb3" stroke="black" points="223.96,-122 68.04,-122 68.04,-86 223.96,-86 223.96,-122"/>
<text text-anchor="middle" x="146" y="-99.8" font-family="Times,serif" font-size="14.00">ProfileCreateComponent</text>
</g>
<!-- ProfileCreateModule -->
<g id="node2" class="node">
<title>ProfileCreateModule</title>
<polygon fill="#8dd3c7" stroke="black" points="309.18,-187 306.18,-191 285.18,-191 282.18,-187 174.82,-187 174.82,-151 309.18,-151 309.18,-187"/>
<text text-anchor="middle" x="242" y="-164.8" font-family="Times,serif" font-size="14.00">ProfileCreateModule</text>
</g>
<!-- ProfileCreateComponent&#45;&gt;ProfileCreateModule -->
<g id="edge1" class="edge">
<title>ProfileCreateComponent&#45;&gt;ProfileCreateModule</title>
<path fill="none" stroke="black" d="M199.45,-122.11C199.45,-122.11 199.45,-140.99 199.45,-140.99"/>
<polygon fill="black" stroke="black" points="195.95,-140.99 199.45,-150.99 202.95,-140.99 195.95,-140.99"/>
</g>
<!-- ProfileCreateRoutingModule -->
<g id="node3" class="node">
<title>ProfileCreateRoutingModule</title>
<polygon fill="#8dd3c7" stroke="black" points="427.8,-122 424.8,-126 403.8,-126 400.8,-122 248.2,-122 248.2,-86 427.8,-86 427.8,-122"/>
<text text-anchor="middle" x="338" y="-99.8" font-family="Times,serif" font-size="14.00">ProfileCreateRoutingModule</text>
</g>
<!-- ProfileCreateRoutingModule&#45;&gt;ProfileCreateModule -->
<g id="edge2" class="edge">
<title>ProfileCreateRoutingModule&#45;&gt;ProfileCreateModule</title>
<path fill="none" stroke="black" d="M278.72,-122.11C278.72,-122.11 278.72,-140.99 278.72,-140.99"/>
<polygon fill="black" stroke="black" points="275.22,-140.99 278.72,-150.99 282.22,-140.99 275.22,-140.99"/>
</g>
</g>
</svg>
